G04 #@! TF.GenerationSoftware,KiCad,Pcbnew,5.1.4+dfsg1-1*
G04 #@! TF.CreationDate,2020-05-25T12:06:47-05:00*
G04 #@! TF.ProjectId,try1,74727931-2e6b-4696-9361-645f70636258,rev?*
G04 #@! TF.SameCoordinates,Original*
G04 #@! TF.FileFunction,Legend,Top*
G04 #@! TF.FilePolarity,Positive*
%FSLAX46Y46*%
G04 Gerber Fmt 4.6, Leading zero omitted, Abs format (unit mm)*
G04 Created by KiCad (PCBNEW 5.1.4+dfsg1-1) date 2020-05-25 12:06:47*
%MOMM*%
%LPD*%
G04 APERTURE LIST*
%ADD10C,0.120000*%
%ADD11C,0.152400*%
%ADD12C,0.127000*%
%ADD13C,0.100000*%
%ADD14C,0.254000*%
%ADD15C,0.150000*%
G04 APERTURE END LIST*
D10*
X39828733Y-52510000D02*
X40171267Y-52510000D01*
X39828733Y-51490000D02*
X40171267Y-51490000D01*
X109853733Y-54110000D02*
X110196267Y-54110000D01*
X109853733Y-53090000D02*
X110196267Y-53090000D01*
D11*
X97495764Y-88760300D02*
X93461449Y-88760300D01*
X93461436Y-95618300D02*
X97495751Y-95618300D01*
D12*
X83436320Y-71860000D02*
X88816320Y-71860000D01*
X83436320Y-77240000D02*
X88816320Y-77240000D01*
X83436320Y-71860000D02*
X83436320Y-72040000D01*
X88816320Y-71860000D02*
X88816320Y-72040000D01*
X88816320Y-77060000D02*
X88816320Y-77240000D01*
X83436320Y-77060000D02*
X83436320Y-77240000D01*
D10*
X68010000Y-106746267D02*
X68010000Y-106403733D01*
X66990000Y-106746267D02*
X66990000Y-106403733D01*
X105203300Y-105159500D02*
X105203300Y-106489500D01*
X103873300Y-105159500D02*
X105203300Y-105159500D01*
X102603300Y-105159500D02*
X102603300Y-107819500D01*
X102603300Y-107819500D02*
X84763300Y-107819500D01*
X102603300Y-105159500D02*
X84763300Y-105159500D01*
X84763300Y-105159500D02*
X84763300Y-107819500D01*
X102224300Y-89261767D02*
X102224300Y-88919233D01*
X101204300Y-89261767D02*
X101204300Y-88919233D01*
X79522533Y-72950800D02*
X79865067Y-72950800D01*
X79522533Y-71930800D02*
X79865067Y-71930800D01*
X100700300Y-89247767D02*
X100700300Y-88905233D01*
X99680300Y-89247767D02*
X99680300Y-88905233D01*
X64712800Y-64437700D02*
X64712800Y-58427700D01*
X71532800Y-62187700D02*
X71532800Y-58427700D01*
X64712800Y-58427700D02*
X65972800Y-58427700D01*
X71532800Y-58427700D02*
X70272800Y-58427700D01*
X62339000Y-66408400D02*
X59464000Y-63533400D01*
X62339000Y-106683400D02*
X62339000Y-66408400D01*
X42364000Y-106683400D02*
X62339000Y-106683400D01*
X35689000Y-100008400D02*
X42364000Y-106683400D01*
X35689000Y-67908400D02*
X35689000Y-100008400D01*
X40064000Y-63533400D02*
X35689000Y-67908400D01*
X59464000Y-63533400D02*
X40064000Y-63533400D01*
X73264300Y-102292233D02*
X73264300Y-102634767D01*
X74284300Y-102292233D02*
X74284300Y-102634767D01*
X62944280Y-54579813D02*
X62944280Y-54922347D01*
X63964280Y-54579813D02*
X63964280Y-54922347D01*
X54150800Y-61287733D02*
X54150800Y-61630267D01*
X55170800Y-61287733D02*
X55170800Y-61630267D01*
X110705973Y-69958680D02*
X111048507Y-69958680D01*
X110705973Y-68938680D02*
X111048507Y-68938680D01*
X104116200Y-49202200D02*
X104116200Y-51662200D01*
X105586200Y-49202200D02*
X104116200Y-49202200D01*
X105586200Y-51662200D02*
X105586200Y-49202200D01*
D13*
X69670000Y-44209440D02*
X69670000Y-50209440D01*
X63670000Y-44209440D02*
X69670000Y-44209440D01*
X63670000Y-50209440D02*
X63670000Y-44209440D01*
X69670000Y-50209440D02*
X63670000Y-50209440D01*
X109445800Y-57954920D02*
X115445800Y-57954920D01*
X109445800Y-63954920D02*
X109445800Y-57954920D01*
X115445800Y-63954920D02*
X109445800Y-63954920D01*
X115445800Y-57954920D02*
X115445800Y-63954920D01*
D10*
X96127900Y-64710200D02*
X96127900Y-67170200D01*
X97597900Y-64710200D02*
X96127900Y-64710200D01*
X97597900Y-67170200D02*
X97597900Y-64710200D01*
X103165300Y-75198600D02*
X103165300Y-74723600D01*
X95945300Y-81943600D02*
X96420300Y-81943600D01*
X95945300Y-81468600D02*
X95945300Y-81943600D01*
X95945300Y-74723600D02*
X96420300Y-74723600D01*
X95945300Y-75198600D02*
X95945300Y-74723600D01*
X103165300Y-81943600D02*
X102690300Y-81943600D01*
X103165300Y-81468600D02*
X103165300Y-81943600D01*
X110070000Y-72670000D02*
X111400000Y-72670000D01*
X110070000Y-74000000D02*
X110070000Y-72670000D01*
X112670000Y-72670000D02*
X115270000Y-72670000D01*
X112670000Y-75270000D02*
X112670000Y-72670000D01*
X110070000Y-75270000D02*
X112670000Y-75270000D01*
X115270000Y-72670000D02*
X115270000Y-100730000D01*
X110070000Y-75270000D02*
X110070000Y-100730000D01*
X110070000Y-100730000D02*
X115270000Y-100730000D01*
X74369880Y-51750000D02*
X74369880Y-45740000D01*
X81189880Y-49500000D02*
X81189880Y-45740000D01*
X74369880Y-45740000D02*
X75629880Y-45740000D01*
X81189880Y-45740000D02*
X79929880Y-45740000D01*
X86366300Y-64793300D02*
X86366300Y-58783300D01*
X93186300Y-62543300D02*
X93186300Y-58783300D01*
X86366300Y-58783300D02*
X87626300Y-58783300D01*
X93186300Y-58783300D02*
X91926300Y-58783300D01*
X82777380Y-59141440D02*
X81517380Y-59141440D01*
X75957380Y-59141440D02*
X77217380Y-59141440D01*
X82777380Y-62901440D02*
X82777380Y-59141440D01*
X75957380Y-65151440D02*
X75957380Y-59141440D01*
X86150400Y-51686900D02*
X86150400Y-45676900D01*
X92970400Y-49436900D02*
X92970400Y-45676900D01*
X86150400Y-45676900D02*
X87410400Y-45676900D01*
X92970400Y-45676900D02*
X91710400Y-45676900D01*
X75871800Y-102634767D02*
X75871800Y-102292233D01*
X74851800Y-102634767D02*
X74851800Y-102292233D01*
D13*
X48162600Y-62830000D02*
X47362600Y-62830000D01*
X48162600Y-61630000D02*
X47362600Y-61630000D01*
X45870539Y-56469760D02*
G75*
G03X45870539Y-56469760I-141419J0D01*
G01*
D12*
X44479120Y-56719760D02*
X43879120Y-56719760D01*
X43879120Y-56719760D02*
X43879120Y-58919760D01*
X43879120Y-58919760D02*
X44429120Y-58919760D01*
X45579120Y-58919760D02*
X46129120Y-58919760D01*
X46129120Y-58919760D02*
X46129120Y-56719760D01*
X46129120Y-56719760D02*
X45529120Y-56719760D01*
D14*
X44379120Y-57319760D02*
X45679120Y-57319760D01*
D10*
X108756267Y-106490000D02*
X108413733Y-106490000D01*
X108756267Y-107510000D02*
X108413733Y-107510000D01*
X109758267Y-48004000D02*
X109415733Y-48004000D01*
X109758267Y-49024000D02*
X109415733Y-49024000D01*
X41930533Y-108510000D02*
X42273067Y-108510000D01*
X41930533Y-107490000D02*
X42273067Y-107490000D01*
X34897600Y-50069933D02*
X34897600Y-50412467D01*
X35917600Y-50069933D02*
X35917600Y-50412467D01*
X102664800Y-50690933D02*
X102664800Y-51033467D01*
X103684800Y-50690933D02*
X103684800Y-51033467D01*
X57503600Y-61488533D02*
X57503600Y-61831067D01*
X58523600Y-61488533D02*
X58523600Y-61831067D01*
X103045800Y-60002633D02*
X103045800Y-60345167D01*
X104065800Y-60002633D02*
X104065800Y-60345167D01*
X101521800Y-60002633D02*
X101521800Y-60345167D01*
X102541800Y-60002633D02*
X102541800Y-60345167D01*
X99997800Y-60002633D02*
X99997800Y-60345167D01*
X101017800Y-60002633D02*
X101017800Y-60345167D01*
X83580700Y-85463167D02*
X83580700Y-85120633D01*
X82560700Y-85463167D02*
X82560700Y-85120633D01*
X82044000Y-85475867D02*
X82044000Y-85133333D01*
X81024000Y-85475867D02*
X81024000Y-85133333D01*
X78876877Y-80016801D02*
X79219411Y-80016801D01*
X78876877Y-78996801D02*
X79219411Y-78996801D01*
X78874833Y-81558300D02*
X79217367Y-81558300D01*
X78874833Y-80538300D02*
X79217367Y-80538300D01*
X78874833Y-83082300D02*
X79217367Y-83082300D01*
X78874833Y-82062300D02*
X79217367Y-82062300D01*
X84444300Y-101820767D02*
X84444300Y-101478233D01*
X83424300Y-101820767D02*
X83424300Y-101478233D01*
X87619300Y-101820767D02*
X87619300Y-101478233D01*
X86599300Y-101820767D02*
X86599300Y-101478233D01*
X90794300Y-101820767D02*
X90794300Y-101478233D01*
X89774300Y-101820767D02*
X89774300Y-101478233D01*
X93969300Y-101820767D02*
X93969300Y-101478233D01*
X92949300Y-101820767D02*
X92949300Y-101478233D01*
X97144300Y-101820767D02*
X97144300Y-101478233D01*
X96124300Y-101820767D02*
X96124300Y-101478233D01*
X100319300Y-101820767D02*
X100319300Y-101478233D01*
X99299300Y-101820767D02*
X99299300Y-101478233D01*
X103494300Y-101820767D02*
X103494300Y-101478233D01*
X102474300Y-101820767D02*
X102474300Y-101478233D01*
X106669300Y-101820767D02*
X106669300Y-101478233D01*
X105649300Y-101820767D02*
X105649300Y-101478233D01*
X89583413Y-94073440D02*
X89925947Y-94073440D01*
X89583413Y-93053440D02*
X89925947Y-93053440D01*
X89846173Y-90629200D02*
X90188707Y-90629200D01*
X89846173Y-89609200D02*
X90188707Y-89609200D01*
X89827093Y-92310000D02*
X90169627Y-92310000D01*
X89827093Y-91290000D02*
X90169627Y-91290000D01*
X93896720Y-72923613D02*
X93896720Y-73266147D01*
X94916720Y-72923613D02*
X94916720Y-73266147D01*
X71676800Y-102306233D02*
X71676800Y-102648767D01*
X72696800Y-102306233D02*
X72696800Y-102648767D01*
X70089300Y-102306233D02*
X70089300Y-102648767D01*
X71109300Y-102306233D02*
X71109300Y-102648767D01*
X68501800Y-102306233D02*
X68501800Y-102648767D01*
X69521800Y-102306233D02*
X69521800Y-102648767D01*
X78026800Y-102278233D02*
X78026800Y-102620767D01*
X79046800Y-102278233D02*
X79046800Y-102620767D01*
X76439300Y-102278233D02*
X76439300Y-102620767D01*
X77459300Y-102278233D02*
X77459300Y-102620767D01*
X65410000Y-105663067D02*
X65410000Y-105320533D01*
X64390000Y-105663067D02*
X64390000Y-105320533D01*
X63860000Y-105663067D02*
X63860000Y-105320533D01*
X62840000Y-105663067D02*
X62840000Y-105320533D01*
X55928800Y-61488533D02*
X55928800Y-61831067D01*
X56948800Y-61488533D02*
X56948800Y-61831067D01*
X92660400Y-53675648D02*
X92660400Y-54198152D01*
X94080400Y-53675648D02*
X94080400Y-54198152D01*
X83887380Y-67140188D02*
X83887380Y-67662692D01*
X82467380Y-67140188D02*
X82467380Y-67662692D01*
X92876300Y-66782048D02*
X92876300Y-67304552D01*
X94296300Y-66782048D02*
X94296300Y-67304552D01*
X85865240Y-54126313D02*
X85865240Y-54468847D01*
X86885240Y-54126313D02*
X86885240Y-54468847D01*
X76702380Y-67230173D02*
X76702380Y-67572707D01*
X75682380Y-67230173D02*
X75682380Y-67572707D01*
X86091300Y-66872033D02*
X86091300Y-67214567D01*
X87111300Y-66872033D02*
X87111300Y-67214567D01*
X88840240Y-54036328D02*
X88840240Y-54558832D01*
X90260240Y-54036328D02*
X90260240Y-54558832D01*
X80077380Y-67140188D02*
X80077380Y-67662692D01*
X78657380Y-67140188D02*
X78657380Y-67662692D01*
X89066300Y-66782048D02*
X89066300Y-67304552D01*
X90486300Y-66782048D02*
X90486300Y-67304552D01*
X98903200Y-52279964D02*
X98903200Y-51075836D01*
X97083200Y-52279964D02*
X97083200Y-51075836D01*
X100497100Y-51072867D02*
X100497100Y-50730333D01*
X99477100Y-51072867D02*
X99477100Y-50730333D01*
X102021100Y-51072867D02*
X102021100Y-50730333D01*
X101001100Y-51072867D02*
X101001100Y-50730333D01*
X80879880Y-53813748D02*
X80879880Y-54336252D01*
X82299880Y-53813748D02*
X82299880Y-54336252D01*
X71222800Y-66426448D02*
X71222800Y-66948952D01*
X72642800Y-66426448D02*
X72642800Y-66948952D01*
X74293000Y-54457813D02*
X74293000Y-54800347D01*
X75313000Y-54457813D02*
X75313000Y-54800347D01*
X64437800Y-66516433D02*
X64437800Y-66858967D01*
X65457800Y-66516433D02*
X65457800Y-66858967D01*
X77196880Y-54090828D02*
X77196880Y-54613332D01*
X78616880Y-54090828D02*
X78616880Y-54613332D01*
X67412800Y-66426448D02*
X67412800Y-66948952D01*
X68832800Y-66426448D02*
X68832800Y-66948952D01*
X86565200Y-81135067D02*
X86565200Y-80792533D01*
X85545200Y-81135067D02*
X85545200Y-80792533D01*
X52661600Y-63134400D02*
X51201600Y-63134400D01*
X52661600Y-59974400D02*
X50501600Y-59974400D01*
X52661600Y-59974400D02*
X52661600Y-60904400D01*
X52661600Y-63134400D02*
X52661600Y-62204400D01*
X43697200Y-60138000D02*
X43697200Y-61468000D01*
X42367200Y-60138000D02*
X43697200Y-60138000D01*
X41097200Y-60138000D02*
X41097200Y-62798000D01*
X41097200Y-62798000D02*
X35957200Y-62798000D01*
X41097200Y-60138000D02*
X35957200Y-60138000D01*
X35957200Y-60138000D02*
X35957200Y-62798000D01*
X58085680Y-41396480D02*
X43585680Y-41396480D01*
X43585680Y-41396480D02*
X43585680Y-41896480D01*
X43585680Y-41896480D02*
X44585680Y-41896480D01*
X44585680Y-41896480D02*
X44585680Y-49896480D01*
X44585680Y-53396480D02*
X44585680Y-55396480D01*
X44585680Y-55396480D02*
X57085680Y-55396480D01*
X57085680Y-55396480D02*
X57085680Y-53396480D01*
X57085680Y-49896480D02*
X57085680Y-41896480D01*
X57085680Y-41896480D02*
X58085680Y-41896480D01*
X58085680Y-41896480D02*
X58085680Y-41396480D01*
X54835680Y-55646480D02*
X53835680Y-55646480D01*
D15*
X100562000Y-48120000D02*
X99562000Y-48120000D01*
X104162000Y-48120000D02*
X105162000Y-48120000D01*
X104162000Y-48545000D02*
X104162000Y-48120000D01*
X103437000Y-48545000D02*
X104162000Y-48545000D01*
X98212000Y-44970000D02*
X98212000Y-46370000D01*
X98212000Y-42420000D02*
X98212000Y-42570000D01*
X98512000Y-42420000D02*
X98212000Y-42420000D01*
X98512000Y-41970000D02*
X98512000Y-42420000D01*
X106212000Y-42420000D02*
X106212000Y-41970000D01*
X106512000Y-42420000D02*
X106212000Y-42420000D01*
X106512000Y-42570000D02*
X106512000Y-42420000D01*
X106512000Y-46370000D02*
X106512000Y-44970000D01*
D10*
X84122800Y-85133333D02*
X84122800Y-85475867D01*
X85142800Y-85133333D02*
X85142800Y-85475867D01*
X97940400Y-66212933D02*
X97940400Y-66555467D01*
X98960400Y-66212933D02*
X98960400Y-66555467D01*
X107173300Y-101478233D02*
X107173300Y-101820767D01*
X108193300Y-101478233D02*
X108193300Y-101820767D01*
X103998300Y-101478233D02*
X103998300Y-101820767D01*
X105018300Y-101478233D02*
X105018300Y-101820767D01*
X100823300Y-101478233D02*
X100823300Y-101820767D01*
X101843300Y-101478233D02*
X101843300Y-101820767D01*
X97648300Y-101478233D02*
X97648300Y-101820767D01*
X98668300Y-101478233D02*
X98668300Y-101820767D01*
X94473300Y-101478233D02*
X94473300Y-101820767D01*
X95493300Y-101478233D02*
X95493300Y-101820767D01*
X91298300Y-101478233D02*
X91298300Y-101820767D01*
X92318300Y-101478233D02*
X92318300Y-101820767D01*
X88123300Y-101478233D02*
X88123300Y-101820767D01*
X89143300Y-101478233D02*
X89143300Y-101820767D01*
X84948300Y-101478233D02*
X84948300Y-101820767D01*
X85968300Y-101478233D02*
X85968300Y-101820767D01*
X110925427Y-67114960D02*
X110582893Y-67114960D01*
X110925427Y-68134960D02*
X110582893Y-68134960D01*
X92224320Y-73586187D02*
X92224320Y-73243653D01*
X91204320Y-73586187D02*
X91204320Y-73243653D01*
X79846267Y-73490000D02*
X79503733Y-73490000D01*
X79846267Y-74510000D02*
X79503733Y-74510000D01*
X82221800Y-102634767D02*
X82221800Y-102292233D01*
X81201800Y-102634767D02*
X81201800Y-102292233D01*
X66952400Y-95372133D02*
X66952400Y-95714667D01*
X67972400Y-95372133D02*
X67972400Y-95714667D01*
X80634300Y-102620767D02*
X80634300Y-102278233D01*
X79614300Y-102620767D02*
X79614300Y-102278233D01*
X64051333Y-77472000D02*
X64393867Y-77472000D01*
X64051333Y-76452000D02*
X64393867Y-76452000D01*
X64051333Y-75440000D02*
X64393867Y-75440000D01*
X64051333Y-74420000D02*
X64393867Y-74420000D01*
X64051333Y-73509600D02*
X64393867Y-73509600D01*
X64051333Y-72489600D02*
X64393867Y-72489600D01*
X60693840Y-54422253D02*
X60693840Y-54764787D01*
X61713840Y-54422253D02*
X61713840Y-54764787D01*
X106068400Y-50628733D02*
X106068400Y-50971267D01*
X107088400Y-50628733D02*
X107088400Y-50971267D01*
X89020467Y-84935600D02*
X88677933Y-84935600D01*
X89020467Y-85955600D02*
X88677933Y-85955600D01*
X71786000Y-97870800D02*
X71786000Y-99210800D01*
X70836000Y-97870800D02*
X71786000Y-97870800D01*
X70836000Y-96920800D02*
X70836000Y-97870800D01*
X70836000Y-87650800D02*
X71786000Y-87650800D01*
X70836000Y-88600800D02*
X70836000Y-87650800D01*
X81056000Y-97870800D02*
X80106000Y-97870800D01*
X81056000Y-96920800D02*
X81056000Y-97870800D01*
X81056000Y-87650800D02*
X80106000Y-87650800D01*
X81056000Y-88600800D02*
X81056000Y-87650800D01*
X78860833Y-84606300D02*
X79203367Y-84606300D01*
X78860833Y-83586300D02*
X79203367Y-83586300D01*
X64051333Y-81383600D02*
X64393867Y-81383600D01*
X64051333Y-80363600D02*
X64393867Y-80363600D01*
X64028533Y-79504000D02*
X64371067Y-79504000D01*
X64028533Y-78484000D02*
X64371067Y-78484000D01*
D15*
X38690476Y-50498571D02*
X38357142Y-50498571D01*
X38357142Y-51022380D02*
X38357142Y-50022380D01*
X38833333Y-50022380D01*
X39547619Y-50498571D02*
X39690476Y-50546190D01*
X39738095Y-50593809D01*
X39785714Y-50689047D01*
X39785714Y-50831904D01*
X39738095Y-50927142D01*
X39690476Y-50974761D01*
X39595238Y-51022380D01*
X39214285Y-51022380D01*
X39214285Y-50022380D01*
X39547619Y-50022380D01*
X39642857Y-50070000D01*
X39690476Y-50117619D01*
X39738095Y-50212857D01*
X39738095Y-50308095D01*
X39690476Y-50403333D01*
X39642857Y-50450952D01*
X39547619Y-50498571D01*
X39214285Y-50498571D01*
X40738095Y-51022380D02*
X40166666Y-51022380D01*
X40452380Y-51022380D02*
X40452380Y-50022380D01*
X40357142Y-50165238D01*
X40261904Y-50260476D01*
X40166666Y-50308095D01*
X41357142Y-50022380D02*
X41452380Y-50022380D01*
X41547619Y-50070000D01*
X41595238Y-50117619D01*
X41642857Y-50212857D01*
X41690476Y-50403333D01*
X41690476Y-50641428D01*
X41642857Y-50831904D01*
X41595238Y-50927142D01*
X41547619Y-50974761D01*
X41452380Y-51022380D01*
X41357142Y-51022380D01*
X41261904Y-50974761D01*
X41214285Y-50927142D01*
X41166666Y-50831904D01*
X41119047Y-50641428D01*
X41119047Y-50403333D01*
X41166666Y-50212857D01*
X41214285Y-50117619D01*
X41261904Y-50070000D01*
X41357142Y-50022380D01*
X109191666Y-52098571D02*
X108858333Y-52098571D01*
X108858333Y-52622380D02*
X108858333Y-51622380D01*
X109334523Y-51622380D01*
X110048809Y-52098571D02*
X110191666Y-52146190D01*
X110239285Y-52193809D01*
X110286904Y-52289047D01*
X110286904Y-52431904D01*
X110239285Y-52527142D01*
X110191666Y-52574761D01*
X110096428Y-52622380D01*
X109715476Y-52622380D01*
X109715476Y-51622380D01*
X110048809Y-51622380D01*
X110144047Y-51670000D01*
X110191666Y-51717619D01*
X110239285Y-51812857D01*
X110239285Y-51908095D01*
X110191666Y-52003333D01*
X110144047Y-52050952D01*
X110048809Y-52098571D01*
X109715476Y-52098571D01*
X110763095Y-52622380D02*
X110953571Y-52622380D01*
X111048809Y-52574761D01*
X111096428Y-52527142D01*
X111191666Y-52384285D01*
X111239285Y-52193809D01*
X111239285Y-51812857D01*
X111191666Y-51717619D01*
X111144047Y-51670000D01*
X111048809Y-51622380D01*
X110858333Y-51622380D01*
X110763095Y-51670000D01*
X110715476Y-51717619D01*
X110667857Y-51812857D01*
X110667857Y-52050952D01*
X110715476Y-52146190D01*
X110763095Y-52193809D01*
X110858333Y-52241428D01*
X111048809Y-52241428D01*
X111144047Y-52193809D01*
X111191666Y-52146190D01*
X111239285Y-52050952D01*
X92659295Y-87387180D02*
X92659295Y-88196704D01*
X92706914Y-88291942D01*
X92754533Y-88339561D01*
X92849771Y-88387180D01*
X93040247Y-88387180D01*
X93135485Y-88339561D01*
X93183104Y-88291942D01*
X93230723Y-88196704D01*
X93230723Y-87387180D01*
X93659295Y-87482419D02*
X93706914Y-87434800D01*
X93802152Y-87387180D01*
X94040247Y-87387180D01*
X94135485Y-87434800D01*
X94183104Y-87482419D01*
X94230723Y-87577657D01*
X94230723Y-87672895D01*
X94183104Y-87815752D01*
X93611676Y-88387180D01*
X94230723Y-88387180D01*
X81873627Y-77710185D02*
X81873627Y-78520589D01*
X81921297Y-78615931D01*
X81968968Y-78663601D01*
X82064310Y-78711272D01*
X82254993Y-78711272D01*
X82350335Y-78663601D01*
X82398005Y-78615931D01*
X82445676Y-78520589D01*
X82445676Y-77710185D01*
X82827043Y-77710185D02*
X83446763Y-77710185D01*
X83113068Y-78091552D01*
X83256080Y-78091552D01*
X83351422Y-78139222D01*
X83399092Y-78186893D01*
X83446763Y-78282235D01*
X83446763Y-78520589D01*
X83399092Y-78615931D01*
X83351422Y-78663601D01*
X83256080Y-78711272D01*
X82970055Y-78711272D01*
X82874714Y-78663601D01*
X82827043Y-78615931D01*
X67528571Y-104433333D02*
X67528571Y-104766666D01*
X68052380Y-104766666D02*
X67052380Y-104766666D01*
X67052380Y-104290476D01*
X67528571Y-103576190D02*
X67576190Y-103433333D01*
X67623809Y-103385714D01*
X67719047Y-103338095D01*
X67861904Y-103338095D01*
X67957142Y-103385714D01*
X68004761Y-103433333D01*
X68052380Y-103528571D01*
X68052380Y-103909523D01*
X67052380Y-103909523D01*
X67052380Y-103576190D01*
X67100000Y-103480952D01*
X67147619Y-103433333D01*
X67242857Y-103385714D01*
X67338095Y-103385714D01*
X67433333Y-103433333D01*
X67480952Y-103480952D01*
X67528571Y-103576190D01*
X67528571Y-103909523D01*
X67480952Y-102766666D02*
X67433333Y-102861904D01*
X67385714Y-102909523D01*
X67290476Y-102957142D01*
X67242857Y-102957142D01*
X67147619Y-102909523D01*
X67100000Y-102861904D01*
X67052380Y-102766666D01*
X67052380Y-102576190D01*
X67100000Y-102480952D01*
X67147619Y-102433333D01*
X67242857Y-102385714D01*
X67290476Y-102385714D01*
X67385714Y-102433333D01*
X67433333Y-102480952D01*
X67480952Y-102576190D01*
X67480952Y-102766666D01*
X67528571Y-102861904D01*
X67576190Y-102909523D01*
X67671428Y-102957142D01*
X67861904Y-102957142D01*
X67957142Y-102909523D01*
X68004761Y-102861904D01*
X68052380Y-102766666D01*
X68052380Y-102576190D01*
X68004761Y-102480952D01*
X67957142Y-102433333D01*
X67861904Y-102385714D01*
X67671428Y-102385714D01*
X67576190Y-102433333D01*
X67528571Y-102480952D01*
X67480952Y-102576190D01*
X105655680Y-106822833D02*
X106369966Y-106822833D01*
X106512823Y-106870452D01*
X106608061Y-106965690D01*
X106655680Y-107108547D01*
X106655680Y-107203785D01*
X105750919Y-106394261D02*
X105703300Y-106346642D01*
X105655680Y-106251404D01*
X105655680Y-106013309D01*
X105703300Y-105918071D01*
X105750919Y-105870452D01*
X105846157Y-105822833D01*
X105941395Y-105822833D01*
X106084252Y-105870452D01*
X106655680Y-106441880D01*
X106655680Y-105822833D01*
X102200982Y-92827077D02*
X102248601Y-92874696D01*
X102296220Y-93017553D01*
X102296220Y-93112791D01*
X102248601Y-93255648D01*
X102153363Y-93350886D01*
X102058125Y-93398505D01*
X101867649Y-93446124D01*
X101724792Y-93446124D01*
X101534316Y-93398505D01*
X101439078Y-93350886D01*
X101343840Y-93255648D01*
X101296220Y-93112791D01*
X101296220Y-93017553D01*
X101343840Y-92874696D01*
X101391459Y-92827077D01*
X102296220Y-91874696D02*
X102296220Y-92446124D01*
X102296220Y-92160410D02*
X101296220Y-92160410D01*
X101439078Y-92255648D01*
X101534316Y-92350886D01*
X101581935Y-92446124D01*
X102296220Y-91398505D02*
X102296220Y-91208029D01*
X102248601Y-91112791D01*
X102200982Y-91065172D01*
X102058125Y-90969934D01*
X101867649Y-90922315D01*
X101486697Y-90922315D01*
X101391459Y-90969934D01*
X101343840Y-91017553D01*
X101296220Y-91112791D01*
X101296220Y-91303267D01*
X101343840Y-91398505D01*
X101391459Y-91446124D01*
X101486697Y-91493743D01*
X101724792Y-91493743D01*
X101820030Y-91446124D01*
X101867649Y-91398505D01*
X101915268Y-91303267D01*
X101915268Y-91112791D01*
X101867649Y-91017553D01*
X101820030Y-90969934D01*
X101724792Y-90922315D01*
X75857142Y-73052380D02*
X75523809Y-72576190D01*
X75285714Y-73052380D02*
X75285714Y-72052380D01*
X75666666Y-72052380D01*
X75761904Y-72100000D01*
X75809523Y-72147619D01*
X75857142Y-72242857D01*
X75857142Y-72385714D01*
X75809523Y-72480952D01*
X75761904Y-72528571D01*
X75666666Y-72576190D01*
X75285714Y-72576190D01*
X76809523Y-73052380D02*
X76238095Y-73052380D01*
X76523809Y-73052380D02*
X76523809Y-72052380D01*
X76428571Y-72195238D01*
X76333333Y-72290476D01*
X76238095Y-72338095D01*
X77142857Y-72052380D02*
X77761904Y-72052380D01*
X77428571Y-72433333D01*
X77571428Y-72433333D01*
X77666666Y-72480952D01*
X77714285Y-72528571D01*
X77761904Y-72623809D01*
X77761904Y-72861904D01*
X77714285Y-72957142D01*
X77666666Y-73004761D01*
X77571428Y-73052380D01*
X77285714Y-73052380D01*
X77190476Y-73004761D01*
X77142857Y-72957142D01*
X100547442Y-86619257D02*
X100595061Y-86666876D01*
X100642680Y-86809733D01*
X100642680Y-86904971D01*
X100595061Y-87047828D01*
X100499823Y-87143066D01*
X100404585Y-87190685D01*
X100214109Y-87238304D01*
X100071252Y-87238304D01*
X99880776Y-87190685D01*
X99785538Y-87143066D01*
X99690300Y-87047828D01*
X99642680Y-86904971D01*
X99642680Y-86809733D01*
X99690300Y-86666876D01*
X99737919Y-86619257D01*
X99737919Y-86238304D02*
X99690300Y-86190685D01*
X99642680Y-86095447D01*
X99642680Y-85857352D01*
X99690300Y-85762114D01*
X99737919Y-85714495D01*
X99833157Y-85666876D01*
X99928395Y-85666876D01*
X100071252Y-85714495D01*
X100642680Y-86285923D01*
X100642680Y-85666876D01*
X100642680Y-84714495D02*
X100642680Y-85285923D01*
X100642680Y-85000209D02*
X99642680Y-85000209D01*
X99785538Y-85095447D01*
X99880776Y-85190685D01*
X99928395Y-85285923D01*
X63313060Y-62878815D02*
X64122584Y-62878815D01*
X64217822Y-62831196D01*
X64265441Y-62783577D01*
X64313060Y-62688339D01*
X64313060Y-62497862D01*
X64265441Y-62402624D01*
X64217822Y-62355005D01*
X64122584Y-62307386D01*
X63313060Y-62307386D01*
X64313060Y-61307386D02*
X64313060Y-61878815D01*
X64313060Y-61593100D02*
X63313060Y-61593100D01*
X63455918Y-61688339D01*
X63551156Y-61783577D01*
X63598775Y-61878815D01*
X63313060Y-60688339D02*
X63313060Y-60593100D01*
X63360680Y-60497862D01*
X63408299Y-60450243D01*
X63503537Y-60402624D01*
X63694013Y-60355005D01*
X63932108Y-60355005D01*
X64122584Y-60402624D01*
X64217822Y-60450243D01*
X64265441Y-60497862D01*
X64313060Y-60593100D01*
X64313060Y-60688339D01*
X64265441Y-60783577D01*
X64217822Y-60831196D01*
X64122584Y-60878815D01*
X63932108Y-60926434D01*
X63694013Y-60926434D01*
X63503537Y-60878815D01*
X63408299Y-60831196D01*
X63360680Y-60783577D01*
X63313060Y-60688339D01*
X59552095Y-107010780D02*
X59552095Y-107820304D01*
X59599714Y-107915542D01*
X59647333Y-107963161D01*
X59742571Y-108010780D01*
X59933047Y-108010780D01*
X60028285Y-107963161D01*
X60075904Y-107915542D01*
X60123523Y-107820304D01*
X60123523Y-107010780D01*
X61075904Y-107010780D02*
X60599714Y-107010780D01*
X60552095Y-107486971D01*
X60599714Y-107439352D01*
X60694952Y-107391733D01*
X60933047Y-107391733D01*
X61028285Y-107439352D01*
X61075904Y-107486971D01*
X61123523Y-107582209D01*
X61123523Y-107820304D01*
X61075904Y-107915542D01*
X61028285Y-107963161D01*
X60933047Y-108010780D01*
X60694952Y-108010780D01*
X60599714Y-107963161D01*
X60552095Y-107915542D01*
X74164442Y-106852857D02*
X74212061Y-106900476D01*
X74259680Y-107043333D01*
X74259680Y-107138571D01*
X74212061Y-107281428D01*
X74116823Y-107376666D01*
X74021585Y-107424285D01*
X73831109Y-107471904D01*
X73688252Y-107471904D01*
X73497776Y-107424285D01*
X73402538Y-107376666D01*
X73307300Y-107281428D01*
X73259680Y-107138571D01*
X73259680Y-107043333D01*
X73307300Y-106900476D01*
X73354919Y-106852857D01*
X73354919Y-106471904D02*
X73307300Y-106424285D01*
X73259680Y-106329047D01*
X73259680Y-106090952D01*
X73307300Y-105995714D01*
X73354919Y-105948095D01*
X73450157Y-105900476D01*
X73545395Y-105900476D01*
X73688252Y-105948095D01*
X74259680Y-106519523D01*
X74259680Y-105900476D01*
X73259680Y-104995714D02*
X73259680Y-105471904D01*
X73735871Y-105519523D01*
X73688252Y-105471904D01*
X73640633Y-105376666D01*
X73640633Y-105138571D01*
X73688252Y-105043333D01*
X73735871Y-104995714D01*
X73831109Y-104948095D01*
X74069204Y-104948095D01*
X74164442Y-104995714D01*
X74212061Y-105043333D01*
X74259680Y-105138571D01*
X74259680Y-105376666D01*
X74212061Y-105471904D01*
X74164442Y-105519523D01*
X63902862Y-58427857D02*
X63950481Y-58475476D01*
X63998100Y-58618333D01*
X63998100Y-58713571D01*
X63950481Y-58856428D01*
X63855243Y-58951666D01*
X63760005Y-58999285D01*
X63569529Y-59046904D01*
X63426672Y-59046904D01*
X63236196Y-58999285D01*
X63140958Y-58951666D01*
X63045720Y-58856428D01*
X62998100Y-58713571D01*
X62998100Y-58618333D01*
X63045720Y-58475476D01*
X63093339Y-58427857D01*
X62998100Y-58094523D02*
X62998100Y-57475476D01*
X63379053Y-57808809D01*
X63379053Y-57665952D01*
X63426672Y-57570714D01*
X63474291Y-57523095D01*
X63569529Y-57475476D01*
X63807624Y-57475476D01*
X63902862Y-57523095D01*
X63950481Y-57570714D01*
X63998100Y-57665952D01*
X63998100Y-57951666D01*
X63950481Y-58046904D01*
X63902862Y-58094523D01*
X62998100Y-56618333D02*
X62998100Y-56808809D01*
X63045720Y-56904047D01*
X63093339Y-56951666D01*
X63236196Y-57046904D01*
X63426672Y-57094523D01*
X63807624Y-57094523D01*
X63902862Y-57046904D01*
X63950481Y-56999285D01*
X63998100Y-56904047D01*
X63998100Y-56713571D01*
X63950481Y-56618333D01*
X63902862Y-56570714D01*
X63807624Y-56523095D01*
X63569529Y-56523095D01*
X63474291Y-56570714D01*
X63426672Y-56618333D01*
X63379053Y-56713571D01*
X63379053Y-56904047D01*
X63426672Y-56999285D01*
X63474291Y-57046904D01*
X63569529Y-57094523D01*
X55337982Y-59017137D02*
X55385601Y-59064756D01*
X55433220Y-59207613D01*
X55433220Y-59302851D01*
X55385601Y-59445708D01*
X55290363Y-59540946D01*
X55195125Y-59588565D01*
X55004649Y-59636184D01*
X54861792Y-59636184D01*
X54671316Y-59588565D01*
X54576078Y-59540946D01*
X54480840Y-59445708D01*
X54433220Y-59302851D01*
X54433220Y-59207613D01*
X54480840Y-59064756D01*
X54528459Y-59017137D01*
X54433220Y-58683803D02*
X54433220Y-58064756D01*
X54814173Y-58398089D01*
X54814173Y-58255232D01*
X54861792Y-58159994D01*
X54909411Y-58112375D01*
X55004649Y-58064756D01*
X55242744Y-58064756D01*
X55337982Y-58112375D01*
X55385601Y-58159994D01*
X55433220Y-58255232D01*
X55433220Y-58540946D01*
X55385601Y-58636184D01*
X55337982Y-58683803D01*
X54766554Y-57207613D02*
X55433220Y-57207613D01*
X54385601Y-57445708D02*
X55099887Y-57683803D01*
X55099887Y-57064756D01*
X113291382Y-69821062D02*
X113243763Y-69868681D01*
X113100906Y-69916300D01*
X113005668Y-69916300D01*
X112862811Y-69868681D01*
X112767573Y-69773443D01*
X112719954Y-69678205D01*
X112672335Y-69487729D01*
X112672335Y-69344872D01*
X112719954Y-69154396D01*
X112767573Y-69059158D01*
X112862811Y-68963920D01*
X113005668Y-68916300D01*
X113100906Y-68916300D01*
X113243763Y-68963920D01*
X113291382Y-69011539D01*
X114243763Y-69916300D02*
X113672335Y-69916300D01*
X113958049Y-69916300D02*
X113958049Y-68916300D01*
X113862811Y-69059158D01*
X113767573Y-69154396D01*
X113672335Y-69202015D01*
X115100906Y-69249634D02*
X115100906Y-69916300D01*
X114862811Y-68868681D02*
X114624716Y-69582967D01*
X115243763Y-69582967D01*
X105354380Y-54179695D02*
X104354380Y-54179695D01*
X104354380Y-53941600D01*
X104402000Y-53798742D01*
X104497238Y-53703504D01*
X104592476Y-53655885D01*
X104782952Y-53608266D01*
X104925809Y-53608266D01*
X105116285Y-53655885D01*
X105211523Y-53703504D01*
X105306761Y-53798742D01*
X105354380Y-53941600D01*
X105354380Y-54179695D01*
X104354380Y-52703504D02*
X104354380Y-53179695D01*
X104830571Y-53227314D01*
X104782952Y-53179695D01*
X104735333Y-53084457D01*
X104735333Y-52846361D01*
X104782952Y-52751123D01*
X104830571Y-52703504D01*
X104925809Y-52655885D01*
X105163904Y-52655885D01*
X105259142Y-52703504D01*
X105306761Y-52751123D01*
X105354380Y-52846361D01*
X105354380Y-53084457D01*
X105306761Y-53179695D01*
X105259142Y-53227314D01*
D14*
X65276666Y-47723487D02*
X65458095Y-47783963D01*
X65760476Y-47783963D01*
X65881428Y-47723487D01*
X65941904Y-47663011D01*
X66002380Y-47542059D01*
X66002380Y-47421106D01*
X65941904Y-47300154D01*
X65881428Y-47239678D01*
X65760476Y-47179201D01*
X65518571Y-47118725D01*
X65397619Y-47058249D01*
X65337142Y-46997773D01*
X65276666Y-46876820D01*
X65276666Y-46755868D01*
X65337142Y-46634916D01*
X65397619Y-46574440D01*
X65518571Y-46513963D01*
X65820952Y-46513963D01*
X66002380Y-46574440D01*
X66425714Y-46513963D02*
X66728095Y-47783963D01*
X66970000Y-46876820D01*
X67211904Y-47783963D01*
X67514285Y-46513963D01*
X67937619Y-46634916D02*
X67998095Y-46574440D01*
X68119047Y-46513963D01*
X68421428Y-46513963D01*
X68542380Y-46574440D01*
X68602857Y-46634916D01*
X68663333Y-46755868D01*
X68663333Y-46876820D01*
X68602857Y-47058249D01*
X67877142Y-47783963D01*
X68663333Y-47783963D01*
X112959847Y-62348253D02*
X113020323Y-62166824D01*
X113020323Y-61864443D01*
X112959847Y-61743491D01*
X112899371Y-61683015D01*
X112778419Y-61622539D01*
X112657466Y-61622539D01*
X112536514Y-61683015D01*
X112476038Y-61743491D01*
X112415561Y-61864443D01*
X112355085Y-62106348D01*
X112294609Y-62227300D01*
X112234133Y-62287777D01*
X112113180Y-62348253D01*
X111992228Y-62348253D01*
X111871276Y-62287777D01*
X111810800Y-62227300D01*
X111750323Y-62106348D01*
X111750323Y-61803967D01*
X111810800Y-61622539D01*
X111750323Y-61199205D02*
X113020323Y-60896824D01*
X112113180Y-60654920D01*
X113020323Y-60413015D01*
X111750323Y-60110634D01*
X113020323Y-58961586D02*
X113020323Y-59687300D01*
X113020323Y-59324443D02*
X111750323Y-59324443D01*
X111931752Y-59445396D01*
X112052704Y-59566348D01*
X112113180Y-59687300D01*
D15*
X97348280Y-64441295D02*
X96348280Y-64441295D01*
X96348280Y-64203200D01*
X96395900Y-64060342D01*
X96491138Y-63965104D01*
X96586376Y-63917485D01*
X96776852Y-63869866D01*
X96919709Y-63869866D01*
X97110185Y-63917485D01*
X97205423Y-63965104D01*
X97300661Y-64060342D01*
X97348280Y-64203200D01*
X97348280Y-64441295D01*
X96443519Y-63488914D02*
X96395900Y-63441295D01*
X96348280Y-63346057D01*
X96348280Y-63107961D01*
X96395900Y-63012723D01*
X96443519Y-62965104D01*
X96538757Y-62917485D01*
X96633995Y-62917485D01*
X96776852Y-62965104D01*
X97348280Y-63536533D01*
X97348280Y-62917485D01*
X96890476Y-82811904D02*
X96890476Y-83459523D01*
X96928571Y-83535714D01*
X96966666Y-83573809D01*
X97042857Y-83611904D01*
X97195238Y-83611904D01*
X97271428Y-83573809D01*
X97309523Y-83535714D01*
X97347619Y-83459523D01*
X97347619Y-82811904D01*
X98147619Y-83611904D02*
X97690476Y-83611904D01*
X97919047Y-83611904D02*
X97919047Y-82811904D01*
X97842857Y-82926190D01*
X97766666Y-83002380D01*
X97690476Y-83040476D01*
X110916666Y-71452380D02*
X110916666Y-72166666D01*
X110869047Y-72309523D01*
X110773809Y-72404761D01*
X110630952Y-72452380D01*
X110535714Y-72452380D01*
X111916666Y-72452380D02*
X111345238Y-72452380D01*
X111630952Y-72452380D02*
X111630952Y-71452380D01*
X111535714Y-71595238D01*
X111440476Y-71690476D01*
X111345238Y-71738095D01*
X89490476Y-78052380D02*
X90157142Y-79052380D01*
X90157142Y-78052380D02*
X89490476Y-79052380D01*
X91061904Y-79052380D02*
X90490476Y-79052380D01*
X90776190Y-79052380D02*
X90776190Y-78052380D01*
X90680952Y-78195238D01*
X90585714Y-78290476D01*
X90490476Y-78338095D01*
X73041260Y-48005504D02*
X73850784Y-48005504D01*
X73946022Y-47957885D01*
X73993641Y-47910266D01*
X74041260Y-47815028D01*
X74041260Y-47624552D01*
X73993641Y-47529314D01*
X73946022Y-47481695D01*
X73850784Y-47434076D01*
X73041260Y-47434076D01*
X74041260Y-46910266D02*
X74041260Y-46719790D01*
X73993641Y-46624552D01*
X73946022Y-46576933D01*
X73803165Y-46481695D01*
X73612689Y-46434076D01*
X73231737Y-46434076D01*
X73136499Y-46481695D01*
X73088880Y-46529314D01*
X73041260Y-46624552D01*
X73041260Y-46815028D01*
X73088880Y-46910266D01*
X73136499Y-46957885D01*
X73231737Y-47005504D01*
X73469832Y-47005504D01*
X73565070Y-46957885D01*
X73612689Y-46910266D01*
X73660308Y-46815028D01*
X73660308Y-46624552D01*
X73612689Y-46529314D01*
X73565070Y-46481695D01*
X73469832Y-46434076D01*
X84728680Y-61455204D02*
X85538204Y-61455204D01*
X85633442Y-61407585D01*
X85681061Y-61359966D01*
X85728680Y-61264728D01*
X85728680Y-61074252D01*
X85681061Y-60979014D01*
X85633442Y-60931395D01*
X85538204Y-60883776D01*
X84728680Y-60883776D01*
X85157252Y-60264728D02*
X85109633Y-60359966D01*
X85062014Y-60407585D01*
X84966776Y-60455204D01*
X84919157Y-60455204D01*
X84823919Y-60407585D01*
X84776300Y-60359966D01*
X84728680Y-60264728D01*
X84728680Y-60074252D01*
X84776300Y-59979014D01*
X84823919Y-59931395D01*
X84919157Y-59883776D01*
X84966776Y-59883776D01*
X85062014Y-59931395D01*
X85109633Y-59979014D01*
X85157252Y-60074252D01*
X85157252Y-60264728D01*
X85204871Y-60359966D01*
X85252490Y-60407585D01*
X85347728Y-60455204D01*
X85538204Y-60455204D01*
X85633442Y-60407585D01*
X85681061Y-60359966D01*
X85728680Y-60264728D01*
X85728680Y-60074252D01*
X85681061Y-59979014D01*
X85633442Y-59931395D01*
X85538204Y-59883776D01*
X85347728Y-59883776D01*
X85252490Y-59931395D01*
X85204871Y-59979014D01*
X85157252Y-60074252D01*
X74319760Y-61813344D02*
X75129284Y-61813344D01*
X75224522Y-61765725D01*
X75272141Y-61718106D01*
X75319760Y-61622868D01*
X75319760Y-61432392D01*
X75272141Y-61337154D01*
X75224522Y-61289535D01*
X75129284Y-61241916D01*
X74319760Y-61241916D01*
X74319760Y-60860963D02*
X74319760Y-60194297D01*
X75319760Y-60622868D01*
X84512780Y-48348804D02*
X85322304Y-48348804D01*
X85417542Y-48301185D01*
X85465161Y-48253566D01*
X85512780Y-48158328D01*
X85512780Y-47967852D01*
X85465161Y-47872614D01*
X85417542Y-47824995D01*
X85322304Y-47777376D01*
X84512780Y-47777376D01*
X84512780Y-46872614D02*
X84512780Y-47063090D01*
X84560400Y-47158328D01*
X84608019Y-47205947D01*
X84750876Y-47301185D01*
X84941352Y-47348804D01*
X85322304Y-47348804D01*
X85417542Y-47301185D01*
X85465161Y-47253566D01*
X85512780Y-47158328D01*
X85512780Y-46967852D01*
X85465161Y-46872614D01*
X85417542Y-46824995D01*
X85322304Y-46777376D01*
X85084209Y-46777376D01*
X84988971Y-46824995D01*
X84941352Y-46872614D01*
X84893733Y-46967852D01*
X84893733Y-47158328D01*
X84941352Y-47253566D01*
X84988971Y-47301185D01*
X85084209Y-47348804D01*
X75468171Y-107094133D02*
X75468171Y-107427466D01*
X75991980Y-107427466D02*
X74991980Y-107427466D01*
X74991980Y-106951276D01*
X75468171Y-106236990D02*
X75515790Y-106094133D01*
X75563409Y-106046514D01*
X75658647Y-105998895D01*
X75801504Y-105998895D01*
X75896742Y-106046514D01*
X75944361Y-106094133D01*
X75991980Y-106189371D01*
X75991980Y-106570323D01*
X74991980Y-106570323D01*
X74991980Y-106236990D01*
X75039600Y-106141752D01*
X75087219Y-106094133D01*
X75182457Y-106046514D01*
X75277695Y-106046514D01*
X75372933Y-106094133D01*
X75420552Y-106141752D01*
X75468171Y-106236990D01*
X75468171Y-106570323D01*
X74991980Y-105665561D02*
X74991980Y-104998895D01*
X75991980Y-105427466D01*
X46963104Y-60482171D02*
X46629771Y-60482171D01*
X46629771Y-61005980D02*
X46629771Y-60005980D01*
X47105961Y-60005980D01*
X47963104Y-61005980D02*
X47486914Y-61005980D01*
X47486914Y-60005980D01*
X48820247Y-61005980D02*
X48248819Y-61005980D01*
X48534533Y-61005980D02*
X48534533Y-60005980D01*
X48439295Y-60148838D01*
X48344057Y-60244076D01*
X48248819Y-60291695D01*
X47362123Y-59373123D02*
X46359863Y-59373123D01*
X46359863Y-59134490D01*
X46407590Y-58991310D01*
X46503043Y-58895856D01*
X46598496Y-58848130D01*
X46789403Y-58800403D01*
X46932583Y-58800403D01*
X47123490Y-58848130D01*
X47218943Y-58895856D01*
X47314396Y-58991310D01*
X47362123Y-59134490D01*
X47362123Y-59373123D01*
X46359863Y-58466316D02*
X46359863Y-57845870D01*
X46741676Y-58179956D01*
X46741676Y-58036776D01*
X46789403Y-57941323D01*
X46837130Y-57893596D01*
X46932583Y-57845870D01*
X47171216Y-57845870D01*
X47266670Y-57893596D01*
X47314396Y-57941323D01*
X47362123Y-58036776D01*
X47362123Y-58323136D01*
X47314396Y-58418590D01*
X47266670Y-58466316D01*
X107666666Y-108428571D02*
X107333333Y-108428571D01*
X107333333Y-108952380D02*
X107333333Y-107952380D01*
X107809523Y-107952380D01*
X108523809Y-108428571D02*
X108666666Y-108476190D01*
X108714285Y-108523809D01*
X108761904Y-108619047D01*
X108761904Y-108761904D01*
X108714285Y-108857142D01*
X108666666Y-108904761D01*
X108571428Y-108952380D01*
X108190476Y-108952380D01*
X108190476Y-107952380D01*
X108523809Y-107952380D01*
X108619047Y-108000000D01*
X108666666Y-108047619D01*
X108714285Y-108142857D01*
X108714285Y-108238095D01*
X108666666Y-108333333D01*
X108619047Y-108380952D01*
X108523809Y-108428571D01*
X108190476Y-108428571D01*
X109619047Y-107952380D02*
X109428571Y-107952380D01*
X109333333Y-108000000D01*
X109285714Y-108047619D01*
X109190476Y-108190476D01*
X109142857Y-108380952D01*
X109142857Y-108761904D01*
X109190476Y-108857142D01*
X109238095Y-108904761D01*
X109333333Y-108952380D01*
X109523809Y-108952380D01*
X109619047Y-108904761D01*
X109666666Y-108857142D01*
X109714285Y-108761904D01*
X109714285Y-108523809D01*
X109666666Y-108428571D01*
X109619047Y-108380952D01*
X109523809Y-108333333D01*
X109333333Y-108333333D01*
X109238095Y-108380952D01*
X109190476Y-108428571D01*
X109142857Y-108523809D01*
X108753666Y-49872571D02*
X108420333Y-49872571D01*
X108420333Y-50396380D02*
X108420333Y-49396380D01*
X108896523Y-49396380D01*
X109610809Y-49872571D02*
X109753666Y-49920190D01*
X109801285Y-49967809D01*
X109848904Y-50063047D01*
X109848904Y-50205904D01*
X109801285Y-50301142D01*
X109753666Y-50348761D01*
X109658428Y-50396380D01*
X109277476Y-50396380D01*
X109277476Y-49396380D01*
X109610809Y-49396380D01*
X109706047Y-49444000D01*
X109753666Y-49491619D01*
X109801285Y-49586857D01*
X109801285Y-49682095D01*
X109753666Y-49777333D01*
X109706047Y-49824952D01*
X109610809Y-49872571D01*
X109277476Y-49872571D01*
X110753666Y-49396380D02*
X110277476Y-49396380D01*
X110229857Y-49872571D01*
X110277476Y-49824952D01*
X110372714Y-49777333D01*
X110610809Y-49777333D01*
X110706047Y-49824952D01*
X110753666Y-49872571D01*
X110801285Y-49967809D01*
X110801285Y-50205904D01*
X110753666Y-50301142D01*
X110706047Y-50348761D01*
X110610809Y-50396380D01*
X110372714Y-50396380D01*
X110277476Y-50348761D01*
X110229857Y-50301142D01*
X44277066Y-107928571D02*
X43943733Y-107928571D01*
X43943733Y-108452380D02*
X43943733Y-107452380D01*
X44419923Y-107452380D01*
X45134209Y-107928571D02*
X45277066Y-107976190D01*
X45324685Y-108023809D01*
X45372304Y-108119047D01*
X45372304Y-108261904D01*
X45324685Y-108357142D01*
X45277066Y-108404761D01*
X45181828Y-108452380D01*
X44800876Y-108452380D01*
X44800876Y-107452380D01*
X45134209Y-107452380D01*
X45229447Y-107500000D01*
X45277066Y-107547619D01*
X45324685Y-107642857D01*
X45324685Y-107738095D01*
X45277066Y-107833333D01*
X45229447Y-107880952D01*
X45134209Y-107928571D01*
X44800876Y-107928571D01*
X46229447Y-107785714D02*
X46229447Y-108452380D01*
X45991352Y-107404761D02*
X45753257Y-108119047D01*
X46372304Y-108119047D01*
X36766171Y-51074533D02*
X36766171Y-51407866D01*
X37289980Y-51407866D02*
X36289980Y-51407866D01*
X36289980Y-50931676D01*
X36766171Y-50217390D02*
X36813790Y-50074533D01*
X36861409Y-50026914D01*
X36956647Y-49979295D01*
X37099504Y-49979295D01*
X37194742Y-50026914D01*
X37242361Y-50074533D01*
X37289980Y-50169771D01*
X37289980Y-50550723D01*
X36289980Y-50550723D01*
X36289980Y-50217390D01*
X36337600Y-50122152D01*
X36385219Y-50074533D01*
X36480457Y-50026914D01*
X36575695Y-50026914D01*
X36670933Y-50074533D01*
X36718552Y-50122152D01*
X36766171Y-50217390D01*
X36766171Y-50550723D01*
X36289980Y-49645961D02*
X36289980Y-49026914D01*
X36670933Y-49360247D01*
X36670933Y-49217390D01*
X36718552Y-49122152D01*
X36766171Y-49074533D01*
X36861409Y-49026914D01*
X37099504Y-49026914D01*
X37194742Y-49074533D01*
X37242361Y-49122152D01*
X37289980Y-49217390D01*
X37289980Y-49503104D01*
X37242361Y-49598342D01*
X37194742Y-49645961D01*
X103116071Y-54743533D02*
X103116071Y-55076866D01*
X103639880Y-55076866D02*
X102639880Y-55076866D01*
X102639880Y-54600676D01*
X103116071Y-53886390D02*
X103163690Y-53743533D01*
X103211309Y-53695914D01*
X103306547Y-53648295D01*
X103449404Y-53648295D01*
X103544642Y-53695914D01*
X103592261Y-53743533D01*
X103639880Y-53838771D01*
X103639880Y-54219723D01*
X102639880Y-54219723D01*
X102639880Y-53886390D01*
X102687500Y-53791152D01*
X102735119Y-53743533D01*
X102830357Y-53695914D01*
X102925595Y-53695914D01*
X103020833Y-53743533D01*
X103068452Y-53791152D01*
X103116071Y-53886390D01*
X103116071Y-54219723D01*
X102735119Y-53267342D02*
X102687500Y-53219723D01*
X102639880Y-53124485D01*
X102639880Y-52886390D01*
X102687500Y-52791152D01*
X102735119Y-52743533D01*
X102830357Y-52695914D01*
X102925595Y-52695914D01*
X103068452Y-52743533D01*
X103639880Y-53314961D01*
X103639880Y-52695914D01*
X57992971Y-59456533D02*
X57992971Y-59789866D01*
X58516780Y-59789866D02*
X57516780Y-59789866D01*
X57516780Y-59313676D01*
X57992971Y-58599390D02*
X58040590Y-58456533D01*
X58088209Y-58408914D01*
X58183447Y-58361295D01*
X58326304Y-58361295D01*
X58421542Y-58408914D01*
X58469161Y-58456533D01*
X58516780Y-58551771D01*
X58516780Y-58932723D01*
X57516780Y-58932723D01*
X57516780Y-58599390D01*
X57564400Y-58504152D01*
X57612019Y-58456533D01*
X57707257Y-58408914D01*
X57802495Y-58408914D01*
X57897733Y-58456533D01*
X57945352Y-58504152D01*
X57992971Y-58599390D01*
X57992971Y-58932723D01*
X58516780Y-57408914D02*
X58516780Y-57980342D01*
X58516780Y-57694628D02*
X57516780Y-57694628D01*
X57659638Y-57789866D01*
X57754876Y-57885104D01*
X57802495Y-57980342D01*
X108623195Y-106217980D02*
X108623195Y-105217980D01*
X108623195Y-105694171D02*
X109194623Y-105694171D01*
X109194623Y-106217980D02*
X109194623Y-105217980D01*
X110099385Y-105551314D02*
X110099385Y-106217980D01*
X109861290Y-105170361D02*
X109623195Y-105884647D01*
X110242242Y-105884647D01*
X112538095Y-50052380D02*
X112538095Y-49052380D01*
X112538095Y-49528571D02*
X113109523Y-49528571D01*
X113109523Y-50052380D02*
X113109523Y-49052380D01*
X113490476Y-49052380D02*
X114109523Y-49052380D01*
X113776190Y-49433333D01*
X113919047Y-49433333D01*
X114014285Y-49480952D01*
X114061904Y-49528571D01*
X114109523Y-49623809D01*
X114109523Y-49861904D01*
X114061904Y-49957142D01*
X114014285Y-50004761D01*
X113919047Y-50052380D01*
X113633333Y-50052380D01*
X113538095Y-50004761D01*
X113490476Y-49957142D01*
X36068095Y-103632380D02*
X36068095Y-102632380D01*
X36068095Y-103108571D02*
X36639523Y-103108571D01*
X36639523Y-103632380D02*
X36639523Y-102632380D01*
X37068095Y-102727619D02*
X37115714Y-102680000D01*
X37210952Y-102632380D01*
X37449047Y-102632380D01*
X37544285Y-102680000D01*
X37591904Y-102727619D01*
X37639523Y-102822857D01*
X37639523Y-102918095D01*
X37591904Y-103060952D01*
X37020476Y-103632380D01*
X37639523Y-103632380D01*
X40782380Y-46481904D02*
X39782380Y-46481904D01*
X40258571Y-46481904D02*
X40258571Y-45910476D01*
X40782380Y-45910476D02*
X39782380Y-45910476D01*
X40782380Y-44910476D02*
X40782380Y-45481904D01*
X40782380Y-45196190D02*
X39782380Y-45196190D01*
X39925238Y-45291428D01*
X40020476Y-45386666D01*
X40068095Y-45481904D01*
X103882442Y-57737066D02*
X103930061Y-57784685D01*
X103977680Y-57927542D01*
X103977680Y-58022780D01*
X103930061Y-58165638D01*
X103834823Y-58260876D01*
X103739585Y-58308495D01*
X103549109Y-58356114D01*
X103406252Y-58356114D01*
X103215776Y-58308495D01*
X103120538Y-58260876D01*
X103025300Y-58165638D01*
X102977680Y-58022780D01*
X102977680Y-57927542D01*
X103025300Y-57784685D01*
X103072919Y-57737066D01*
X103977680Y-56784685D02*
X103977680Y-57356114D01*
X103977680Y-57070400D02*
X102977680Y-57070400D01*
X103120538Y-57165638D01*
X103215776Y-57260876D01*
X103263395Y-57356114D01*
X102358442Y-57737066D02*
X102406061Y-57784685D01*
X102453680Y-57927542D01*
X102453680Y-58022780D01*
X102406061Y-58165638D01*
X102310823Y-58260876D01*
X102215585Y-58308495D01*
X102025109Y-58356114D01*
X101882252Y-58356114D01*
X101691776Y-58308495D01*
X101596538Y-58260876D01*
X101501300Y-58165638D01*
X101453680Y-58022780D01*
X101453680Y-57927542D01*
X101501300Y-57784685D01*
X101548919Y-57737066D01*
X101548919Y-57356114D02*
X101501300Y-57308495D01*
X101453680Y-57213257D01*
X101453680Y-56975161D01*
X101501300Y-56879923D01*
X101548919Y-56832304D01*
X101644157Y-56784685D01*
X101739395Y-56784685D01*
X101882252Y-56832304D01*
X102453680Y-57403733D01*
X102453680Y-56784685D01*
X100834442Y-57737066D02*
X100882061Y-57784685D01*
X100929680Y-57927542D01*
X100929680Y-58022780D01*
X100882061Y-58165638D01*
X100786823Y-58260876D01*
X100691585Y-58308495D01*
X100501109Y-58356114D01*
X100358252Y-58356114D01*
X100167776Y-58308495D01*
X100072538Y-58260876D01*
X99977300Y-58165638D01*
X99929680Y-58022780D01*
X99929680Y-57927542D01*
X99977300Y-57784685D01*
X100024919Y-57737066D01*
X99929680Y-57403733D02*
X99929680Y-56784685D01*
X100310633Y-57118019D01*
X100310633Y-56975161D01*
X100358252Y-56879923D01*
X100405871Y-56832304D01*
X100501109Y-56784685D01*
X100739204Y-56784685D01*
X100834442Y-56832304D01*
X100882061Y-56879923D01*
X100929680Y-56975161D01*
X100929680Y-57260876D01*
X100882061Y-57356114D01*
X100834442Y-57403733D01*
X83453242Y-82818266D02*
X83500861Y-82865885D01*
X83548480Y-83008742D01*
X83548480Y-83103980D01*
X83500861Y-83246838D01*
X83405623Y-83342076D01*
X83310385Y-83389695D01*
X83119909Y-83437314D01*
X82977052Y-83437314D01*
X82786576Y-83389695D01*
X82691338Y-83342076D01*
X82596100Y-83246838D01*
X82548480Y-83103980D01*
X82548480Y-83008742D01*
X82596100Y-82865885D01*
X82643719Y-82818266D01*
X82881814Y-81961123D02*
X83548480Y-81961123D01*
X82500861Y-82199219D02*
X83215147Y-82437314D01*
X83215147Y-81818266D01*
X81872041Y-82896510D02*
X81919660Y-82944129D01*
X81967279Y-83086986D01*
X81967279Y-83182224D01*
X81919660Y-83325082D01*
X81824422Y-83420320D01*
X81729184Y-83467939D01*
X81538708Y-83515558D01*
X81395851Y-83515558D01*
X81205375Y-83467939D01*
X81110137Y-83420320D01*
X81014899Y-83325082D01*
X80967279Y-83182224D01*
X80967279Y-83086986D01*
X81014899Y-82944129D01*
X81062518Y-82896510D01*
X80967279Y-81991748D02*
X80967279Y-82467939D01*
X81443470Y-82515558D01*
X81395851Y-82467939D01*
X81348232Y-82372701D01*
X81348232Y-82134605D01*
X81395851Y-82039367D01*
X81443470Y-81991748D01*
X81538708Y-81944129D01*
X81776803Y-81944129D01*
X81872041Y-81991748D01*
X81919660Y-82039367D01*
X81967279Y-82134605D01*
X81967279Y-82372701D01*
X81919660Y-82467939D01*
X81872041Y-82515558D01*
X75960477Y-80021443D02*
X75912858Y-80069062D01*
X75770001Y-80116681D01*
X75674763Y-80116681D01*
X75531905Y-80069062D01*
X75436667Y-79973824D01*
X75389048Y-79878586D01*
X75341429Y-79688110D01*
X75341429Y-79545253D01*
X75389048Y-79354777D01*
X75436667Y-79259539D01*
X75531905Y-79164301D01*
X75674763Y-79116681D01*
X75770001Y-79116681D01*
X75912858Y-79164301D01*
X75960477Y-79211920D01*
X76293810Y-79116681D02*
X76960477Y-79116681D01*
X76531905Y-80116681D01*
X75958433Y-81562942D02*
X75910814Y-81610561D01*
X75767957Y-81658180D01*
X75672719Y-81658180D01*
X75529861Y-81610561D01*
X75434623Y-81515323D01*
X75387004Y-81420085D01*
X75339385Y-81229609D01*
X75339385Y-81086752D01*
X75387004Y-80896276D01*
X75434623Y-80801038D01*
X75529861Y-80705800D01*
X75672719Y-80658180D01*
X75767957Y-80658180D01*
X75910814Y-80705800D01*
X75958433Y-80753419D01*
X76529861Y-81086752D02*
X76434623Y-81039133D01*
X76387004Y-80991514D01*
X76339385Y-80896276D01*
X76339385Y-80848657D01*
X76387004Y-80753419D01*
X76434623Y-80705800D01*
X76529861Y-80658180D01*
X76720338Y-80658180D01*
X76815576Y-80705800D01*
X76863195Y-80753419D01*
X76910814Y-80848657D01*
X76910814Y-80896276D01*
X76863195Y-80991514D01*
X76815576Y-81039133D01*
X76720338Y-81086752D01*
X76529861Y-81086752D01*
X76434623Y-81134371D01*
X76387004Y-81181990D01*
X76339385Y-81277228D01*
X76339385Y-81467704D01*
X76387004Y-81562942D01*
X76434623Y-81610561D01*
X76529861Y-81658180D01*
X76720338Y-81658180D01*
X76815576Y-81610561D01*
X76863195Y-81562942D01*
X76910814Y-81467704D01*
X76910814Y-81277228D01*
X76863195Y-81181990D01*
X76815576Y-81134371D01*
X76720338Y-81086752D01*
X75958433Y-83086942D02*
X75910814Y-83134561D01*
X75767957Y-83182180D01*
X75672719Y-83182180D01*
X75529861Y-83134561D01*
X75434623Y-83039323D01*
X75387004Y-82944085D01*
X75339385Y-82753609D01*
X75339385Y-82610752D01*
X75387004Y-82420276D01*
X75434623Y-82325038D01*
X75529861Y-82229800D01*
X75672719Y-82182180D01*
X75767957Y-82182180D01*
X75910814Y-82229800D01*
X75958433Y-82277419D01*
X76434623Y-83182180D02*
X76625100Y-83182180D01*
X76720338Y-83134561D01*
X76767957Y-83086942D01*
X76863195Y-82944085D01*
X76910814Y-82753609D01*
X76910814Y-82372657D01*
X76863195Y-82277419D01*
X76815576Y-82229800D01*
X76720338Y-82182180D01*
X76529861Y-82182180D01*
X76434623Y-82229800D01*
X76387004Y-82277419D01*
X76339385Y-82372657D01*
X76339385Y-82610752D01*
X76387004Y-82705990D01*
X76434623Y-82753609D01*
X76529861Y-82801228D01*
X76720338Y-82801228D01*
X76815576Y-82753609D01*
X76863195Y-82705990D01*
X76910814Y-82610752D01*
X84291442Y-99194857D02*
X84339061Y-99242476D01*
X84386680Y-99385333D01*
X84386680Y-99480571D01*
X84339061Y-99623428D01*
X84243823Y-99718666D01*
X84148585Y-99766285D01*
X83958109Y-99813904D01*
X83815252Y-99813904D01*
X83624776Y-99766285D01*
X83529538Y-99718666D01*
X83434300Y-99623428D01*
X83386680Y-99480571D01*
X83386680Y-99385333D01*
X83434300Y-99242476D01*
X83481919Y-99194857D01*
X84386680Y-98242476D02*
X84386680Y-98813904D01*
X84386680Y-98528190D02*
X83386680Y-98528190D01*
X83529538Y-98623428D01*
X83624776Y-98718666D01*
X83672395Y-98813904D01*
X83386680Y-97623428D02*
X83386680Y-97528190D01*
X83434300Y-97432952D01*
X83481919Y-97385333D01*
X83577157Y-97337714D01*
X83767633Y-97290095D01*
X84005728Y-97290095D01*
X84196204Y-97337714D01*
X84291442Y-97385333D01*
X84339061Y-97432952D01*
X84386680Y-97528190D01*
X84386680Y-97623428D01*
X84339061Y-97718666D01*
X84291442Y-97766285D01*
X84196204Y-97813904D01*
X84005728Y-97861523D01*
X83767633Y-97861523D01*
X83577157Y-97813904D01*
X83481919Y-97766285D01*
X83434300Y-97718666D01*
X83386680Y-97623428D01*
X87466442Y-99194857D02*
X87514061Y-99242476D01*
X87561680Y-99385333D01*
X87561680Y-99480571D01*
X87514061Y-99623428D01*
X87418823Y-99718666D01*
X87323585Y-99766285D01*
X87133109Y-99813904D01*
X86990252Y-99813904D01*
X86799776Y-99766285D01*
X86704538Y-99718666D01*
X86609300Y-99623428D01*
X86561680Y-99480571D01*
X86561680Y-99385333D01*
X86609300Y-99242476D01*
X86656919Y-99194857D01*
X87561680Y-98242476D02*
X87561680Y-98813904D01*
X87561680Y-98528190D02*
X86561680Y-98528190D01*
X86704538Y-98623428D01*
X86799776Y-98718666D01*
X86847395Y-98813904D01*
X87561680Y-97290095D02*
X87561680Y-97861523D01*
X87561680Y-97575809D02*
X86561680Y-97575809D01*
X86704538Y-97671047D01*
X86799776Y-97766285D01*
X86847395Y-97861523D01*
X90641442Y-99194857D02*
X90689061Y-99242476D01*
X90736680Y-99385333D01*
X90736680Y-99480571D01*
X90689061Y-99623428D01*
X90593823Y-99718666D01*
X90498585Y-99766285D01*
X90308109Y-99813904D01*
X90165252Y-99813904D01*
X89974776Y-99766285D01*
X89879538Y-99718666D01*
X89784300Y-99623428D01*
X89736680Y-99480571D01*
X89736680Y-99385333D01*
X89784300Y-99242476D01*
X89831919Y-99194857D01*
X90736680Y-98242476D02*
X90736680Y-98813904D01*
X90736680Y-98528190D02*
X89736680Y-98528190D01*
X89879538Y-98623428D01*
X89974776Y-98718666D01*
X90022395Y-98813904D01*
X89831919Y-97861523D02*
X89784300Y-97813904D01*
X89736680Y-97718666D01*
X89736680Y-97480571D01*
X89784300Y-97385333D01*
X89831919Y-97337714D01*
X89927157Y-97290095D01*
X90022395Y-97290095D01*
X90165252Y-97337714D01*
X90736680Y-97909142D01*
X90736680Y-97290095D01*
X93879942Y-99194857D02*
X93927561Y-99242476D01*
X93975180Y-99385333D01*
X93975180Y-99480571D01*
X93927561Y-99623428D01*
X93832323Y-99718666D01*
X93737085Y-99766285D01*
X93546609Y-99813904D01*
X93403752Y-99813904D01*
X93213276Y-99766285D01*
X93118038Y-99718666D01*
X93022800Y-99623428D01*
X92975180Y-99480571D01*
X92975180Y-99385333D01*
X93022800Y-99242476D01*
X93070419Y-99194857D01*
X93975180Y-98242476D02*
X93975180Y-98813904D01*
X93975180Y-98528190D02*
X92975180Y-98528190D01*
X93118038Y-98623428D01*
X93213276Y-98718666D01*
X93260895Y-98813904D01*
X92975180Y-97909142D02*
X92975180Y-97290095D01*
X93356133Y-97623428D01*
X93356133Y-97480571D01*
X93403752Y-97385333D01*
X93451371Y-97337714D01*
X93546609Y-97290095D01*
X93784704Y-97290095D01*
X93879942Y-97337714D01*
X93927561Y-97385333D01*
X93975180Y-97480571D01*
X93975180Y-97766285D01*
X93927561Y-97861523D01*
X93879942Y-97909142D01*
X97054942Y-99258357D02*
X97102561Y-99305976D01*
X97150180Y-99448833D01*
X97150180Y-99544071D01*
X97102561Y-99686928D01*
X97007323Y-99782166D01*
X96912085Y-99829785D01*
X96721609Y-99877404D01*
X96578752Y-99877404D01*
X96388276Y-99829785D01*
X96293038Y-99782166D01*
X96197800Y-99686928D01*
X96150180Y-99544071D01*
X96150180Y-99448833D01*
X96197800Y-99305976D01*
X96245419Y-99258357D01*
X97150180Y-98305976D02*
X97150180Y-98877404D01*
X97150180Y-98591690D02*
X96150180Y-98591690D01*
X96293038Y-98686928D01*
X96388276Y-98782166D01*
X96435895Y-98877404D01*
X96150180Y-97401214D02*
X96150180Y-97877404D01*
X96626371Y-97925023D01*
X96578752Y-97877404D01*
X96531133Y-97782166D01*
X96531133Y-97544071D01*
X96578752Y-97448833D01*
X96626371Y-97401214D01*
X96721609Y-97353595D01*
X96959704Y-97353595D01*
X97054942Y-97401214D01*
X97102561Y-97448833D01*
X97150180Y-97544071D01*
X97150180Y-97782166D01*
X97102561Y-97877404D01*
X97054942Y-97925023D01*
X100229942Y-99258357D02*
X100277561Y-99305976D01*
X100325180Y-99448833D01*
X100325180Y-99544071D01*
X100277561Y-99686928D01*
X100182323Y-99782166D01*
X100087085Y-99829785D01*
X99896609Y-99877404D01*
X99753752Y-99877404D01*
X99563276Y-99829785D01*
X99468038Y-99782166D01*
X99372800Y-99686928D01*
X99325180Y-99544071D01*
X99325180Y-99448833D01*
X99372800Y-99305976D01*
X99420419Y-99258357D01*
X100325180Y-98305976D02*
X100325180Y-98877404D01*
X100325180Y-98591690D02*
X99325180Y-98591690D01*
X99468038Y-98686928D01*
X99563276Y-98782166D01*
X99610895Y-98877404D01*
X99325180Y-97448833D02*
X99325180Y-97639309D01*
X99372800Y-97734547D01*
X99420419Y-97782166D01*
X99563276Y-97877404D01*
X99753752Y-97925023D01*
X100134704Y-97925023D01*
X100229942Y-97877404D01*
X100277561Y-97829785D01*
X100325180Y-97734547D01*
X100325180Y-97544071D01*
X100277561Y-97448833D01*
X100229942Y-97401214D01*
X100134704Y-97353595D01*
X99896609Y-97353595D01*
X99801371Y-97401214D01*
X99753752Y-97448833D01*
X99706133Y-97544071D01*
X99706133Y-97734547D01*
X99753752Y-97829785D01*
X99801371Y-97877404D01*
X99896609Y-97925023D01*
X103404942Y-99258357D02*
X103452561Y-99305976D01*
X103500180Y-99448833D01*
X103500180Y-99544071D01*
X103452561Y-99686928D01*
X103357323Y-99782166D01*
X103262085Y-99829785D01*
X103071609Y-99877404D01*
X102928752Y-99877404D01*
X102738276Y-99829785D01*
X102643038Y-99782166D01*
X102547800Y-99686928D01*
X102500180Y-99544071D01*
X102500180Y-99448833D01*
X102547800Y-99305976D01*
X102595419Y-99258357D01*
X103500180Y-98305976D02*
X103500180Y-98877404D01*
X103500180Y-98591690D02*
X102500180Y-98591690D01*
X102643038Y-98686928D01*
X102738276Y-98782166D01*
X102785895Y-98877404D01*
X102500180Y-97972642D02*
X102500180Y-97305976D01*
X103500180Y-97734547D01*
X106478342Y-99194857D02*
X106525961Y-99242476D01*
X106573580Y-99385333D01*
X106573580Y-99480571D01*
X106525961Y-99623428D01*
X106430723Y-99718666D01*
X106335485Y-99766285D01*
X106145009Y-99813904D01*
X106002152Y-99813904D01*
X105811676Y-99766285D01*
X105716438Y-99718666D01*
X105621200Y-99623428D01*
X105573580Y-99480571D01*
X105573580Y-99385333D01*
X105621200Y-99242476D01*
X105668819Y-99194857D01*
X106573580Y-98242476D02*
X106573580Y-98813904D01*
X106573580Y-98528190D02*
X105573580Y-98528190D01*
X105716438Y-98623428D01*
X105811676Y-98718666D01*
X105859295Y-98813904D01*
X106002152Y-97671047D02*
X105954533Y-97766285D01*
X105906914Y-97813904D01*
X105811676Y-97861523D01*
X105764057Y-97861523D01*
X105668819Y-97813904D01*
X105621200Y-97766285D01*
X105573580Y-97671047D01*
X105573580Y-97480571D01*
X105621200Y-97385333D01*
X105668819Y-97337714D01*
X105764057Y-97290095D01*
X105811676Y-97290095D01*
X105906914Y-97337714D01*
X105954533Y-97385333D01*
X106002152Y-97480571D01*
X106002152Y-97671047D01*
X106049771Y-97766285D01*
X106097390Y-97813904D01*
X106192628Y-97861523D01*
X106383104Y-97861523D01*
X106478342Y-97813904D01*
X106525961Y-97766285D01*
X106573580Y-97671047D01*
X106573580Y-97480571D01*
X106525961Y-97385333D01*
X106478342Y-97337714D01*
X106383104Y-97290095D01*
X106192628Y-97290095D01*
X106097390Y-97337714D01*
X106049771Y-97385333D01*
X106002152Y-97480571D01*
X86076522Y-93958682D02*
X86028903Y-94006301D01*
X85886046Y-94053920D01*
X85790808Y-94053920D01*
X85647951Y-94006301D01*
X85552713Y-93911063D01*
X85505094Y-93815825D01*
X85457475Y-93625349D01*
X85457475Y-93482492D01*
X85505094Y-93292016D01*
X85552713Y-93196778D01*
X85647951Y-93101540D01*
X85790808Y-93053920D01*
X85886046Y-93053920D01*
X86028903Y-93101540D01*
X86076522Y-93149159D01*
X86457475Y-93149159D02*
X86505094Y-93101540D01*
X86600332Y-93053920D01*
X86838427Y-93053920D01*
X86933665Y-93101540D01*
X86981284Y-93149159D01*
X87028903Y-93244397D01*
X87028903Y-93339635D01*
X86981284Y-93482492D01*
X86409856Y-94053920D01*
X87028903Y-94053920D01*
X87647951Y-93053920D02*
X87743189Y-93053920D01*
X87838427Y-93101540D01*
X87886046Y-93149159D01*
X87933665Y-93244397D01*
X87981284Y-93434873D01*
X87981284Y-93672968D01*
X87933665Y-93863444D01*
X87886046Y-93958682D01*
X87838427Y-94006301D01*
X87743189Y-94053920D01*
X87647951Y-94053920D01*
X87552713Y-94006301D01*
X87505094Y-93958682D01*
X87457475Y-93863444D01*
X87409856Y-93672968D01*
X87409856Y-93434873D01*
X87457475Y-93244397D01*
X87505094Y-93149159D01*
X87552713Y-93101540D01*
X87647951Y-93053920D01*
X86339282Y-90616042D02*
X86291663Y-90663661D01*
X86148806Y-90711280D01*
X86053568Y-90711280D01*
X85910711Y-90663661D01*
X85815473Y-90568423D01*
X85767854Y-90473185D01*
X85720235Y-90282709D01*
X85720235Y-90139852D01*
X85767854Y-89949376D01*
X85815473Y-89854138D01*
X85910711Y-89758900D01*
X86053568Y-89711280D01*
X86148806Y-89711280D01*
X86291663Y-89758900D01*
X86339282Y-89806519D01*
X86720235Y-89806519D02*
X86767854Y-89758900D01*
X86863092Y-89711280D01*
X87101187Y-89711280D01*
X87196425Y-89758900D01*
X87244044Y-89806519D01*
X87291663Y-89901757D01*
X87291663Y-89996995D01*
X87244044Y-90139852D01*
X86672616Y-90711280D01*
X87291663Y-90711280D01*
X87672616Y-89806519D02*
X87720235Y-89758900D01*
X87815473Y-89711280D01*
X88053568Y-89711280D01*
X88148806Y-89758900D01*
X88196425Y-89806519D01*
X88244044Y-89901757D01*
X88244044Y-89996995D01*
X88196425Y-90139852D01*
X87624997Y-90711280D01*
X88244044Y-90711280D01*
X86320202Y-92220642D02*
X86272583Y-92268261D01*
X86129726Y-92315880D01*
X86034488Y-92315880D01*
X85891631Y-92268261D01*
X85796393Y-92173023D01*
X85748774Y-92077785D01*
X85701155Y-91887309D01*
X85701155Y-91744452D01*
X85748774Y-91553976D01*
X85796393Y-91458738D01*
X85891631Y-91363500D01*
X86034488Y-91315880D01*
X86129726Y-91315880D01*
X86272583Y-91363500D01*
X86320202Y-91411119D01*
X86701155Y-91411119D02*
X86748774Y-91363500D01*
X86844012Y-91315880D01*
X87082107Y-91315880D01*
X87177345Y-91363500D01*
X87224964Y-91411119D01*
X87272583Y-91506357D01*
X87272583Y-91601595D01*
X87224964Y-91744452D01*
X86653536Y-92315880D01*
X87272583Y-92315880D01*
X87605917Y-91315880D02*
X88224964Y-91315880D01*
X87891631Y-91696833D01*
X88034488Y-91696833D01*
X88129726Y-91744452D01*
X88177345Y-91792071D01*
X88224964Y-91887309D01*
X88224964Y-92125404D01*
X88177345Y-92220642D01*
X88129726Y-92268261D01*
X88034488Y-92315880D01*
X87748774Y-92315880D01*
X87653536Y-92268261D01*
X87605917Y-92220642D01*
X96224362Y-73406237D02*
X96271981Y-73453856D01*
X96319600Y-73596713D01*
X96319600Y-73691951D01*
X96271981Y-73834808D01*
X96176743Y-73930046D01*
X96081505Y-73977665D01*
X95891029Y-74025284D01*
X95748172Y-74025284D01*
X95557696Y-73977665D01*
X95462458Y-73930046D01*
X95367220Y-73834808D01*
X95319600Y-73691951D01*
X95319600Y-73596713D01*
X95367220Y-73453856D01*
X95414839Y-73406237D01*
X95414839Y-73025284D02*
X95367220Y-72977665D01*
X95319600Y-72882427D01*
X95319600Y-72644332D01*
X95367220Y-72549094D01*
X95414839Y-72501475D01*
X95510077Y-72453856D01*
X95605315Y-72453856D01*
X95748172Y-72501475D01*
X96319600Y-73072903D01*
X96319600Y-72453856D01*
X95652934Y-71596713D02*
X96319600Y-71596713D01*
X95271981Y-71834808D02*
X95986267Y-72072903D01*
X95986267Y-71453856D01*
X72576942Y-106822357D02*
X72624561Y-106869976D01*
X72672180Y-107012833D01*
X72672180Y-107108071D01*
X72624561Y-107250928D01*
X72529323Y-107346166D01*
X72434085Y-107393785D01*
X72243609Y-107441404D01*
X72100752Y-107441404D01*
X71910276Y-107393785D01*
X71815038Y-107346166D01*
X71719800Y-107250928D01*
X71672180Y-107108071D01*
X71672180Y-107012833D01*
X71719800Y-106869976D01*
X71767419Y-106822357D01*
X71767419Y-106441404D02*
X71719800Y-106393785D01*
X71672180Y-106298547D01*
X71672180Y-106060452D01*
X71719800Y-105965214D01*
X71767419Y-105917595D01*
X71862657Y-105869976D01*
X71957895Y-105869976D01*
X72100752Y-105917595D01*
X72672180Y-106489023D01*
X72672180Y-105869976D01*
X71672180Y-105012833D02*
X71672180Y-105203309D01*
X71719800Y-105298547D01*
X71767419Y-105346166D01*
X71910276Y-105441404D01*
X72100752Y-105489023D01*
X72481704Y-105489023D01*
X72576942Y-105441404D01*
X72624561Y-105393785D01*
X72672180Y-105298547D01*
X72672180Y-105108071D01*
X72624561Y-105012833D01*
X72576942Y-104965214D01*
X72481704Y-104917595D01*
X72243609Y-104917595D01*
X72148371Y-104965214D01*
X72100752Y-105012833D01*
X72053133Y-105108071D01*
X72053133Y-105298547D01*
X72100752Y-105393785D01*
X72148371Y-105441404D01*
X72243609Y-105489023D01*
X71019942Y-106871857D02*
X71067561Y-106919476D01*
X71115180Y-107062333D01*
X71115180Y-107157571D01*
X71067561Y-107300428D01*
X70972323Y-107395666D01*
X70877085Y-107443285D01*
X70686609Y-107490904D01*
X70543752Y-107490904D01*
X70353276Y-107443285D01*
X70258038Y-107395666D01*
X70162800Y-107300428D01*
X70115180Y-107157571D01*
X70115180Y-107062333D01*
X70162800Y-106919476D01*
X70210419Y-106871857D01*
X70210419Y-106490904D02*
X70162800Y-106443285D01*
X70115180Y-106348047D01*
X70115180Y-106109952D01*
X70162800Y-106014714D01*
X70210419Y-105967095D01*
X70305657Y-105919476D01*
X70400895Y-105919476D01*
X70543752Y-105967095D01*
X71115180Y-106538523D01*
X71115180Y-105919476D01*
X70115180Y-105586142D02*
X70115180Y-104919476D01*
X71115180Y-105348047D01*
X69401942Y-106822357D02*
X69449561Y-106869976D01*
X69497180Y-107012833D01*
X69497180Y-107108071D01*
X69449561Y-107250928D01*
X69354323Y-107346166D01*
X69259085Y-107393785D01*
X69068609Y-107441404D01*
X68925752Y-107441404D01*
X68735276Y-107393785D01*
X68640038Y-107346166D01*
X68544800Y-107250928D01*
X68497180Y-107108071D01*
X68497180Y-107012833D01*
X68544800Y-106869976D01*
X68592419Y-106822357D01*
X68592419Y-106441404D02*
X68544800Y-106393785D01*
X68497180Y-106298547D01*
X68497180Y-106060452D01*
X68544800Y-105965214D01*
X68592419Y-105917595D01*
X68687657Y-105869976D01*
X68782895Y-105869976D01*
X68925752Y-105917595D01*
X69497180Y-106489023D01*
X69497180Y-105869976D01*
X68925752Y-105298547D02*
X68878133Y-105393785D01*
X68830514Y-105441404D01*
X68735276Y-105489023D01*
X68687657Y-105489023D01*
X68592419Y-105441404D01*
X68544800Y-105393785D01*
X68497180Y-105298547D01*
X68497180Y-105108071D01*
X68544800Y-105012833D01*
X68592419Y-104965214D01*
X68687657Y-104917595D01*
X68735276Y-104917595D01*
X68830514Y-104965214D01*
X68878133Y-105012833D01*
X68925752Y-105108071D01*
X68925752Y-105298547D01*
X68973371Y-105393785D01*
X69020990Y-105441404D01*
X69116228Y-105489023D01*
X69306704Y-105489023D01*
X69401942Y-105441404D01*
X69449561Y-105393785D01*
X69497180Y-105298547D01*
X69497180Y-105108071D01*
X69449561Y-105012833D01*
X69401942Y-104965214D01*
X69306704Y-104917595D01*
X69116228Y-104917595D01*
X69020990Y-104965214D01*
X68973371Y-105012833D01*
X68925752Y-105108071D01*
X78893942Y-106408357D02*
X78941561Y-106455976D01*
X78989180Y-106598833D01*
X78989180Y-106694071D01*
X78941561Y-106836928D01*
X78846323Y-106932166D01*
X78751085Y-106979785D01*
X78560609Y-107027404D01*
X78417752Y-107027404D01*
X78227276Y-106979785D01*
X78132038Y-106932166D01*
X78036800Y-106836928D01*
X77989180Y-106694071D01*
X77989180Y-106598833D01*
X78036800Y-106455976D01*
X78084419Y-106408357D01*
X78084419Y-106027404D02*
X78036800Y-105979785D01*
X77989180Y-105884547D01*
X77989180Y-105646452D01*
X78036800Y-105551214D01*
X78084419Y-105503595D01*
X78179657Y-105455976D01*
X78274895Y-105455976D01*
X78417752Y-105503595D01*
X78989180Y-106075023D01*
X78989180Y-105455976D01*
X78989180Y-104979785D02*
X78989180Y-104789309D01*
X78941561Y-104694071D01*
X78893942Y-104646452D01*
X78751085Y-104551214D01*
X78560609Y-104503595D01*
X78179657Y-104503595D01*
X78084419Y-104551214D01*
X78036800Y-104598833D01*
X77989180Y-104694071D01*
X77989180Y-104884547D01*
X78036800Y-104979785D01*
X78084419Y-105027404D01*
X78179657Y-105075023D01*
X78417752Y-105075023D01*
X78512990Y-105027404D01*
X78560609Y-104979785D01*
X78608228Y-104884547D01*
X78608228Y-104694071D01*
X78560609Y-104598833D01*
X78512990Y-104551214D01*
X78417752Y-104503595D01*
X77420742Y-106700457D02*
X77468361Y-106748076D01*
X77515980Y-106890933D01*
X77515980Y-106986171D01*
X77468361Y-107129028D01*
X77373123Y-107224266D01*
X77277885Y-107271885D01*
X77087409Y-107319504D01*
X76944552Y-107319504D01*
X76754076Y-107271885D01*
X76658838Y-107224266D01*
X76563600Y-107129028D01*
X76515980Y-106986171D01*
X76515980Y-106890933D01*
X76563600Y-106748076D01*
X76611219Y-106700457D01*
X76515980Y-106367123D02*
X76515980Y-105748076D01*
X76896933Y-106081409D01*
X76896933Y-105938552D01*
X76944552Y-105843314D01*
X76992171Y-105795695D01*
X77087409Y-105748076D01*
X77325504Y-105748076D01*
X77420742Y-105795695D01*
X77468361Y-105843314D01*
X77515980Y-105938552D01*
X77515980Y-106224266D01*
X77468361Y-106319504D01*
X77420742Y-106367123D01*
X76515980Y-105129028D02*
X76515980Y-105033790D01*
X76563600Y-104938552D01*
X76611219Y-104890933D01*
X76706457Y-104843314D01*
X76896933Y-104795695D01*
X77135028Y-104795695D01*
X77325504Y-104843314D01*
X77420742Y-104890933D01*
X77468361Y-104938552D01*
X77515980Y-105033790D01*
X77515980Y-105129028D01*
X77468361Y-105224266D01*
X77420742Y-105271885D01*
X77325504Y-105319504D01*
X77135028Y-105367123D01*
X76896933Y-105367123D01*
X76706457Y-105319504D01*
X76611219Y-105271885D01*
X76563600Y-105224266D01*
X76515980Y-105129028D01*
X65357142Y-103073157D02*
X65404761Y-103120776D01*
X65452380Y-103263633D01*
X65452380Y-103358871D01*
X65404761Y-103501728D01*
X65309523Y-103596966D01*
X65214285Y-103644585D01*
X65023809Y-103692204D01*
X64880952Y-103692204D01*
X64690476Y-103644585D01*
X64595238Y-103596966D01*
X64500000Y-103501728D01*
X64452380Y-103358871D01*
X64452380Y-103263633D01*
X64500000Y-103120776D01*
X64547619Y-103073157D01*
X64452380Y-102739823D02*
X64452380Y-102120776D01*
X64833333Y-102454109D01*
X64833333Y-102311252D01*
X64880952Y-102216014D01*
X64928571Y-102168395D01*
X65023809Y-102120776D01*
X65261904Y-102120776D01*
X65357142Y-102168395D01*
X65404761Y-102216014D01*
X65452380Y-102311252D01*
X65452380Y-102596966D01*
X65404761Y-102692204D01*
X65357142Y-102739823D01*
X64547619Y-101739823D02*
X64500000Y-101692204D01*
X64452380Y-101596966D01*
X64452380Y-101358871D01*
X64500000Y-101263633D01*
X64547619Y-101216014D01*
X64642857Y-101168395D01*
X64738095Y-101168395D01*
X64880952Y-101216014D01*
X65452380Y-101787442D01*
X65452380Y-101168395D01*
X63743642Y-103073157D02*
X63791261Y-103120776D01*
X63838880Y-103263633D01*
X63838880Y-103358871D01*
X63791261Y-103501728D01*
X63696023Y-103596966D01*
X63600785Y-103644585D01*
X63410309Y-103692204D01*
X63267452Y-103692204D01*
X63076976Y-103644585D01*
X62981738Y-103596966D01*
X62886500Y-103501728D01*
X62838880Y-103358871D01*
X62838880Y-103263633D01*
X62886500Y-103120776D01*
X62934119Y-103073157D01*
X62838880Y-102739823D02*
X62838880Y-102120776D01*
X63219833Y-102454109D01*
X63219833Y-102311252D01*
X63267452Y-102216014D01*
X63315071Y-102168395D01*
X63410309Y-102120776D01*
X63648404Y-102120776D01*
X63743642Y-102168395D01*
X63791261Y-102216014D01*
X63838880Y-102311252D01*
X63838880Y-102596966D01*
X63791261Y-102692204D01*
X63743642Y-102739823D01*
X62838880Y-101787442D02*
X62838880Y-101168395D01*
X63219833Y-101501728D01*
X63219833Y-101358871D01*
X63267452Y-101263633D01*
X63315071Y-101216014D01*
X63410309Y-101168395D01*
X63648404Y-101168395D01*
X63743642Y-101216014D01*
X63791261Y-101263633D01*
X63838880Y-101358871D01*
X63838880Y-101644585D01*
X63791261Y-101739823D01*
X63743642Y-101787442D01*
X56897542Y-59164457D02*
X56945161Y-59212076D01*
X56992780Y-59354933D01*
X56992780Y-59450171D01*
X56945161Y-59593028D01*
X56849923Y-59688266D01*
X56754685Y-59735885D01*
X56564209Y-59783504D01*
X56421352Y-59783504D01*
X56230876Y-59735885D01*
X56135638Y-59688266D01*
X56040400Y-59593028D01*
X55992780Y-59450171D01*
X55992780Y-59354933D01*
X56040400Y-59212076D01*
X56088019Y-59164457D01*
X55992780Y-58831123D02*
X55992780Y-58212076D01*
X56373733Y-58545409D01*
X56373733Y-58402552D01*
X56421352Y-58307314D01*
X56468971Y-58259695D01*
X56564209Y-58212076D01*
X56802304Y-58212076D01*
X56897542Y-58259695D01*
X56945161Y-58307314D01*
X56992780Y-58402552D01*
X56992780Y-58688266D01*
X56945161Y-58783504D01*
X56897542Y-58831123D01*
X55992780Y-57307314D02*
X55992780Y-57783504D01*
X56468971Y-57831123D01*
X56421352Y-57783504D01*
X56373733Y-57688266D01*
X56373733Y-57450171D01*
X56421352Y-57354933D01*
X56468971Y-57307314D01*
X56564209Y-57259695D01*
X56802304Y-57259695D01*
X56897542Y-57307314D01*
X56945161Y-57354933D01*
X56992780Y-57450171D01*
X56992780Y-57688266D01*
X56945161Y-57783504D01*
X56897542Y-57831123D01*
X95403942Y-55595757D02*
X95451561Y-55643376D01*
X95499180Y-55786233D01*
X95499180Y-55881471D01*
X95451561Y-56024328D01*
X95356323Y-56119566D01*
X95261085Y-56167185D01*
X95070609Y-56214804D01*
X94927752Y-56214804D01*
X94737276Y-56167185D01*
X94642038Y-56119566D01*
X94546800Y-56024328D01*
X94499180Y-55881471D01*
X94499180Y-55786233D01*
X94546800Y-55643376D01*
X94594419Y-55595757D01*
X94499180Y-55262423D02*
X94499180Y-54643376D01*
X94880133Y-54976709D01*
X94880133Y-54833852D01*
X94927752Y-54738614D01*
X94975371Y-54690995D01*
X95070609Y-54643376D01*
X95308704Y-54643376D01*
X95403942Y-54690995D01*
X95451561Y-54738614D01*
X95499180Y-54833852D01*
X95499180Y-55119566D01*
X95451561Y-55214804D01*
X95403942Y-55262423D01*
X94499180Y-54310042D02*
X94499180Y-53643376D01*
X95499180Y-54071947D01*
X85226162Y-67973177D02*
X85273781Y-68020796D01*
X85321400Y-68163653D01*
X85321400Y-68258891D01*
X85273781Y-68401748D01*
X85178543Y-68496986D01*
X85083305Y-68544605D01*
X84892829Y-68592224D01*
X84749972Y-68592224D01*
X84559496Y-68544605D01*
X84464258Y-68496986D01*
X84369020Y-68401748D01*
X84321400Y-68258891D01*
X84321400Y-68163653D01*
X84369020Y-68020796D01*
X84416639Y-67973177D01*
X84321400Y-67639843D02*
X84321400Y-67020796D01*
X84702353Y-67354129D01*
X84702353Y-67211272D01*
X84749972Y-67116034D01*
X84797591Y-67068415D01*
X84892829Y-67020796D01*
X85130924Y-67020796D01*
X85226162Y-67068415D01*
X85273781Y-67116034D01*
X85321400Y-67211272D01*
X85321400Y-67496986D01*
X85273781Y-67592224D01*
X85226162Y-67639843D01*
X84749972Y-66449367D02*
X84702353Y-66544605D01*
X84654734Y-66592224D01*
X84559496Y-66639843D01*
X84511877Y-66639843D01*
X84416639Y-66592224D01*
X84369020Y-66544605D01*
X84321400Y-66449367D01*
X84321400Y-66258891D01*
X84369020Y-66163653D01*
X84416639Y-66116034D01*
X84511877Y-66068415D01*
X84559496Y-66068415D01*
X84654734Y-66116034D01*
X84702353Y-66163653D01*
X84749972Y-66258891D01*
X84749972Y-66449367D01*
X84797591Y-66544605D01*
X84845210Y-66592224D01*
X84940448Y-66639843D01*
X85130924Y-66639843D01*
X85226162Y-66592224D01*
X85273781Y-66544605D01*
X85321400Y-66449367D01*
X85321400Y-66258891D01*
X85273781Y-66163653D01*
X85226162Y-66116034D01*
X85130924Y-66068415D01*
X84940448Y-66068415D01*
X84845210Y-66116034D01*
X84797591Y-66163653D01*
X84749972Y-66258891D01*
X95593442Y-67686157D02*
X95641061Y-67733776D01*
X95688680Y-67876633D01*
X95688680Y-67971871D01*
X95641061Y-68114728D01*
X95545823Y-68209966D01*
X95450585Y-68257585D01*
X95260109Y-68305204D01*
X95117252Y-68305204D01*
X94926776Y-68257585D01*
X94831538Y-68209966D01*
X94736300Y-68114728D01*
X94688680Y-67971871D01*
X94688680Y-67876633D01*
X94736300Y-67733776D01*
X94783919Y-67686157D01*
X94688680Y-67352823D02*
X94688680Y-66733776D01*
X95069633Y-67067109D01*
X95069633Y-66924252D01*
X95117252Y-66829014D01*
X95164871Y-66781395D01*
X95260109Y-66733776D01*
X95498204Y-66733776D01*
X95593442Y-66781395D01*
X95641061Y-66829014D01*
X95688680Y-66924252D01*
X95688680Y-67209966D01*
X95641061Y-67305204D01*
X95593442Y-67352823D01*
X95688680Y-66257585D02*
X95688680Y-66067109D01*
X95641061Y-65971871D01*
X95593442Y-65924252D01*
X95450585Y-65829014D01*
X95260109Y-65781395D01*
X94879157Y-65781395D01*
X94783919Y-65829014D01*
X94736300Y-65876633D01*
X94688680Y-65971871D01*
X94688680Y-66162347D01*
X94736300Y-66257585D01*
X94783919Y-66305204D01*
X94879157Y-66352823D01*
X95117252Y-66352823D01*
X95212490Y-66305204D01*
X95260109Y-66257585D01*
X95307728Y-66162347D01*
X95307728Y-65971871D01*
X95260109Y-65876633D01*
X95212490Y-65829014D01*
X95117252Y-65781395D01*
X88162382Y-54940437D02*
X88210001Y-54988056D01*
X88257620Y-55130913D01*
X88257620Y-55226151D01*
X88210001Y-55369008D01*
X88114763Y-55464246D01*
X88019525Y-55511865D01*
X87829049Y-55559484D01*
X87686192Y-55559484D01*
X87495716Y-55511865D01*
X87400478Y-55464246D01*
X87305240Y-55369008D01*
X87257620Y-55226151D01*
X87257620Y-55130913D01*
X87305240Y-54988056D01*
X87352859Y-54940437D01*
X87590954Y-54083294D02*
X88257620Y-54083294D01*
X87210001Y-54321389D02*
X87924287Y-54559484D01*
X87924287Y-53940437D01*
X87257620Y-53369008D02*
X87257620Y-53273770D01*
X87305240Y-53178532D01*
X87352859Y-53130913D01*
X87448097Y-53083294D01*
X87638573Y-53035675D01*
X87876668Y-53035675D01*
X88067144Y-53083294D01*
X88162382Y-53130913D01*
X88210001Y-53178532D01*
X88257620Y-53273770D01*
X88257620Y-53369008D01*
X88210001Y-53464246D01*
X88162382Y-53511865D01*
X88067144Y-53559484D01*
X87876668Y-53607103D01*
X87638573Y-53607103D01*
X87448097Y-53559484D01*
X87352859Y-53511865D01*
X87305240Y-53464246D01*
X87257620Y-53369008D01*
X78147182Y-68313537D02*
X78194801Y-68361156D01*
X78242420Y-68504013D01*
X78242420Y-68599251D01*
X78194801Y-68742108D01*
X78099563Y-68837346D01*
X78004325Y-68884965D01*
X77813849Y-68932584D01*
X77670992Y-68932584D01*
X77480516Y-68884965D01*
X77385278Y-68837346D01*
X77290040Y-68742108D01*
X77242420Y-68599251D01*
X77242420Y-68504013D01*
X77290040Y-68361156D01*
X77337659Y-68313537D01*
X77575754Y-67456394D02*
X78242420Y-67456394D01*
X77194801Y-67694489D02*
X77909087Y-67932584D01*
X77909087Y-67313537D01*
X78242420Y-66408775D02*
X78242420Y-66980203D01*
X78242420Y-66694489D02*
X77242420Y-66694489D01*
X77385278Y-66789727D01*
X77480516Y-66884965D01*
X77528135Y-66980203D01*
X88388442Y-67686157D02*
X88436061Y-67733776D01*
X88483680Y-67876633D01*
X88483680Y-67971871D01*
X88436061Y-68114728D01*
X88340823Y-68209966D01*
X88245585Y-68257585D01*
X88055109Y-68305204D01*
X87912252Y-68305204D01*
X87721776Y-68257585D01*
X87626538Y-68209966D01*
X87531300Y-68114728D01*
X87483680Y-67971871D01*
X87483680Y-67876633D01*
X87531300Y-67733776D01*
X87578919Y-67686157D01*
X87817014Y-66829014D02*
X88483680Y-66829014D01*
X87436061Y-67067109D02*
X88150347Y-67305204D01*
X88150347Y-66686157D01*
X87578919Y-66352823D02*
X87531300Y-66305204D01*
X87483680Y-66209966D01*
X87483680Y-65971871D01*
X87531300Y-65876633D01*
X87578919Y-65829014D01*
X87674157Y-65781395D01*
X87769395Y-65781395D01*
X87912252Y-65829014D01*
X88483680Y-66400442D01*
X88483680Y-65781395D01*
X91557382Y-54940437D02*
X91605001Y-54988056D01*
X91652620Y-55130913D01*
X91652620Y-55226151D01*
X91605001Y-55369008D01*
X91509763Y-55464246D01*
X91414525Y-55511865D01*
X91224049Y-55559484D01*
X91081192Y-55559484D01*
X90890716Y-55511865D01*
X90795478Y-55464246D01*
X90700240Y-55369008D01*
X90652620Y-55226151D01*
X90652620Y-55130913D01*
X90700240Y-54988056D01*
X90747859Y-54940437D01*
X90985954Y-54083294D02*
X91652620Y-54083294D01*
X90605001Y-54321389D02*
X91319287Y-54559484D01*
X91319287Y-53940437D01*
X90652620Y-53654722D02*
X90652620Y-53035675D01*
X91033573Y-53369008D01*
X91033573Y-53226151D01*
X91081192Y-53130913D01*
X91128811Y-53083294D01*
X91224049Y-53035675D01*
X91462144Y-53035675D01*
X91557382Y-53083294D01*
X91605001Y-53130913D01*
X91652620Y-53226151D01*
X91652620Y-53511865D01*
X91605001Y-53607103D01*
X91557382Y-53654722D01*
X81374522Y-68044297D02*
X81422141Y-68091916D01*
X81469760Y-68234773D01*
X81469760Y-68330011D01*
X81422141Y-68472868D01*
X81326903Y-68568106D01*
X81231665Y-68615725D01*
X81041189Y-68663344D01*
X80898332Y-68663344D01*
X80707856Y-68615725D01*
X80612618Y-68568106D01*
X80517380Y-68472868D01*
X80469760Y-68330011D01*
X80469760Y-68234773D01*
X80517380Y-68091916D01*
X80564999Y-68044297D01*
X80803094Y-67187154D02*
X81469760Y-67187154D01*
X80422141Y-67425249D02*
X81136427Y-67663344D01*
X81136427Y-67044297D01*
X80803094Y-66234773D02*
X81469760Y-66234773D01*
X80422141Y-66472868D02*
X81136427Y-66710963D01*
X81136427Y-66091916D01*
X91783442Y-67686157D02*
X91831061Y-67733776D01*
X91878680Y-67876633D01*
X91878680Y-67971871D01*
X91831061Y-68114728D01*
X91735823Y-68209966D01*
X91640585Y-68257585D01*
X91450109Y-68305204D01*
X91307252Y-68305204D01*
X91116776Y-68257585D01*
X91021538Y-68209966D01*
X90926300Y-68114728D01*
X90878680Y-67971871D01*
X90878680Y-67876633D01*
X90926300Y-67733776D01*
X90973919Y-67686157D01*
X91212014Y-66829014D02*
X91878680Y-66829014D01*
X90831061Y-67067109D02*
X91545347Y-67305204D01*
X91545347Y-66686157D01*
X90878680Y-65829014D02*
X90878680Y-66305204D01*
X91354871Y-66352823D01*
X91307252Y-66305204D01*
X91259633Y-66209966D01*
X91259633Y-65971871D01*
X91307252Y-65876633D01*
X91354871Y-65829014D01*
X91450109Y-65781395D01*
X91688204Y-65781395D01*
X91783442Y-65829014D01*
X91831061Y-65876633D01*
X91878680Y-65971871D01*
X91878680Y-66209966D01*
X91831061Y-66305204D01*
X91783442Y-66352823D01*
X98959942Y-56167257D02*
X99007561Y-56214876D01*
X99055180Y-56357733D01*
X99055180Y-56452971D01*
X99007561Y-56595828D01*
X98912323Y-56691066D01*
X98817085Y-56738685D01*
X98626609Y-56786304D01*
X98483752Y-56786304D01*
X98293276Y-56738685D01*
X98198038Y-56691066D01*
X98102800Y-56595828D01*
X98055180Y-56452971D01*
X98055180Y-56357733D01*
X98102800Y-56214876D01*
X98150419Y-56167257D01*
X98388514Y-55310114D02*
X99055180Y-55310114D01*
X98007561Y-55548209D02*
X98721847Y-55786304D01*
X98721847Y-55167257D01*
X98055180Y-54357733D02*
X98055180Y-54548209D01*
X98102800Y-54643447D01*
X98150419Y-54691066D01*
X98293276Y-54786304D01*
X98483752Y-54833923D01*
X98864704Y-54833923D01*
X98959942Y-54786304D01*
X99007561Y-54738685D01*
X99055180Y-54643447D01*
X99055180Y-54452971D01*
X99007561Y-54357733D01*
X98959942Y-54310114D01*
X98864704Y-54262495D01*
X98626609Y-54262495D01*
X98531371Y-54310114D01*
X98483752Y-54357733D01*
X98436133Y-54452971D01*
X98436133Y-54643447D01*
X98483752Y-54738685D01*
X98531371Y-54786304D01*
X98626609Y-54833923D01*
X100534742Y-54846457D02*
X100582361Y-54894076D01*
X100629980Y-55036933D01*
X100629980Y-55132171D01*
X100582361Y-55275028D01*
X100487123Y-55370266D01*
X100391885Y-55417885D01*
X100201409Y-55465504D01*
X100058552Y-55465504D01*
X99868076Y-55417885D01*
X99772838Y-55370266D01*
X99677600Y-55275028D01*
X99629980Y-55132171D01*
X99629980Y-55036933D01*
X99677600Y-54894076D01*
X99725219Y-54846457D01*
X99963314Y-53989314D02*
X100629980Y-53989314D01*
X99582361Y-54227409D02*
X100296647Y-54465504D01*
X100296647Y-53846457D01*
X99629980Y-53560742D02*
X99629980Y-52894076D01*
X100629980Y-53322647D01*
X101817442Y-54592457D02*
X101865061Y-54640076D01*
X101912680Y-54782933D01*
X101912680Y-54878171D01*
X101865061Y-55021028D01*
X101769823Y-55116266D01*
X101674585Y-55163885D01*
X101484109Y-55211504D01*
X101341252Y-55211504D01*
X101150776Y-55163885D01*
X101055538Y-55116266D01*
X100960300Y-55021028D01*
X100912680Y-54878171D01*
X100912680Y-54782933D01*
X100960300Y-54640076D01*
X101007919Y-54592457D01*
X101246014Y-53735314D02*
X101912680Y-53735314D01*
X100865061Y-53973409D02*
X101579347Y-54211504D01*
X101579347Y-53592457D01*
X101341252Y-53068647D02*
X101293633Y-53163885D01*
X101246014Y-53211504D01*
X101150776Y-53259123D01*
X101103157Y-53259123D01*
X101007919Y-53211504D01*
X100960300Y-53163885D01*
X100912680Y-53068647D01*
X100912680Y-52878171D01*
X100960300Y-52782933D01*
X101007919Y-52735314D01*
X101103157Y-52687695D01*
X101150776Y-52687695D01*
X101246014Y-52735314D01*
X101293633Y-52782933D01*
X101341252Y-52878171D01*
X101341252Y-53068647D01*
X101388871Y-53163885D01*
X101436490Y-53211504D01*
X101531728Y-53259123D01*
X101722204Y-53259123D01*
X101817442Y-53211504D01*
X101865061Y-53163885D01*
X101912680Y-53068647D01*
X101912680Y-52878171D01*
X101865061Y-52782933D01*
X101817442Y-52735314D01*
X101722204Y-52687695D01*
X101531728Y-52687695D01*
X101436490Y-52735314D01*
X101388871Y-52782933D01*
X101341252Y-52878171D01*
X83597022Y-54717857D02*
X83644641Y-54765476D01*
X83692260Y-54908333D01*
X83692260Y-55003571D01*
X83644641Y-55146428D01*
X83549403Y-55241666D01*
X83454165Y-55289285D01*
X83263689Y-55336904D01*
X83120832Y-55336904D01*
X82930356Y-55289285D01*
X82835118Y-55241666D01*
X82739880Y-55146428D01*
X82692260Y-55003571D01*
X82692260Y-54908333D01*
X82739880Y-54765476D01*
X82787499Y-54717857D01*
X83025594Y-53860714D02*
X83692260Y-53860714D01*
X82644641Y-54098809D02*
X83358927Y-54336904D01*
X83358927Y-53717857D01*
X83692260Y-53289285D02*
X83692260Y-53098809D01*
X83644641Y-53003571D01*
X83597022Y-52955952D01*
X83454165Y-52860714D01*
X83263689Y-52813095D01*
X82882737Y-52813095D01*
X82787499Y-52860714D01*
X82739880Y-52908333D01*
X82692260Y-53003571D01*
X82692260Y-53194047D01*
X82739880Y-53289285D01*
X82787499Y-53336904D01*
X82882737Y-53384523D01*
X83120832Y-53384523D01*
X83216070Y-53336904D01*
X83263689Y-53289285D01*
X83311308Y-53194047D01*
X83311308Y-53003571D01*
X83263689Y-52908333D01*
X83216070Y-52860714D01*
X83120832Y-52813095D01*
X73939942Y-67330557D02*
X73987561Y-67378176D01*
X74035180Y-67521033D01*
X74035180Y-67616271D01*
X73987561Y-67759128D01*
X73892323Y-67854366D01*
X73797085Y-67901985D01*
X73606609Y-67949604D01*
X73463752Y-67949604D01*
X73273276Y-67901985D01*
X73178038Y-67854366D01*
X73082800Y-67759128D01*
X73035180Y-67616271D01*
X73035180Y-67521033D01*
X73082800Y-67378176D01*
X73130419Y-67330557D01*
X73035180Y-66425795D02*
X73035180Y-66901985D01*
X73511371Y-66949604D01*
X73463752Y-66901985D01*
X73416133Y-66806747D01*
X73416133Y-66568652D01*
X73463752Y-66473414D01*
X73511371Y-66425795D01*
X73606609Y-66378176D01*
X73844704Y-66378176D01*
X73939942Y-66425795D01*
X73987561Y-66473414D01*
X74035180Y-66568652D01*
X74035180Y-66806747D01*
X73987561Y-66901985D01*
X73939942Y-66949604D01*
X73035180Y-65759128D02*
X73035180Y-65663890D01*
X73082800Y-65568652D01*
X73130419Y-65521033D01*
X73225657Y-65473414D01*
X73416133Y-65425795D01*
X73654228Y-65425795D01*
X73844704Y-65473414D01*
X73939942Y-65521033D01*
X73987561Y-65568652D01*
X74035180Y-65663890D01*
X74035180Y-65759128D01*
X73987561Y-65854366D01*
X73939942Y-65901985D01*
X73844704Y-65949604D01*
X73654228Y-65997223D01*
X73416133Y-65997223D01*
X73225657Y-65949604D01*
X73130419Y-65901985D01*
X73082800Y-65854366D01*
X73035180Y-65759128D01*
X76590142Y-55271937D02*
X76637761Y-55319556D01*
X76685380Y-55462413D01*
X76685380Y-55557651D01*
X76637761Y-55700508D01*
X76542523Y-55795746D01*
X76447285Y-55843365D01*
X76256809Y-55890984D01*
X76113952Y-55890984D01*
X75923476Y-55843365D01*
X75828238Y-55795746D01*
X75733000Y-55700508D01*
X75685380Y-55557651D01*
X75685380Y-55462413D01*
X75733000Y-55319556D01*
X75780619Y-55271937D01*
X75685380Y-54367175D02*
X75685380Y-54843365D01*
X76161571Y-54890984D01*
X76113952Y-54843365D01*
X76066333Y-54748127D01*
X76066333Y-54510032D01*
X76113952Y-54414794D01*
X76161571Y-54367175D01*
X76256809Y-54319556D01*
X76494904Y-54319556D01*
X76590142Y-54367175D01*
X76637761Y-54414794D01*
X76685380Y-54510032D01*
X76685380Y-54748127D01*
X76637761Y-54843365D01*
X76590142Y-54890984D01*
X76685380Y-53367175D02*
X76685380Y-53938603D01*
X76685380Y-53652889D02*
X75685380Y-53652889D01*
X75828238Y-53748127D01*
X75923476Y-53843365D01*
X75971095Y-53938603D01*
X66734942Y-67330557D02*
X66782561Y-67378176D01*
X66830180Y-67521033D01*
X66830180Y-67616271D01*
X66782561Y-67759128D01*
X66687323Y-67854366D01*
X66592085Y-67901985D01*
X66401609Y-67949604D01*
X66258752Y-67949604D01*
X66068276Y-67901985D01*
X65973038Y-67854366D01*
X65877800Y-67759128D01*
X65830180Y-67616271D01*
X65830180Y-67521033D01*
X65877800Y-67378176D01*
X65925419Y-67330557D01*
X65830180Y-66425795D02*
X65830180Y-66901985D01*
X66306371Y-66949604D01*
X66258752Y-66901985D01*
X66211133Y-66806747D01*
X66211133Y-66568652D01*
X66258752Y-66473414D01*
X66306371Y-66425795D01*
X66401609Y-66378176D01*
X66639704Y-66378176D01*
X66734942Y-66425795D01*
X66782561Y-66473414D01*
X66830180Y-66568652D01*
X66830180Y-66806747D01*
X66782561Y-66901985D01*
X66734942Y-66949604D01*
X65925419Y-65997223D02*
X65877800Y-65949604D01*
X65830180Y-65854366D01*
X65830180Y-65616271D01*
X65877800Y-65521033D01*
X65925419Y-65473414D01*
X66020657Y-65425795D01*
X66115895Y-65425795D01*
X66258752Y-65473414D01*
X66830180Y-66044842D01*
X66830180Y-65425795D01*
X79914022Y-54994937D02*
X79961641Y-55042556D01*
X80009260Y-55185413D01*
X80009260Y-55280651D01*
X79961641Y-55423508D01*
X79866403Y-55518746D01*
X79771165Y-55566365D01*
X79580689Y-55613984D01*
X79437832Y-55613984D01*
X79247356Y-55566365D01*
X79152118Y-55518746D01*
X79056880Y-55423508D01*
X79009260Y-55280651D01*
X79009260Y-55185413D01*
X79056880Y-55042556D01*
X79104499Y-54994937D01*
X79009260Y-54090175D02*
X79009260Y-54566365D01*
X79485451Y-54613984D01*
X79437832Y-54566365D01*
X79390213Y-54471127D01*
X79390213Y-54233032D01*
X79437832Y-54137794D01*
X79485451Y-54090175D01*
X79580689Y-54042556D01*
X79818784Y-54042556D01*
X79914022Y-54090175D01*
X79961641Y-54137794D01*
X80009260Y-54233032D01*
X80009260Y-54471127D01*
X79961641Y-54566365D01*
X79914022Y-54613984D01*
X79009260Y-53709222D02*
X79009260Y-53090175D01*
X79390213Y-53423508D01*
X79390213Y-53280651D01*
X79437832Y-53185413D01*
X79485451Y-53137794D01*
X79580689Y-53090175D01*
X79818784Y-53090175D01*
X79914022Y-53137794D01*
X79961641Y-53185413D01*
X80009260Y-53280651D01*
X80009260Y-53566365D01*
X79961641Y-53661603D01*
X79914022Y-53709222D01*
X70129942Y-67330557D02*
X70177561Y-67378176D01*
X70225180Y-67521033D01*
X70225180Y-67616271D01*
X70177561Y-67759128D01*
X70082323Y-67854366D01*
X69987085Y-67901985D01*
X69796609Y-67949604D01*
X69653752Y-67949604D01*
X69463276Y-67901985D01*
X69368038Y-67854366D01*
X69272800Y-67759128D01*
X69225180Y-67616271D01*
X69225180Y-67521033D01*
X69272800Y-67378176D01*
X69320419Y-67330557D01*
X69225180Y-66425795D02*
X69225180Y-66901985D01*
X69701371Y-66949604D01*
X69653752Y-66901985D01*
X69606133Y-66806747D01*
X69606133Y-66568652D01*
X69653752Y-66473414D01*
X69701371Y-66425795D01*
X69796609Y-66378176D01*
X70034704Y-66378176D01*
X70129942Y-66425795D01*
X70177561Y-66473414D01*
X70225180Y-66568652D01*
X70225180Y-66806747D01*
X70177561Y-66901985D01*
X70129942Y-66949604D01*
X69558514Y-65521033D02*
X70225180Y-65521033D01*
X69177561Y-65759128D02*
X69891847Y-65997223D01*
X69891847Y-65378176D01*
X86463142Y-84694057D02*
X86510761Y-84741676D01*
X86558380Y-84884533D01*
X86558380Y-84979771D01*
X86510761Y-85122628D01*
X86415523Y-85217866D01*
X86320285Y-85265485D01*
X86129809Y-85313104D01*
X85986952Y-85313104D01*
X85796476Y-85265485D01*
X85701238Y-85217866D01*
X85606000Y-85122628D01*
X85558380Y-84979771D01*
X85558380Y-84884533D01*
X85606000Y-84741676D01*
X85653619Y-84694057D01*
X85558380Y-83789295D02*
X85558380Y-84265485D01*
X86034571Y-84313104D01*
X85986952Y-84265485D01*
X85939333Y-84170247D01*
X85939333Y-83932152D01*
X85986952Y-83836914D01*
X86034571Y-83789295D01*
X86129809Y-83741676D01*
X86367904Y-83741676D01*
X86463142Y-83789295D01*
X86510761Y-83836914D01*
X86558380Y-83932152D01*
X86558380Y-84170247D01*
X86510761Y-84265485D01*
X86463142Y-84313104D01*
X85558380Y-82836914D02*
X85558380Y-83313104D01*
X86034571Y-83360723D01*
X85986952Y-83313104D01*
X85939333Y-83217866D01*
X85939333Y-82979771D01*
X85986952Y-82884533D01*
X86034571Y-82836914D01*
X86129809Y-82789295D01*
X86367904Y-82789295D01*
X86463142Y-82836914D01*
X86510761Y-82884533D01*
X86558380Y-82979771D01*
X86558380Y-83217866D01*
X86510761Y-83313104D01*
X86463142Y-83360723D01*
X51829744Y-59588660D02*
X51829744Y-58588660D01*
X52067840Y-58588660D01*
X52210697Y-58636280D01*
X52305935Y-58731518D01*
X52353554Y-58826756D01*
X52401173Y-59017232D01*
X52401173Y-59160089D01*
X52353554Y-59350565D01*
X52305935Y-59445803D01*
X52210697Y-59541041D01*
X52067840Y-59588660D01*
X51829744Y-59588660D01*
X53258316Y-58921994D02*
X53258316Y-59588660D01*
X53020220Y-58541041D02*
X52782125Y-59255327D01*
X53401173Y-59255327D01*
X42166666Y-58702380D02*
X42166666Y-59416666D01*
X42119047Y-59559523D01*
X42023809Y-59654761D01*
X41880952Y-59702380D01*
X41785714Y-59702380D01*
X42547619Y-58702380D02*
X43166666Y-58702380D01*
X42833333Y-59083333D01*
X42976190Y-59083333D01*
X43071428Y-59130952D01*
X43119047Y-59178571D01*
X43166666Y-59273809D01*
X43166666Y-59511904D01*
X43119047Y-59607142D01*
X43071428Y-59654761D01*
X42976190Y-59702380D01*
X42690476Y-59702380D01*
X42595238Y-59654761D01*
X42547619Y-59607142D01*
X58193346Y-54372260D02*
X58193346Y-55086546D01*
X58145727Y-55229403D01*
X58050489Y-55324641D01*
X57907632Y-55372260D01*
X57812394Y-55372260D01*
X59098108Y-54705594D02*
X59098108Y-55372260D01*
X58860013Y-54324641D02*
X58621918Y-55038927D01*
X59240965Y-55038927D01*
X95966666Y-45652380D02*
X95966666Y-46366666D01*
X95919047Y-46509523D01*
X95823809Y-46604761D01*
X95680952Y-46652380D01*
X95585714Y-46652380D01*
X96919047Y-45652380D02*
X96442857Y-45652380D01*
X96395238Y-46128571D01*
X96442857Y-46080952D01*
X96538095Y-46033333D01*
X96776190Y-46033333D01*
X96871428Y-46080952D01*
X96919047Y-46128571D01*
X96966666Y-46223809D01*
X96966666Y-46461904D01*
X96919047Y-46557142D01*
X96871428Y-46604761D01*
X96776190Y-46652380D01*
X96538095Y-46652380D01*
X96442857Y-46604761D01*
X96395238Y-46557142D01*
X85174080Y-82830966D02*
X84697890Y-83164300D01*
X85174080Y-83402395D02*
X84174080Y-83402395D01*
X84174080Y-83021442D01*
X84221700Y-82926204D01*
X84269319Y-82878585D01*
X84364557Y-82830966D01*
X84507414Y-82830966D01*
X84602652Y-82878585D01*
X84650271Y-82926204D01*
X84697890Y-83021442D01*
X84697890Y-83402395D01*
X85174080Y-81878585D02*
X85174080Y-82450014D01*
X85174080Y-82164300D02*
X84174080Y-82164300D01*
X84316938Y-82259538D01*
X84412176Y-82354776D01*
X84459795Y-82450014D01*
X98935780Y-63883866D02*
X98459590Y-64217200D01*
X98935780Y-64455295D02*
X97935780Y-64455295D01*
X97935780Y-64074342D01*
X97983400Y-63979104D01*
X98031019Y-63931485D01*
X98126257Y-63883866D01*
X98269114Y-63883866D01*
X98364352Y-63931485D01*
X98411971Y-63979104D01*
X98459590Y-64074342D01*
X98459590Y-64455295D01*
X98031019Y-63502914D02*
X97983400Y-63455295D01*
X97935780Y-63360057D01*
X97935780Y-63121961D01*
X97983400Y-63026723D01*
X98031019Y-62979104D01*
X98126257Y-62931485D01*
X98221495Y-62931485D01*
X98364352Y-62979104D01*
X98935780Y-63550533D01*
X98935780Y-62931485D01*
X108326180Y-99290166D02*
X107849990Y-99623500D01*
X108326180Y-99861595D02*
X107326180Y-99861595D01*
X107326180Y-99480642D01*
X107373800Y-99385404D01*
X107421419Y-99337785D01*
X107516657Y-99290166D01*
X107659514Y-99290166D01*
X107754752Y-99337785D01*
X107802371Y-99385404D01*
X107849990Y-99480642D01*
X107849990Y-99861595D01*
X107326180Y-98956833D02*
X107326180Y-98337785D01*
X107707133Y-98671119D01*
X107707133Y-98528261D01*
X107754752Y-98433023D01*
X107802371Y-98385404D01*
X107897609Y-98337785D01*
X108135704Y-98337785D01*
X108230942Y-98385404D01*
X108278561Y-98433023D01*
X108326180Y-98528261D01*
X108326180Y-98813976D01*
X108278561Y-98909214D01*
X108230942Y-98956833D01*
X105151180Y-99353666D02*
X104674990Y-99687000D01*
X105151180Y-99925095D02*
X104151180Y-99925095D01*
X104151180Y-99544142D01*
X104198800Y-99448904D01*
X104246419Y-99401285D01*
X104341657Y-99353666D01*
X104484514Y-99353666D01*
X104579752Y-99401285D01*
X104627371Y-99448904D01*
X104674990Y-99544142D01*
X104674990Y-99925095D01*
X104484514Y-98496523D02*
X105151180Y-98496523D01*
X104103561Y-98734619D02*
X104817847Y-98972714D01*
X104817847Y-98353666D01*
X101798380Y-99125066D02*
X101322190Y-99458400D01*
X101798380Y-99696495D02*
X100798380Y-99696495D01*
X100798380Y-99315542D01*
X100846000Y-99220304D01*
X100893619Y-99172685D01*
X100988857Y-99125066D01*
X101131714Y-99125066D01*
X101226952Y-99172685D01*
X101274571Y-99220304D01*
X101322190Y-99315542D01*
X101322190Y-99696495D01*
X100798380Y-98220304D02*
X100798380Y-98696495D01*
X101274571Y-98744114D01*
X101226952Y-98696495D01*
X101179333Y-98601257D01*
X101179333Y-98363161D01*
X101226952Y-98267923D01*
X101274571Y-98220304D01*
X101369809Y-98172685D01*
X101607904Y-98172685D01*
X101703142Y-98220304D01*
X101750761Y-98267923D01*
X101798380Y-98363161D01*
X101798380Y-98601257D01*
X101750761Y-98696495D01*
X101703142Y-98744114D01*
X98674180Y-99290166D02*
X98197990Y-99623500D01*
X98674180Y-99861595D02*
X97674180Y-99861595D01*
X97674180Y-99480642D01*
X97721800Y-99385404D01*
X97769419Y-99337785D01*
X97864657Y-99290166D01*
X98007514Y-99290166D01*
X98102752Y-99337785D01*
X98150371Y-99385404D01*
X98197990Y-99480642D01*
X98197990Y-99861595D01*
X97674180Y-98433023D02*
X97674180Y-98623500D01*
X97721800Y-98718738D01*
X97769419Y-98766357D01*
X97912276Y-98861595D01*
X98102752Y-98909214D01*
X98483704Y-98909214D01*
X98578942Y-98861595D01*
X98626561Y-98813976D01*
X98674180Y-98718738D01*
X98674180Y-98528261D01*
X98626561Y-98433023D01*
X98578942Y-98385404D01*
X98483704Y-98337785D01*
X98245609Y-98337785D01*
X98150371Y-98385404D01*
X98102752Y-98433023D01*
X98055133Y-98528261D01*
X98055133Y-98718738D01*
X98102752Y-98813976D01*
X98150371Y-98861595D01*
X98245609Y-98909214D01*
X95626180Y-99353666D02*
X95149990Y-99687000D01*
X95626180Y-99925095D02*
X94626180Y-99925095D01*
X94626180Y-99544142D01*
X94673800Y-99448904D01*
X94721419Y-99401285D01*
X94816657Y-99353666D01*
X94959514Y-99353666D01*
X95054752Y-99401285D01*
X95102371Y-99448904D01*
X95149990Y-99544142D01*
X95149990Y-99925095D01*
X94626180Y-99020333D02*
X94626180Y-98353666D01*
X95626180Y-98782238D01*
X92324180Y-99290166D02*
X91847990Y-99623500D01*
X92324180Y-99861595D02*
X91324180Y-99861595D01*
X91324180Y-99480642D01*
X91371800Y-99385404D01*
X91419419Y-99337785D01*
X91514657Y-99290166D01*
X91657514Y-99290166D01*
X91752752Y-99337785D01*
X91800371Y-99385404D01*
X91847990Y-99480642D01*
X91847990Y-99861595D01*
X91752752Y-98718738D02*
X91705133Y-98813976D01*
X91657514Y-98861595D01*
X91562276Y-98909214D01*
X91514657Y-98909214D01*
X91419419Y-98861595D01*
X91371800Y-98813976D01*
X91324180Y-98718738D01*
X91324180Y-98528261D01*
X91371800Y-98433023D01*
X91419419Y-98385404D01*
X91514657Y-98337785D01*
X91562276Y-98337785D01*
X91657514Y-98385404D01*
X91705133Y-98433023D01*
X91752752Y-98528261D01*
X91752752Y-98718738D01*
X91800371Y-98813976D01*
X91847990Y-98861595D01*
X91943228Y-98909214D01*
X92133704Y-98909214D01*
X92228942Y-98861595D01*
X92276561Y-98813976D01*
X92324180Y-98718738D01*
X92324180Y-98528261D01*
X92276561Y-98433023D01*
X92228942Y-98385404D01*
X92133704Y-98337785D01*
X91943228Y-98337785D01*
X91847990Y-98385404D01*
X91800371Y-98433023D01*
X91752752Y-98528261D01*
X89212680Y-99290166D02*
X88736490Y-99623500D01*
X89212680Y-99861595D02*
X88212680Y-99861595D01*
X88212680Y-99480642D01*
X88260300Y-99385404D01*
X88307919Y-99337785D01*
X88403157Y-99290166D01*
X88546014Y-99290166D01*
X88641252Y-99337785D01*
X88688871Y-99385404D01*
X88736490Y-99480642D01*
X88736490Y-99861595D01*
X89212680Y-98813976D02*
X89212680Y-98623500D01*
X89165061Y-98528261D01*
X89117442Y-98480642D01*
X88974585Y-98385404D01*
X88784109Y-98337785D01*
X88403157Y-98337785D01*
X88307919Y-98385404D01*
X88260300Y-98433023D01*
X88212680Y-98528261D01*
X88212680Y-98718738D01*
X88260300Y-98813976D01*
X88307919Y-98861595D01*
X88403157Y-98909214D01*
X88641252Y-98909214D01*
X88736490Y-98861595D01*
X88784109Y-98813976D01*
X88831728Y-98718738D01*
X88831728Y-98528261D01*
X88784109Y-98433023D01*
X88736490Y-98385404D01*
X88641252Y-98337785D01*
X85974180Y-99194857D02*
X85497990Y-99528190D01*
X85974180Y-99766285D02*
X84974180Y-99766285D01*
X84974180Y-99385333D01*
X85021800Y-99290095D01*
X85069419Y-99242476D01*
X85164657Y-99194857D01*
X85307514Y-99194857D01*
X85402752Y-99242476D01*
X85450371Y-99290095D01*
X85497990Y-99385333D01*
X85497990Y-99766285D01*
X85974180Y-98242476D02*
X85974180Y-98813904D01*
X85974180Y-98528190D02*
X84974180Y-98528190D01*
X85117038Y-98623428D01*
X85212276Y-98718666D01*
X85259895Y-98813904D01*
X84974180Y-97623428D02*
X84974180Y-97528190D01*
X85021800Y-97432952D01*
X85069419Y-97385333D01*
X85164657Y-97337714D01*
X85355133Y-97290095D01*
X85593228Y-97290095D01*
X85783704Y-97337714D01*
X85878942Y-97385333D01*
X85926561Y-97432952D01*
X85974180Y-97528190D01*
X85974180Y-97623428D01*
X85926561Y-97718666D01*
X85878942Y-97766285D01*
X85783704Y-97813904D01*
X85593228Y-97861523D01*
X85355133Y-97861523D01*
X85164657Y-97813904D01*
X85069419Y-97766285D01*
X85021800Y-97718666D01*
X84974180Y-97623428D01*
X113245662Y-68239900D02*
X112912329Y-67763710D01*
X112674234Y-68239900D02*
X112674234Y-67239900D01*
X113055186Y-67239900D01*
X113150424Y-67287520D01*
X113198043Y-67335139D01*
X113245662Y-67430377D01*
X113245662Y-67573234D01*
X113198043Y-67668472D01*
X113150424Y-67716091D01*
X113055186Y-67763710D01*
X112674234Y-67763710D01*
X114198043Y-68239900D02*
X113626615Y-68239900D01*
X113912329Y-68239900D02*
X113912329Y-67239900D01*
X113817091Y-67382758D01*
X113721853Y-67477996D01*
X113626615Y-67525615D01*
X115150424Y-68239900D02*
X114578996Y-68239900D01*
X114864710Y-68239900D02*
X114864710Y-67239900D01*
X114769472Y-67382758D01*
X114674234Y-67477996D01*
X114578996Y-67525615D01*
X93563700Y-73901537D02*
X93087510Y-74234870D01*
X93563700Y-74472965D02*
X92563700Y-74472965D01*
X92563700Y-74092013D01*
X92611320Y-73996775D01*
X92658939Y-73949156D01*
X92754177Y-73901537D01*
X92897034Y-73901537D01*
X92992272Y-73949156D01*
X93039891Y-73996775D01*
X93087510Y-74092013D01*
X93087510Y-74472965D01*
X93563700Y-72949156D02*
X93563700Y-73520584D01*
X93563700Y-73234870D02*
X92563700Y-73234870D01*
X92706558Y-73330108D01*
X92801796Y-73425346D01*
X92849415Y-73520584D01*
X92658939Y-72568203D02*
X92611320Y-72520584D01*
X92563700Y-72425346D01*
X92563700Y-72187251D01*
X92611320Y-72092013D01*
X92658939Y-72044394D01*
X92754177Y-71996775D01*
X92849415Y-71996775D01*
X92992272Y-72044394D01*
X93563700Y-72615822D01*
X93563700Y-71996775D01*
X75876142Y-74541380D02*
X75542809Y-74065190D01*
X75304714Y-74541380D02*
X75304714Y-73541380D01*
X75685666Y-73541380D01*
X75780904Y-73589000D01*
X75828523Y-73636619D01*
X75876142Y-73731857D01*
X75876142Y-73874714D01*
X75828523Y-73969952D01*
X75780904Y-74017571D01*
X75685666Y-74065190D01*
X75304714Y-74065190D01*
X76828523Y-74541380D02*
X76257095Y-74541380D01*
X76542809Y-74541380D02*
X76542809Y-73541380D01*
X76447571Y-73684238D01*
X76352333Y-73779476D01*
X76257095Y-73827095D01*
X77685666Y-73874714D02*
X77685666Y-74541380D01*
X77447571Y-73493761D02*
X77209476Y-74208047D01*
X77828523Y-74208047D01*
X82220060Y-106720777D02*
X81743870Y-107054110D01*
X82220060Y-107292205D02*
X81220060Y-107292205D01*
X81220060Y-106911253D01*
X81267680Y-106816015D01*
X81315299Y-106768396D01*
X81410537Y-106720777D01*
X81553394Y-106720777D01*
X81648632Y-106768396D01*
X81696251Y-106816015D01*
X81743870Y-106911253D01*
X81743870Y-107292205D01*
X82220060Y-105768396D02*
X82220060Y-106339824D01*
X82220060Y-106054110D02*
X81220060Y-106054110D01*
X81362918Y-106149348D01*
X81458156Y-106244586D01*
X81505775Y-106339824D01*
X81220060Y-104863634D02*
X81220060Y-105339824D01*
X81696251Y-105387443D01*
X81648632Y-105339824D01*
X81601013Y-105244586D01*
X81601013Y-105006491D01*
X81648632Y-104911253D01*
X81696251Y-104863634D01*
X81791489Y-104816015D01*
X82029584Y-104816015D01*
X82124822Y-104863634D01*
X82172441Y-104911253D01*
X82220060Y-105006491D01*
X82220060Y-105244586D01*
X82172441Y-105339824D01*
X82124822Y-105387443D01*
X67914780Y-99347257D02*
X67438590Y-99680590D01*
X67914780Y-99918685D02*
X66914780Y-99918685D01*
X66914780Y-99537733D01*
X66962400Y-99442495D01*
X67010019Y-99394876D01*
X67105257Y-99347257D01*
X67248114Y-99347257D01*
X67343352Y-99394876D01*
X67390971Y-99442495D01*
X67438590Y-99537733D01*
X67438590Y-99918685D01*
X67914780Y-98394876D02*
X67914780Y-98966304D01*
X67914780Y-98680590D02*
X66914780Y-98680590D01*
X67057638Y-98775828D01*
X67152876Y-98871066D01*
X67200495Y-98966304D01*
X66914780Y-97537733D02*
X66914780Y-97728209D01*
X66962400Y-97823447D01*
X67010019Y-97871066D01*
X67152876Y-97966304D01*
X67343352Y-98013923D01*
X67724304Y-98013923D01*
X67819542Y-97966304D01*
X67867161Y-97918685D01*
X67914780Y-97823447D01*
X67914780Y-97632971D01*
X67867161Y-97537733D01*
X67819542Y-97490114D01*
X67724304Y-97442495D01*
X67486209Y-97442495D01*
X67390971Y-97490114D01*
X67343352Y-97537733D01*
X67295733Y-97632971D01*
X67295733Y-97823447D01*
X67343352Y-97918685D01*
X67390971Y-97966304D01*
X67486209Y-98013923D01*
X80576680Y-106471857D02*
X80100490Y-106805190D01*
X80576680Y-107043285D02*
X79576680Y-107043285D01*
X79576680Y-106662333D01*
X79624300Y-106567095D01*
X79671919Y-106519476D01*
X79767157Y-106471857D01*
X79910014Y-106471857D01*
X80005252Y-106519476D01*
X80052871Y-106567095D01*
X80100490Y-106662333D01*
X80100490Y-107043285D01*
X80576680Y-105519476D02*
X80576680Y-106090904D01*
X80576680Y-105805190D02*
X79576680Y-105805190D01*
X79719538Y-105900428D01*
X79814776Y-105995666D01*
X79862395Y-106090904D01*
X79576680Y-105186142D02*
X79576680Y-104519476D01*
X80576680Y-104948047D01*
X66791542Y-77465180D02*
X66458209Y-76988990D01*
X66220114Y-77465180D02*
X66220114Y-76465180D01*
X66601066Y-76465180D01*
X66696304Y-76512800D01*
X66743923Y-76560419D01*
X66791542Y-76655657D01*
X66791542Y-76798514D01*
X66743923Y-76893752D01*
X66696304Y-76941371D01*
X66601066Y-76988990D01*
X66220114Y-76988990D01*
X67172495Y-76560419D02*
X67220114Y-76512800D01*
X67315352Y-76465180D01*
X67553447Y-76465180D01*
X67648685Y-76512800D01*
X67696304Y-76560419D01*
X67743923Y-76655657D01*
X67743923Y-76750895D01*
X67696304Y-76893752D01*
X67124876Y-77465180D01*
X67743923Y-77465180D01*
X68362971Y-76465180D02*
X68458209Y-76465180D01*
X68553447Y-76512800D01*
X68601066Y-76560419D01*
X68648685Y-76655657D01*
X68696304Y-76846133D01*
X68696304Y-77084228D01*
X68648685Y-77274704D01*
X68601066Y-77369942D01*
X68553447Y-77417561D01*
X68458209Y-77465180D01*
X68362971Y-77465180D01*
X68267733Y-77417561D01*
X68220114Y-77369942D01*
X68172495Y-77274704D01*
X68124876Y-77084228D01*
X68124876Y-76846133D01*
X68172495Y-76655657D01*
X68220114Y-76560419D01*
X68267733Y-76512800D01*
X68362971Y-76465180D01*
X66717942Y-75382380D02*
X66384609Y-74906190D01*
X66146514Y-75382380D02*
X66146514Y-74382380D01*
X66527466Y-74382380D01*
X66622704Y-74430000D01*
X66670323Y-74477619D01*
X66717942Y-74572857D01*
X66717942Y-74715714D01*
X66670323Y-74810952D01*
X66622704Y-74858571D01*
X66527466Y-74906190D01*
X66146514Y-74906190D01*
X67098895Y-74477619D02*
X67146514Y-74430000D01*
X67241752Y-74382380D01*
X67479847Y-74382380D01*
X67575085Y-74430000D01*
X67622704Y-74477619D01*
X67670323Y-74572857D01*
X67670323Y-74668095D01*
X67622704Y-74810952D01*
X67051276Y-75382380D01*
X67670323Y-75382380D01*
X68622704Y-75382380D02*
X68051276Y-75382380D01*
X68336990Y-75382380D02*
X68336990Y-74382380D01*
X68241752Y-74525238D01*
X68146514Y-74620476D01*
X68051276Y-74668095D01*
X66627742Y-73299580D02*
X66294409Y-72823390D01*
X66056314Y-73299580D02*
X66056314Y-72299580D01*
X66437266Y-72299580D01*
X66532504Y-72347200D01*
X66580123Y-72394819D01*
X66627742Y-72490057D01*
X66627742Y-72632914D01*
X66580123Y-72728152D01*
X66532504Y-72775771D01*
X66437266Y-72823390D01*
X66056314Y-72823390D01*
X67008695Y-72394819D02*
X67056314Y-72347200D01*
X67151552Y-72299580D01*
X67389647Y-72299580D01*
X67484885Y-72347200D01*
X67532504Y-72394819D01*
X67580123Y-72490057D01*
X67580123Y-72585295D01*
X67532504Y-72728152D01*
X66961076Y-73299580D01*
X67580123Y-73299580D01*
X67961076Y-72394819D02*
X68008695Y-72347200D01*
X68103933Y-72299580D01*
X68342028Y-72299580D01*
X68437266Y-72347200D01*
X68484885Y-72394819D01*
X68532504Y-72490057D01*
X68532504Y-72585295D01*
X68484885Y-72728152D01*
X67913457Y-73299580D01*
X68532504Y-73299580D01*
X61656220Y-58374577D02*
X61180030Y-58707910D01*
X61656220Y-58946005D02*
X60656220Y-58946005D01*
X60656220Y-58565053D01*
X60703840Y-58469815D01*
X60751459Y-58422196D01*
X60846697Y-58374577D01*
X60989554Y-58374577D01*
X61084792Y-58422196D01*
X61132411Y-58469815D01*
X61180030Y-58565053D01*
X61180030Y-58946005D01*
X60751459Y-57993624D02*
X60703840Y-57946005D01*
X60656220Y-57850767D01*
X60656220Y-57612672D01*
X60703840Y-57517434D01*
X60751459Y-57469815D01*
X60846697Y-57422196D01*
X60941935Y-57422196D01*
X61084792Y-57469815D01*
X61656220Y-58041243D01*
X61656220Y-57422196D01*
X60656220Y-57088862D02*
X60656220Y-56469815D01*
X61037173Y-56803148D01*
X61037173Y-56660291D01*
X61084792Y-56565053D01*
X61132411Y-56517434D01*
X61227649Y-56469815D01*
X61465744Y-56469815D01*
X61560982Y-56517434D01*
X61608601Y-56565053D01*
X61656220Y-56660291D01*
X61656220Y-56946005D01*
X61608601Y-57041243D01*
X61560982Y-57088862D01*
X107132380Y-54490857D02*
X106656190Y-54824190D01*
X107132380Y-55062285D02*
X106132380Y-55062285D01*
X106132380Y-54681333D01*
X106180000Y-54586095D01*
X106227619Y-54538476D01*
X106322857Y-54490857D01*
X106465714Y-54490857D01*
X106560952Y-54538476D01*
X106608571Y-54586095D01*
X106656190Y-54681333D01*
X106656190Y-55062285D01*
X106227619Y-54109904D02*
X106180000Y-54062285D01*
X106132380Y-53967047D01*
X106132380Y-53728952D01*
X106180000Y-53633714D01*
X106227619Y-53586095D01*
X106322857Y-53538476D01*
X106418095Y-53538476D01*
X106560952Y-53586095D01*
X107132380Y-54157523D01*
X107132380Y-53538476D01*
X106465714Y-52681333D02*
X107132380Y-52681333D01*
X106084761Y-52919428D02*
X106799047Y-53157523D01*
X106799047Y-52538476D01*
X87850742Y-87472780D02*
X87517409Y-86996590D01*
X87279314Y-87472780D02*
X87279314Y-86472780D01*
X87660266Y-86472780D01*
X87755504Y-86520400D01*
X87803123Y-86568019D01*
X87850742Y-86663257D01*
X87850742Y-86806114D01*
X87803123Y-86901352D01*
X87755504Y-86948971D01*
X87660266Y-86996590D01*
X87279314Y-86996590D01*
X88231695Y-86568019D02*
X88279314Y-86520400D01*
X88374552Y-86472780D01*
X88612647Y-86472780D01*
X88707885Y-86520400D01*
X88755504Y-86568019D01*
X88803123Y-86663257D01*
X88803123Y-86758495D01*
X88755504Y-86901352D01*
X88184076Y-87472780D01*
X88803123Y-87472780D01*
X89707885Y-86472780D02*
X89231695Y-86472780D01*
X89184076Y-86948971D01*
X89231695Y-86901352D01*
X89326933Y-86853733D01*
X89565028Y-86853733D01*
X89660266Y-86901352D01*
X89707885Y-86948971D01*
X89755504Y-87044209D01*
X89755504Y-87282304D01*
X89707885Y-87377542D01*
X89660266Y-87425161D01*
X89565028Y-87472780D01*
X89326933Y-87472780D01*
X89231695Y-87425161D01*
X89184076Y-87377542D01*
X81432495Y-87336380D02*
X81432495Y-88145904D01*
X81480114Y-88241142D01*
X81527733Y-88288761D01*
X81622971Y-88336380D01*
X81813447Y-88336380D01*
X81908685Y-88288761D01*
X81956304Y-88241142D01*
X82003923Y-88145904D01*
X82003923Y-87336380D01*
X82908685Y-87669714D02*
X82908685Y-88336380D01*
X82670590Y-87288761D02*
X82432495Y-88003047D01*
X83051542Y-88003047D01*
X75073242Y-84516942D02*
X75025623Y-84564561D01*
X74882766Y-84612180D01*
X74787528Y-84612180D01*
X74644671Y-84564561D01*
X74549433Y-84469323D01*
X74501814Y-84374085D01*
X74454195Y-84183609D01*
X74454195Y-84040752D01*
X74501814Y-83850276D01*
X74549433Y-83755038D01*
X74644671Y-83659800D01*
X74787528Y-83612180D01*
X74882766Y-83612180D01*
X75025623Y-83659800D01*
X75073242Y-83707419D01*
X75406576Y-83612180D02*
X76025623Y-83612180D01*
X75692290Y-83993133D01*
X75835147Y-83993133D01*
X75930385Y-84040752D01*
X75978004Y-84088371D01*
X76025623Y-84183609D01*
X76025623Y-84421704D01*
X75978004Y-84516942D01*
X75930385Y-84564561D01*
X75835147Y-84612180D01*
X75549433Y-84612180D01*
X75454195Y-84564561D01*
X75406576Y-84516942D01*
X76978004Y-84612180D02*
X76406576Y-84612180D01*
X76692290Y-84612180D02*
X76692290Y-83612180D01*
X76597052Y-83755038D01*
X76501814Y-83850276D01*
X76406576Y-83897895D01*
X66842342Y-81376780D02*
X66509009Y-80900590D01*
X66270914Y-81376780D02*
X66270914Y-80376780D01*
X66651866Y-80376780D01*
X66747104Y-80424400D01*
X66794723Y-80472019D01*
X66842342Y-80567257D01*
X66842342Y-80710114D01*
X66794723Y-80805352D01*
X66747104Y-80852971D01*
X66651866Y-80900590D01*
X66270914Y-80900590D01*
X67794723Y-81376780D02*
X67223295Y-81376780D01*
X67509009Y-81376780D02*
X67509009Y-80376780D01*
X67413771Y-80519638D01*
X67318533Y-80614876D01*
X67223295Y-80662495D01*
X68366152Y-80805352D02*
X68270914Y-80757733D01*
X68223295Y-80710114D01*
X68175676Y-80614876D01*
X68175676Y-80567257D01*
X68223295Y-80472019D01*
X68270914Y-80424400D01*
X68366152Y-80376780D01*
X68556628Y-80376780D01*
X68651866Y-80424400D01*
X68699485Y-80472019D01*
X68747104Y-80567257D01*
X68747104Y-80614876D01*
X68699485Y-80710114D01*
X68651866Y-80757733D01*
X68556628Y-80805352D01*
X68366152Y-80805352D01*
X68270914Y-80852971D01*
X68223295Y-80900590D01*
X68175676Y-80995828D01*
X68175676Y-81186304D01*
X68223295Y-81281542D01*
X68270914Y-81329161D01*
X68366152Y-81376780D01*
X68556628Y-81376780D01*
X68651866Y-81329161D01*
X68699485Y-81281542D01*
X68747104Y-81186304D01*
X68747104Y-80995828D01*
X68699485Y-80900590D01*
X68651866Y-80852971D01*
X68556628Y-80805352D01*
X66667142Y-79598780D02*
X66333809Y-79122590D01*
X66095714Y-79598780D02*
X66095714Y-78598780D01*
X66476666Y-78598780D01*
X66571904Y-78646400D01*
X66619523Y-78694019D01*
X66667142Y-78789257D01*
X66667142Y-78932114D01*
X66619523Y-79027352D01*
X66571904Y-79074971D01*
X66476666Y-79122590D01*
X66095714Y-79122590D01*
X67619523Y-79598780D02*
X67048095Y-79598780D01*
X67333809Y-79598780D02*
X67333809Y-78598780D01*
X67238571Y-78741638D01*
X67143333Y-78836876D01*
X67048095Y-78884495D01*
X68095714Y-79598780D02*
X68286190Y-79598780D01*
X68381428Y-79551161D01*
X68429047Y-79503542D01*
X68524285Y-79360685D01*
X68571904Y-79170209D01*
X68571904Y-78789257D01*
X68524285Y-78694019D01*
X68476666Y-78646400D01*
X68381428Y-78598780D01*
X68190952Y-78598780D01*
X68095714Y-78646400D01*
X68048095Y-78694019D01*
X68000476Y-78789257D01*
X68000476Y-79027352D01*
X68048095Y-79122590D01*
X68095714Y-79170209D01*
X68190952Y-79217828D01*
X68381428Y-79217828D01*
X68476666Y-79170209D01*
X68524285Y-79122590D01*
X68571904Y-79027352D01*
M02*
