G04 #@! TF.GenerationSoftware,KiCad,Pcbnew,5.1.4+dfsg1-1*
G04 #@! TF.CreationDate,2020-05-25T12:06:47-05:00*
G04 #@! TF.ProjectId,try1,74727931-2e6b-4696-9361-645f70636258,rev?*
G04 #@! TF.SameCoordinates,Original*
G04 #@! TF.FileFunction,Other,Comment*
%FSLAX46Y46*%
G04 Gerber Fmt 4.6, Leading zero omitted, Abs format (unit mm)*
G04 Created by KiCad (PCBNEW 5.1.4+dfsg1-1) date 2020-05-25 12:06:47*
%MOMM*%
%LPD*%
G04 APERTURE LIST*
%ADD10C,0.150000*%
%ADD11C,0.002000*%
G04 APERTURE END LIST*
D10*
X115530000Y-106680000D02*
G75*
G03X115530000Y-106680000I-2500000J0D01*
G01*
X115530000Y-45720000D02*
G75*
G03X115530000Y-45720000I-2500000J0D01*
G01*
X39330000Y-106680000D02*
G75*
G03X39330000Y-106680000I-2500000J0D01*
G01*
X39330000Y-45720000D02*
G75*
G03X39330000Y-45720000I-2500000J0D01*
G01*
D11*
X92832766Y-92234657D02*
X92826719Y-92240704D01*
X92808576Y-92246752D01*
X92796480Y-92246752D01*
X92778338Y-92240704D01*
X92766242Y-92228609D01*
X92760195Y-92216514D01*
X92754147Y-92192323D01*
X92754147Y-92174180D01*
X92760195Y-92149990D01*
X92766242Y-92137895D01*
X92778338Y-92125800D01*
X92796480Y-92119752D01*
X92808576Y-92119752D01*
X92826719Y-92125800D01*
X92832766Y-92131847D01*
X92905338Y-92246752D02*
X92893242Y-92240704D01*
X92887195Y-92234657D01*
X92881147Y-92222561D01*
X92881147Y-92186276D01*
X92887195Y-92174180D01*
X92893242Y-92168133D01*
X92905338Y-92162085D01*
X92923480Y-92162085D01*
X92935576Y-92168133D01*
X92941623Y-92174180D01*
X92947671Y-92186276D01*
X92947671Y-92222561D01*
X92941623Y-92234657D01*
X92935576Y-92240704D01*
X92923480Y-92246752D01*
X92905338Y-92246752D01*
X93002100Y-92162085D02*
X93002100Y-92289085D01*
X93002100Y-92168133D02*
X93014195Y-92162085D01*
X93038385Y-92162085D01*
X93050480Y-92168133D01*
X93056528Y-92174180D01*
X93062576Y-92186276D01*
X93062576Y-92222561D01*
X93056528Y-92234657D01*
X93050480Y-92240704D01*
X93038385Y-92246752D01*
X93014195Y-92246752D01*
X93002100Y-92240704D01*
X93104909Y-92162085D02*
X93135147Y-92246752D01*
X93165385Y-92162085D02*
X93135147Y-92246752D01*
X93123052Y-92276990D01*
X93117004Y-92283038D01*
X93104909Y-92289085D01*
X93213766Y-92246752D02*
X93213766Y-92162085D01*
X93213766Y-92186276D02*
X93219814Y-92174180D01*
X93225861Y-92168133D01*
X93237957Y-92162085D01*
X93250052Y-92162085D01*
X93292385Y-92246752D02*
X93292385Y-92162085D01*
X93292385Y-92119752D02*
X93286338Y-92125800D01*
X93292385Y-92131847D01*
X93298433Y-92125800D01*
X93292385Y-92119752D01*
X93292385Y-92131847D01*
X93407290Y-92162085D02*
X93407290Y-92264895D01*
X93401242Y-92276990D01*
X93395195Y-92283038D01*
X93383100Y-92289085D01*
X93364957Y-92289085D01*
X93352861Y-92283038D01*
X93407290Y-92240704D02*
X93395195Y-92246752D01*
X93371004Y-92246752D01*
X93358909Y-92240704D01*
X93352861Y-92234657D01*
X93346814Y-92222561D01*
X93346814Y-92186276D01*
X93352861Y-92174180D01*
X93358909Y-92168133D01*
X93371004Y-92162085D01*
X93395195Y-92162085D01*
X93407290Y-92168133D01*
X93467766Y-92246752D02*
X93467766Y-92119752D01*
X93522195Y-92246752D02*
X93522195Y-92180228D01*
X93516147Y-92168133D01*
X93504052Y-92162085D01*
X93485909Y-92162085D01*
X93473814Y-92168133D01*
X93467766Y-92174180D01*
X93564528Y-92162085D02*
X93612909Y-92162085D01*
X93582671Y-92119752D02*
X93582671Y-92228609D01*
X93588719Y-92240704D01*
X93600814Y-92246752D01*
X93612909Y-92246752D01*
X93745957Y-92131847D02*
X93752004Y-92125800D01*
X93764100Y-92119752D01*
X93794338Y-92119752D01*
X93806433Y-92125800D01*
X93812480Y-92131847D01*
X93818528Y-92143942D01*
X93818528Y-92156038D01*
X93812480Y-92174180D01*
X93739909Y-92246752D01*
X93818528Y-92246752D01*
X93897147Y-92119752D02*
X93909242Y-92119752D01*
X93921338Y-92125800D01*
X93927385Y-92131847D01*
X93933433Y-92143942D01*
X93939480Y-92168133D01*
X93939480Y-92198371D01*
X93933433Y-92222561D01*
X93927385Y-92234657D01*
X93921338Y-92240704D01*
X93909242Y-92246752D01*
X93897147Y-92246752D01*
X93885052Y-92240704D01*
X93879004Y-92234657D01*
X93872957Y-92222561D01*
X93866909Y-92198371D01*
X93866909Y-92168133D01*
X93872957Y-92143942D01*
X93879004Y-92131847D01*
X93885052Y-92125800D01*
X93897147Y-92119752D01*
X94060433Y-92246752D02*
X93987861Y-92246752D01*
X94024147Y-92246752D02*
X94024147Y-92119752D01*
X94012052Y-92137895D01*
X93999957Y-92149990D01*
X93987861Y-92156038D01*
X94169290Y-92119752D02*
X94145100Y-92119752D01*
X94133004Y-92125800D01*
X94126957Y-92131847D01*
X94114861Y-92149990D01*
X94108814Y-92174180D01*
X94108814Y-92222561D01*
X94114861Y-92234657D01*
X94120909Y-92240704D01*
X94133004Y-92246752D01*
X94157195Y-92246752D01*
X94169290Y-92240704D01*
X94175338Y-92234657D01*
X94181385Y-92222561D01*
X94181385Y-92192323D01*
X94175338Y-92180228D01*
X94169290Y-92174180D01*
X94157195Y-92168133D01*
X94133004Y-92168133D01*
X94120909Y-92174180D01*
X94114861Y-92180228D01*
X94108814Y-92192323D01*
X94326528Y-92210466D02*
X94387004Y-92210466D01*
X94314433Y-92246752D02*
X94356766Y-92119752D01*
X94399100Y-92246752D01*
X94495861Y-92240704D02*
X94483766Y-92246752D01*
X94459576Y-92246752D01*
X94447480Y-92240704D01*
X94441433Y-92234657D01*
X94435385Y-92222561D01*
X94435385Y-92186276D01*
X94441433Y-92174180D01*
X94447480Y-92168133D01*
X94459576Y-92162085D01*
X94483766Y-92162085D01*
X94495861Y-92168133D01*
X94604719Y-92240704D02*
X94592623Y-92246752D01*
X94568433Y-92246752D01*
X94556338Y-92240704D01*
X94550290Y-92234657D01*
X94544242Y-92222561D01*
X94544242Y-92186276D01*
X94550290Y-92174180D01*
X94556338Y-92168133D01*
X94568433Y-92162085D01*
X94592623Y-92162085D01*
X94604719Y-92168133D01*
X94707528Y-92240704D02*
X94695433Y-92246752D01*
X94671242Y-92246752D01*
X94659147Y-92240704D01*
X94653100Y-92228609D01*
X94653100Y-92180228D01*
X94659147Y-92168133D01*
X94671242Y-92162085D01*
X94695433Y-92162085D01*
X94707528Y-92168133D01*
X94713576Y-92180228D01*
X94713576Y-92192323D01*
X94653100Y-92204419D01*
X94786147Y-92246752D02*
X94774052Y-92240704D01*
X94768004Y-92228609D01*
X94768004Y-92119752D01*
X94882909Y-92240704D02*
X94870814Y-92246752D01*
X94846623Y-92246752D01*
X94834528Y-92240704D01*
X94828480Y-92228609D01*
X94828480Y-92180228D01*
X94834528Y-92168133D01*
X94846623Y-92162085D01*
X94870814Y-92162085D01*
X94882909Y-92168133D01*
X94888957Y-92180228D01*
X94888957Y-92192323D01*
X94828480Y-92204419D01*
X94943385Y-92246752D02*
X94943385Y-92162085D01*
X94943385Y-92186276D02*
X94949433Y-92174180D01*
X94955480Y-92168133D01*
X94967576Y-92162085D01*
X94979671Y-92162085D01*
X95076433Y-92246752D02*
X95076433Y-92180228D01*
X95070385Y-92168133D01*
X95058290Y-92162085D01*
X95034100Y-92162085D01*
X95022004Y-92168133D01*
X95076433Y-92240704D02*
X95064338Y-92246752D01*
X95034100Y-92246752D01*
X95022004Y-92240704D01*
X95015957Y-92228609D01*
X95015957Y-92216514D01*
X95022004Y-92204419D01*
X95034100Y-92198371D01*
X95064338Y-92198371D01*
X95076433Y-92192323D01*
X95118766Y-92162085D02*
X95167147Y-92162085D01*
X95136909Y-92119752D02*
X95136909Y-92228609D01*
X95142957Y-92240704D01*
X95155052Y-92246752D01*
X95167147Y-92246752D01*
X95257861Y-92240704D02*
X95245766Y-92246752D01*
X95221576Y-92246752D01*
X95209480Y-92240704D01*
X95203433Y-92228609D01*
X95203433Y-92180228D01*
X95209480Y-92168133D01*
X95221576Y-92162085D01*
X95245766Y-92162085D01*
X95257861Y-92168133D01*
X95263909Y-92180228D01*
X95263909Y-92192323D01*
X95203433Y-92204419D01*
X95372766Y-92246752D02*
X95372766Y-92119752D01*
X95372766Y-92240704D02*
X95360671Y-92246752D01*
X95336480Y-92246752D01*
X95324385Y-92240704D01*
X95318338Y-92234657D01*
X95312290Y-92222561D01*
X95312290Y-92186276D01*
X95318338Y-92174180D01*
X95324385Y-92168133D01*
X95336480Y-92162085D01*
X95360671Y-92162085D01*
X95372766Y-92168133D01*
X95530004Y-92246752D02*
X95530004Y-92119752D01*
X95560242Y-92119752D01*
X95578385Y-92125800D01*
X95590480Y-92137895D01*
X95596528Y-92149990D01*
X95602576Y-92174180D01*
X95602576Y-92192323D01*
X95596528Y-92216514D01*
X95590480Y-92228609D01*
X95578385Y-92240704D01*
X95560242Y-92246752D01*
X95530004Y-92246752D01*
X95705385Y-92240704D02*
X95693290Y-92246752D01*
X95669100Y-92246752D01*
X95657004Y-92240704D01*
X95650957Y-92228609D01*
X95650957Y-92180228D01*
X95657004Y-92168133D01*
X95669100Y-92162085D01*
X95693290Y-92162085D01*
X95705385Y-92168133D01*
X95711433Y-92180228D01*
X95711433Y-92192323D01*
X95650957Y-92204419D01*
X95759814Y-92240704D02*
X95771909Y-92246752D01*
X95796100Y-92246752D01*
X95808195Y-92240704D01*
X95814242Y-92228609D01*
X95814242Y-92222561D01*
X95808195Y-92210466D01*
X95796100Y-92204419D01*
X95777957Y-92204419D01*
X95765861Y-92198371D01*
X95759814Y-92186276D01*
X95759814Y-92180228D01*
X95765861Y-92168133D01*
X95777957Y-92162085D01*
X95796100Y-92162085D01*
X95808195Y-92168133D01*
X95868671Y-92246752D02*
X95868671Y-92162085D01*
X95868671Y-92119752D02*
X95862623Y-92125800D01*
X95868671Y-92131847D01*
X95874719Y-92125800D01*
X95868671Y-92119752D01*
X95868671Y-92131847D01*
X95983576Y-92162085D02*
X95983576Y-92264895D01*
X95977528Y-92276990D01*
X95971480Y-92283038D01*
X95959385Y-92289085D01*
X95941242Y-92289085D01*
X95929147Y-92283038D01*
X95983576Y-92240704D02*
X95971480Y-92246752D01*
X95947290Y-92246752D01*
X95935195Y-92240704D01*
X95929147Y-92234657D01*
X95923100Y-92222561D01*
X95923100Y-92186276D01*
X95929147Y-92174180D01*
X95935195Y-92168133D01*
X95947290Y-92162085D01*
X95971480Y-92162085D01*
X95983576Y-92168133D01*
X96044052Y-92162085D02*
X96044052Y-92246752D01*
X96044052Y-92174180D02*
X96050100Y-92168133D01*
X96062195Y-92162085D01*
X96080338Y-92162085D01*
X96092433Y-92168133D01*
X96098480Y-92180228D01*
X96098480Y-92246752D01*
X96152909Y-92240704D02*
X96165004Y-92246752D01*
X96189195Y-92246752D01*
X96201290Y-92240704D01*
X96207338Y-92228609D01*
X96207338Y-92222561D01*
X96201290Y-92210466D01*
X96189195Y-92204419D01*
X96171052Y-92204419D01*
X96158957Y-92198371D01*
X96152909Y-92186276D01*
X96152909Y-92180228D01*
X96158957Y-92168133D01*
X96171052Y-92162085D01*
X96189195Y-92162085D01*
X96201290Y-92168133D01*
X96261766Y-92234657D02*
X96267814Y-92240704D01*
X96261766Y-92246752D01*
X96255719Y-92240704D01*
X96261766Y-92234657D01*
X96261766Y-92246752D01*
X96412957Y-92210466D02*
X96473433Y-92210466D01*
X96400861Y-92246752D02*
X96443195Y-92119752D01*
X96485528Y-92246752D01*
X96546004Y-92246752D02*
X96533909Y-92240704D01*
X96527861Y-92228609D01*
X96527861Y-92119752D01*
X96612528Y-92246752D02*
X96600433Y-92240704D01*
X96594385Y-92228609D01*
X96594385Y-92119752D01*
X96757671Y-92246752D02*
X96757671Y-92162085D01*
X96757671Y-92186276D02*
X96763719Y-92174180D01*
X96769766Y-92168133D01*
X96781861Y-92162085D01*
X96793957Y-92162085D01*
X96836290Y-92246752D02*
X96836290Y-92162085D01*
X96836290Y-92119752D02*
X96830242Y-92125800D01*
X96836290Y-92131847D01*
X96842338Y-92125800D01*
X96836290Y-92119752D01*
X96836290Y-92131847D01*
X96951195Y-92162085D02*
X96951195Y-92264895D01*
X96945147Y-92276990D01*
X96939100Y-92283038D01*
X96927004Y-92289085D01*
X96908861Y-92289085D01*
X96896766Y-92283038D01*
X96951195Y-92240704D02*
X96939100Y-92246752D01*
X96914909Y-92246752D01*
X96902814Y-92240704D01*
X96896766Y-92234657D01*
X96890719Y-92222561D01*
X96890719Y-92186276D01*
X96896766Y-92174180D01*
X96902814Y-92168133D01*
X96914909Y-92162085D01*
X96939100Y-92162085D01*
X96951195Y-92168133D01*
X97011671Y-92246752D02*
X97011671Y-92119752D01*
X97066100Y-92246752D02*
X97066100Y-92180228D01*
X97060052Y-92168133D01*
X97047957Y-92162085D01*
X97029814Y-92162085D01*
X97017719Y-92168133D01*
X97011671Y-92174180D01*
X97108433Y-92162085D02*
X97156814Y-92162085D01*
X97126576Y-92119752D02*
X97126576Y-92228609D01*
X97132623Y-92240704D01*
X97144719Y-92246752D01*
X97156814Y-92246752D01*
X97193100Y-92240704D02*
X97205195Y-92246752D01*
X97229385Y-92246752D01*
X97241480Y-92240704D01*
X97247528Y-92228609D01*
X97247528Y-92222561D01*
X97241480Y-92210466D01*
X97229385Y-92204419D01*
X97211242Y-92204419D01*
X97199147Y-92198371D01*
X97193100Y-92186276D01*
X97193100Y-92180228D01*
X97199147Y-92168133D01*
X97211242Y-92162085D01*
X97229385Y-92162085D01*
X97241480Y-92168133D01*
X97398719Y-92246752D02*
X97398719Y-92162085D01*
X97398719Y-92186276D02*
X97404766Y-92174180D01*
X97410814Y-92168133D01*
X97422909Y-92162085D01*
X97435004Y-92162085D01*
X97525719Y-92240704D02*
X97513623Y-92246752D01*
X97489433Y-92246752D01*
X97477338Y-92240704D01*
X97471290Y-92228609D01*
X97471290Y-92180228D01*
X97477338Y-92168133D01*
X97489433Y-92162085D01*
X97513623Y-92162085D01*
X97525719Y-92168133D01*
X97531766Y-92180228D01*
X97531766Y-92192323D01*
X97471290Y-92204419D01*
X97580147Y-92240704D02*
X97592242Y-92246752D01*
X97616433Y-92246752D01*
X97628528Y-92240704D01*
X97634576Y-92228609D01*
X97634576Y-92222561D01*
X97628528Y-92210466D01*
X97616433Y-92204419D01*
X97598290Y-92204419D01*
X97586195Y-92198371D01*
X97580147Y-92186276D01*
X97580147Y-92180228D01*
X97586195Y-92168133D01*
X97598290Y-92162085D01*
X97616433Y-92162085D01*
X97628528Y-92168133D01*
X97737385Y-92240704D02*
X97725290Y-92246752D01*
X97701100Y-92246752D01*
X97689004Y-92240704D01*
X97682957Y-92228609D01*
X97682957Y-92180228D01*
X97689004Y-92168133D01*
X97701100Y-92162085D01*
X97725290Y-92162085D01*
X97737385Y-92168133D01*
X97743433Y-92180228D01*
X97743433Y-92192323D01*
X97682957Y-92204419D01*
X97797861Y-92246752D02*
X97797861Y-92162085D01*
X97797861Y-92186276D02*
X97803909Y-92174180D01*
X97809957Y-92168133D01*
X97822052Y-92162085D01*
X97834147Y-92162085D01*
X97864385Y-92162085D02*
X97894623Y-92246752D01*
X97924861Y-92162085D01*
X98021623Y-92240704D02*
X98009528Y-92246752D01*
X97985338Y-92246752D01*
X97973242Y-92240704D01*
X97967195Y-92228609D01*
X97967195Y-92180228D01*
X97973242Y-92168133D01*
X97985338Y-92162085D01*
X98009528Y-92162085D01*
X98021623Y-92168133D01*
X98027671Y-92180228D01*
X98027671Y-92192323D01*
X97967195Y-92204419D01*
X98136528Y-92246752D02*
X98136528Y-92119752D01*
X98136528Y-92240704D02*
X98124433Y-92246752D01*
X98100242Y-92246752D01*
X98088147Y-92240704D01*
X98082100Y-92234657D01*
X98076052Y-92222561D01*
X98076052Y-92186276D01*
X98082100Y-92174180D01*
X98088147Y-92168133D01*
X98100242Y-92162085D01*
X98124433Y-92162085D01*
X98136528Y-92168133D01*
X98197004Y-92234657D02*
X98203052Y-92240704D01*
X98197004Y-92246752D01*
X98190957Y-92240704D01*
X98197004Y-92234657D01*
X98197004Y-92246752D01*
D10*
X46333161Y-64819161D02*
X46476019Y-64866780D01*
X46714114Y-64866780D01*
X46809352Y-64819161D01*
X46856971Y-64771542D01*
X46904590Y-64676304D01*
X46904590Y-64581066D01*
X46856971Y-64485828D01*
X46809352Y-64438209D01*
X46714114Y-64390590D01*
X46523638Y-64342971D01*
X46428400Y-64295352D01*
X46380780Y-64247733D01*
X46333161Y-64152495D01*
X46333161Y-64057257D01*
X46380780Y-63962019D01*
X46428400Y-63914400D01*
X46523638Y-63866780D01*
X46761733Y-63866780D01*
X46904590Y-63914400D01*
X47333161Y-64866780D02*
X47333161Y-63866780D01*
X47571257Y-63866780D01*
X47714114Y-63914400D01*
X47809352Y-64009638D01*
X47856971Y-64104876D01*
X47904590Y-64295352D01*
X47904590Y-64438209D01*
X47856971Y-64628685D01*
X47809352Y-64723923D01*
X47714114Y-64819161D01*
X47571257Y-64866780D01*
X47333161Y-64866780D01*
X49666495Y-64771542D02*
X49618876Y-64819161D01*
X49476019Y-64866780D01*
X49380780Y-64866780D01*
X49237923Y-64819161D01*
X49142685Y-64723923D01*
X49095066Y-64628685D01*
X49047447Y-64438209D01*
X49047447Y-64295352D01*
X49095066Y-64104876D01*
X49142685Y-64009638D01*
X49237923Y-63914400D01*
X49380780Y-63866780D01*
X49476019Y-63866780D01*
X49618876Y-63914400D01*
X49666495Y-63962019D01*
X50047447Y-64581066D02*
X50523638Y-64581066D01*
X49952209Y-64866780D02*
X50285542Y-63866780D01*
X50618876Y-64866780D01*
X51523638Y-64866780D02*
X51190304Y-64390590D01*
X50952209Y-64866780D02*
X50952209Y-63866780D01*
X51333161Y-63866780D01*
X51428400Y-63914400D01*
X51476019Y-63962019D01*
X51523638Y-64057257D01*
X51523638Y-64200114D01*
X51476019Y-64295352D01*
X51428400Y-64342971D01*
X51333161Y-64390590D01*
X50952209Y-64390590D01*
X51952209Y-64866780D02*
X51952209Y-63866780D01*
X52190304Y-63866780D01*
X52333161Y-63914400D01*
X52428400Y-64009638D01*
X52476019Y-64104876D01*
X52523638Y-64295352D01*
X52523638Y-64438209D01*
X52476019Y-64628685D01*
X52428400Y-64723923D01*
X52333161Y-64819161D01*
X52190304Y-64866780D01*
X51952209Y-64866780D01*
M02*
