M48
; DRILL file {KiCad 5.1.4+dfsg1-1} date Mon 25 May 2020 12:06:41 -05
; FORMAT={2:4/ absolute / inch / suppress leading zeros}
; #@! TF.CreationDate,2020-05-25T12:06:41-05:00
; #@! TF.GenerationSoftware,Kicad,Pcbnew,5.1.4+dfsg1-1
; #@! TF.FileFunction,Plated,1,2,PTH
FMAT,2
INCH,TZ
T1C0.0098
T2C0.0217
T3C0.0236
T4C0.0300
T5C0.0315
T6C0.0335
T7C0.0362
T8C0.0394
T9C0.0906
T10C0.0984
%
G90
G05
T1
X15040Y-28900
X15079Y-36732
X15511Y-31079
X15720Y-31420
X16165Y-31775
X16427Y-31772
X16861Y-28868
X17028Y-29035
X17587Y-31597
X17748Y-30604
X17853Y-31571
X17913Y-31339
X19573Y-24473
X19843Y-22283
X20748Y-22283
X21161Y-35217
X21203Y-34916
X21342Y-34708
X23160Y-37280
X24780Y-34600
X26104Y-35864
X26420Y-35180
X26969Y-41614
X26973Y-35020
X28560Y-33680
X29411Y-37084
X29449Y-36850
X30242Y-28465
X30245Y-27925
X30246Y-28218
X30309Y-30107
X30579Y-39213
X30866Y-33780
X31102Y-33780
X31492Y-28124
X32638Y-36280
X33071Y-28858
X33712Y-33240
X36046Y-29914
X36095Y-29667
X36339Y-32323
X36895Y-30150
X37283Y-31457
X38555Y-26870
X38890Y-32682
X39094Y-28839
X39324Y-28265
X41496Y-27677
X42598Y-21102
T3
X14370Y-21161
X14370Y-21654
X14370Y-22146
X14370Y-22638
X14646Y-25157
X14646Y-25630
X14646Y-26102
X15059Y-21161
X15059Y-21654
X15059Y-22146
X15059Y-22638
X15118Y-25157
X15118Y-25630
X15118Y-26142
X15748Y-21161
X15748Y-21654
X15748Y-22146
X15748Y-22638
X15748Y-37402
X15748Y-37953
X16299Y-36693
X16299Y-37402
X16299Y-37953
X16437Y-21161
X16437Y-21654
X16437Y-22146
X16437Y-22638
X17244Y-32362
X17244Y-32913
X17244Y-33622
X17244Y-34173
X17244Y-34882
X17244Y-35433
X17244Y-36142
X17244Y-36693
X17244Y-37402
X17244Y-37953
X17559Y-26614
X17559Y-27165
X17559Y-27874
X17559Y-28425
X17795Y-32362
X17795Y-32913
X17795Y-33622
X17795Y-34173
X17795Y-34882
X17795Y-35433
X17795Y-36142
X17795Y-36693
X17795Y-37402
X17795Y-37953
X18110Y-26614
X18110Y-27165
X18110Y-27874
X18110Y-28425
X18740Y-33622
X18740Y-34173
X18740Y-34882
X18740Y-35433
X18740Y-36142
X18740Y-36693
X18740Y-37402
X18740Y-37953
X18976Y-26614
X18976Y-27165
X18976Y-27874
X18976Y-28425
X18976Y-29843
X18976Y-30394
X18976Y-31102
X18976Y-31654
X19291Y-34173
X19291Y-34882
X19291Y-35433
X19291Y-36142
X19291Y-36693
X19291Y-37402
X19291Y-37953
X19528Y-26614
X19528Y-27165
X19528Y-27874
X19528Y-29843
X19528Y-30394
X19528Y-31102
X19528Y-31654
X19528Y-32362
X20236Y-34882
X20236Y-35433
X20236Y-36142
X20236Y-36772
X20236Y-37402
X20236Y-37953
X20472Y-28583
X20472Y-29134
X20472Y-29843
X20472Y-30394
X20472Y-31102
X20472Y-31654
X20472Y-32362
X20472Y-32913
X20787Y-35433
X20787Y-36142
X20787Y-36772
X20787Y-37402
X20787Y-37953
X21024Y-27874
X21024Y-28583
X21024Y-29134
X21024Y-29843
X21024Y-30394
X21024Y-31102
X21024Y-31654
X21024Y-32362
X21024Y-32913
X21024Y-33543
X22598Y-37717
X22598Y-38425
X22598Y-39055
X22677Y-27087
X22677Y-27638
X22677Y-28346
X22677Y-28898
X22677Y-29606
X22677Y-30157
X22677Y-30866
X22677Y-31417
X22677Y-32126
X22677Y-32677
X22677Y-33386
X22677Y-33937
X22677Y-34646
X22677Y-35197
X24291Y-40472
X24902Y-27362
X24902Y-27756
X24902Y-28150
X24961Y-40472
X25295Y-27362
X25295Y-27756
X25295Y-28150
X25472Y-40472
X25591Y-38583
X25591Y-38976
X25591Y-39370
X25689Y-27362
X25689Y-27756
X25689Y-28150
X25748Y-20236
X25748Y-20945
X25748Y-21654
X25886Y-32697
X25886Y-33169
X25886Y-33661
X25886Y-34154
X25984Y-38583
X25984Y-38976
X25984Y-39370
X26457Y-39685
X26457Y-40079
X26457Y-40472
X26476Y-32697
X26476Y-33169
X26476Y-33661
X26476Y-34154
X26614Y-20236
X26614Y-20945
X26634Y-21654
X27008Y-38583
X27008Y-38976
X27008Y-39370
X27067Y-32697
X27067Y-33169
X27067Y-33661
X27067Y-34154
X27165Y-42520
X27461Y-29409
X27461Y-29902
X27461Y-30709
X27461Y-31181
X27480Y-20236
X27480Y-20945
X27480Y-21654
X27854Y-29409
X27854Y-29902
X27854Y-30709
X27854Y-31181
X27854Y-42520
X27992Y-33268
X28189Y-39449
X28248Y-29409
X28248Y-29902
X28248Y-30709
X28248Y-31181
X28346Y-20236
X28346Y-20945
X28346Y-21654
X28346Y-37913
X28445Y-42520
X28583Y-39449
X28819Y-24094
X28819Y-37480
X28976Y-39449
X29094Y-36024
X29134Y-34961
X29134Y-35433
X29134Y-42520
X29291Y-37480
X29370Y-39449
X29370Y-41535
X29764Y-34961
X29764Y-35433
X29764Y-35906
X29764Y-37480
X29764Y-39449
X29823Y-42520
X30039Y-41496
X30157Y-39449
X30236Y-37008
X30236Y-37480
X30394Y-34961
X30394Y-35433
X30512Y-42520
X30551Y-26496
X30630Y-41496
X31201Y-42520
X31260Y-39449
X31260Y-41496
X31339Y-36063
X31594Y-30768
X31732Y-39449
X31791Y-42520
X32362Y-41181
X32382Y-42520
X32677Y-17618
X32677Y-18110
X33013Y-37423
X33150Y-21969
X33150Y-22520
X33150Y-23228
X33150Y-30787
X33268Y-17618
X33268Y-18110
X33346Y-29252
X33346Y-29606
X33465Y-37795
X33622Y-22520
X33622Y-23228
X33622Y-30787
X33701Y-37323
X33819Y-29252
X33819Y-29606
X33819Y-34055
X33957Y-35531
X33957Y-36122
X34094Y-30787
X34094Y-37795
X34252Y-29252
X34252Y-29606
X34331Y-37323
X34547Y-35531
X34547Y-36122
X34646Y-30984
X36161Y-25827
X36611Y-28265
X36732Y-29528
X37008Y-36929
X37165Y-29528
X37244Y-17795
X37244Y-18504
X37244Y-19055
X37244Y-19764
X37244Y-20315
X37480Y-32047
X37621Y-33285
X37756Y-25177
X37795Y-17795
X37795Y-18504
X37795Y-19055
X37795Y-19764
X37795Y-20315
X38583Y-30236
X38583Y-31496
X38622Y-24035
X39104Y-33028
X39173Y-30906
X39528Y-22047
X39606Y-28780
X39764Y-30315
X39764Y-31496
X39865Y-34205
X39980Y-24902
X39980Y-25394
X39980Y-25886
X40079Y-22047
X40411Y-33382
X40551Y-37106
X40571Y-24902
X40571Y-25394
X40571Y-25886
X40630Y-22047
X40630Y-34961
X40630Y-35433
X40630Y-35984
X40630Y-36535
X41043Y-37598
X41068Y-29282
X41102Y-35433
X41102Y-35984
X41102Y-36516
X41181Y-22047
X41240Y-37106
X41535Y-38091
X41614Y-23012
X41614Y-23504
X41614Y-23996
X41634Y-24902
X41634Y-25394
X41634Y-25886
X41732Y-22047
X41732Y-37598
X41834Y-27420
X42224Y-24902
X42224Y-25394
X42224Y-25886
X42224Y-38091
X42264Y-23012
X42264Y-23504
X42264Y-23996
X42283Y-22047
X42677Y-38425
X43209Y-40157
X43209Y-40630
X43406Y-20079
X43701Y-40157
X43701Y-40630
X43799Y-20079
X44193Y-40157
X44193Y-40630
X44291Y-20079
X44291Y-20472
X44291Y-20866
X44291Y-21260
X44783Y-20079
X44783Y-20472
X44783Y-20866
X44783Y-21260
T4
X14494Y-27149
X14494Y-27936
X14494Y-28724
X14494Y-29511
X14494Y-30299
X14494Y-31086
X14494Y-31873
X14494Y-32661
X14494Y-33448
X14494Y-34236
X14494Y-35023
X14494Y-35810
X14494Y-36598
X14494Y-37385
X14494Y-38173
X14494Y-38960
X24100Y-27149
X24100Y-27936
X24100Y-28724
X24100Y-29511
X24100Y-30299
X24100Y-31086
X24100Y-31873
X24100Y-32661
X24100Y-33448
X24100Y-34236
X24100Y-35023
X24100Y-35810
X24100Y-36598
X24100Y-37385
X24100Y-38173
X24100Y-38960
T5
X21673Y-25276
X22106Y-38484
X24843Y-25906
X28406Y-25256
X38091Y-36319
T7
X18636Y-21412
X19620Y-21412
X20408Y-21412
X21392Y-21412
T8
X43858Y-29134
X43858Y-30134
X43858Y-31134
X43858Y-32134
X43858Y-33134
X43858Y-34134
X43858Y-35134
X43858Y-36134
X43858Y-37134
X43858Y-38134
X43858Y-39134
X44858Y-29134
X44858Y-30134
X44858Y-31134
X44858Y-32134
X44858Y-33134
X44858Y-34134
X44858Y-35134
X44858Y-36134
X44858Y-37134
X44858Y-38134
X44858Y-39134
X33895Y-41925
X34895Y-41925
X35895Y-41925
X36895Y-41925
X37895Y-41925
X38895Y-41925
X39895Y-41925
X40895Y-41925
X14680Y-24200
X15680Y-24200
X16680Y-24200
T9
X17427Y-20345
X22601Y-20345
T10
X14500Y-42000
X14500Y-18000
X44500Y-42000
X44500Y-18000
T2
G00X38774Y-17360
M15
G01X38774Y-17104
M16
G05
G00X41826Y-17360
M15
G01X41826Y-17104
M16
G05
T6
G00X38833Y-18837
M15
G01X38833Y-18620
M16
G05
G00X41767Y-18837
M15
G01X41767Y-18620
M16
G05
T0
M30
