G04 #@! TF.GenerationSoftware,KiCad,Pcbnew,5.1.4+dfsg1-1*
G04 #@! TF.CreationDate,2020-05-25T12:06:47-05:00*
G04 #@! TF.ProjectId,try1,74727931-2e6b-4696-9361-645f70636258,rev?*
G04 #@! TF.SameCoordinates,Original*
G04 #@! TF.FileFunction,Soldermask,Bot*
G04 #@! TF.FilePolarity,Negative*
%FSLAX46Y46*%
G04 Gerber Fmt 4.6, Leading zero omitted, Abs format (unit mm)*
G04 Created by KiCad (PCBNEW 5.1.4+dfsg1-1) date 2020-05-25 12:06:47*
%MOMM*%
%LPD*%
G04 APERTURE LIST*
%ADD10C,0.100000*%
G04 APERTURE END LIST*
D10*
G36*
X113774098Y-104227033D02*
G01*
X114238350Y-104419332D01*
X114238352Y-104419333D01*
X114656168Y-104698509D01*
X115011491Y-105053832D01*
X115290667Y-105471648D01*
X115290668Y-105471650D01*
X115482967Y-105935902D01*
X115581000Y-106428747D01*
X115581000Y-106931253D01*
X115482967Y-107424098D01*
X115290668Y-107888350D01*
X115290667Y-107888352D01*
X115011491Y-108306168D01*
X114656168Y-108661491D01*
X114238352Y-108940667D01*
X114238351Y-108940668D01*
X114238350Y-108940668D01*
X113774098Y-109132967D01*
X113281253Y-109231000D01*
X112778747Y-109231000D01*
X112285902Y-109132967D01*
X111821650Y-108940668D01*
X111821649Y-108940668D01*
X111821648Y-108940667D01*
X111403832Y-108661491D01*
X111048509Y-108306168D01*
X110769333Y-107888352D01*
X110769332Y-107888350D01*
X110577033Y-107424098D01*
X110479000Y-106931253D01*
X110479000Y-106428747D01*
X110577033Y-105935902D01*
X110769332Y-105471650D01*
X110769333Y-105471648D01*
X111048509Y-105053832D01*
X111403832Y-104698509D01*
X111821648Y-104419333D01*
X111821650Y-104419332D01*
X112285902Y-104227033D01*
X112778747Y-104129000D01*
X113281253Y-104129000D01*
X113774098Y-104227033D01*
X113774098Y-104227033D01*
G37*
G36*
X37574098Y-104227033D02*
G01*
X38038350Y-104419332D01*
X38038352Y-104419333D01*
X38456168Y-104698509D01*
X38811491Y-105053832D01*
X39090667Y-105471648D01*
X39090668Y-105471650D01*
X39282967Y-105935902D01*
X39381000Y-106428747D01*
X39381000Y-106931253D01*
X39282967Y-107424098D01*
X39090668Y-107888350D01*
X39090667Y-107888352D01*
X38811491Y-108306168D01*
X38456168Y-108661491D01*
X38038352Y-108940667D01*
X38038351Y-108940668D01*
X38038350Y-108940668D01*
X37574098Y-109132967D01*
X37081253Y-109231000D01*
X36578747Y-109231000D01*
X36085902Y-109132967D01*
X35621650Y-108940668D01*
X35621649Y-108940668D01*
X35621648Y-108940667D01*
X35203832Y-108661491D01*
X34848509Y-108306168D01*
X34569333Y-107888352D01*
X34569332Y-107888350D01*
X34377033Y-107424098D01*
X34279000Y-106931253D01*
X34279000Y-106428747D01*
X34377033Y-105935902D01*
X34569332Y-105471650D01*
X34569333Y-105471648D01*
X34848509Y-105053832D01*
X35203832Y-104698509D01*
X35621648Y-104419333D01*
X35621650Y-104419332D01*
X36085902Y-104227033D01*
X36578747Y-104129000D01*
X37081253Y-104129000D01*
X37574098Y-104227033D01*
X37574098Y-104227033D01*
G37*
G36*
X104774300Y-107390500D02*
G01*
X102972300Y-107390500D01*
X102972300Y-105588500D01*
X104774300Y-105588500D01*
X104774300Y-107390500D01*
X104774300Y-107390500D01*
G37*
G36*
X96363743Y-105595019D02*
G01*
X96429927Y-105601537D01*
X96599766Y-105653057D01*
X96756291Y-105736722D01*
X96792029Y-105766052D01*
X96893486Y-105849314D01*
X96964545Y-105935901D01*
X97006078Y-105986509D01*
X97089743Y-106143034D01*
X97141263Y-106312873D01*
X97158659Y-106489500D01*
X97141263Y-106666127D01*
X97089743Y-106835966D01*
X97006078Y-106992491D01*
X96976748Y-107028229D01*
X96893486Y-107129686D01*
X96792029Y-107212948D01*
X96756291Y-107242278D01*
X96599766Y-107325943D01*
X96429927Y-107377463D01*
X96363743Y-107383981D01*
X96297560Y-107390500D01*
X96209040Y-107390500D01*
X96142857Y-107383981D01*
X96076673Y-107377463D01*
X95906834Y-107325943D01*
X95750309Y-107242278D01*
X95714571Y-107212948D01*
X95613114Y-107129686D01*
X95529852Y-107028229D01*
X95500522Y-106992491D01*
X95416857Y-106835966D01*
X95365337Y-106666127D01*
X95347941Y-106489500D01*
X95365337Y-106312873D01*
X95416857Y-106143034D01*
X95500522Y-105986509D01*
X95542055Y-105935901D01*
X95613114Y-105849314D01*
X95714571Y-105766052D01*
X95750309Y-105736722D01*
X95906834Y-105653057D01*
X96076673Y-105601537D01*
X96142858Y-105595018D01*
X96209040Y-105588500D01*
X96297560Y-105588500D01*
X96363743Y-105595019D01*
X96363743Y-105595019D01*
G37*
G36*
X86203743Y-105595019D02*
G01*
X86269927Y-105601537D01*
X86439766Y-105653057D01*
X86596291Y-105736722D01*
X86632029Y-105766052D01*
X86733486Y-105849314D01*
X86804545Y-105935901D01*
X86846078Y-105986509D01*
X86929743Y-106143034D01*
X86981263Y-106312873D01*
X86998659Y-106489500D01*
X86981263Y-106666127D01*
X86929743Y-106835966D01*
X86846078Y-106992491D01*
X86816748Y-107028229D01*
X86733486Y-107129686D01*
X86632029Y-107212948D01*
X86596291Y-107242278D01*
X86439766Y-107325943D01*
X86269927Y-107377463D01*
X86203743Y-107383981D01*
X86137560Y-107390500D01*
X86049040Y-107390500D01*
X85982857Y-107383981D01*
X85916673Y-107377463D01*
X85746834Y-107325943D01*
X85590309Y-107242278D01*
X85554571Y-107212948D01*
X85453114Y-107129686D01*
X85369852Y-107028229D01*
X85340522Y-106992491D01*
X85256857Y-106835966D01*
X85205337Y-106666127D01*
X85187941Y-106489500D01*
X85205337Y-106312873D01*
X85256857Y-106143034D01*
X85340522Y-105986509D01*
X85382055Y-105935901D01*
X85453114Y-105849314D01*
X85554571Y-105766052D01*
X85590309Y-105736722D01*
X85746834Y-105653057D01*
X85916673Y-105601537D01*
X85982858Y-105595018D01*
X86049040Y-105588500D01*
X86137560Y-105588500D01*
X86203743Y-105595019D01*
X86203743Y-105595019D01*
G37*
G36*
X88743743Y-105595019D02*
G01*
X88809927Y-105601537D01*
X88979766Y-105653057D01*
X89136291Y-105736722D01*
X89172029Y-105766052D01*
X89273486Y-105849314D01*
X89344545Y-105935901D01*
X89386078Y-105986509D01*
X89469743Y-106143034D01*
X89521263Y-106312873D01*
X89538659Y-106489500D01*
X89521263Y-106666127D01*
X89469743Y-106835966D01*
X89386078Y-106992491D01*
X89356748Y-107028229D01*
X89273486Y-107129686D01*
X89172029Y-107212948D01*
X89136291Y-107242278D01*
X88979766Y-107325943D01*
X88809927Y-107377463D01*
X88743743Y-107383981D01*
X88677560Y-107390500D01*
X88589040Y-107390500D01*
X88522857Y-107383981D01*
X88456673Y-107377463D01*
X88286834Y-107325943D01*
X88130309Y-107242278D01*
X88094571Y-107212948D01*
X87993114Y-107129686D01*
X87909852Y-107028229D01*
X87880522Y-106992491D01*
X87796857Y-106835966D01*
X87745337Y-106666127D01*
X87727941Y-106489500D01*
X87745337Y-106312873D01*
X87796857Y-106143034D01*
X87880522Y-105986509D01*
X87922055Y-105935901D01*
X87993114Y-105849314D01*
X88094571Y-105766052D01*
X88130309Y-105736722D01*
X88286834Y-105653057D01*
X88456673Y-105601537D01*
X88522858Y-105595018D01*
X88589040Y-105588500D01*
X88677560Y-105588500D01*
X88743743Y-105595019D01*
X88743743Y-105595019D01*
G37*
G36*
X91283743Y-105595019D02*
G01*
X91349927Y-105601537D01*
X91519766Y-105653057D01*
X91676291Y-105736722D01*
X91712029Y-105766052D01*
X91813486Y-105849314D01*
X91884545Y-105935901D01*
X91926078Y-105986509D01*
X92009743Y-106143034D01*
X92061263Y-106312873D01*
X92078659Y-106489500D01*
X92061263Y-106666127D01*
X92009743Y-106835966D01*
X91926078Y-106992491D01*
X91896748Y-107028229D01*
X91813486Y-107129686D01*
X91712029Y-107212948D01*
X91676291Y-107242278D01*
X91519766Y-107325943D01*
X91349927Y-107377463D01*
X91283743Y-107383981D01*
X91217560Y-107390500D01*
X91129040Y-107390500D01*
X91062857Y-107383981D01*
X90996673Y-107377463D01*
X90826834Y-107325943D01*
X90670309Y-107242278D01*
X90634571Y-107212948D01*
X90533114Y-107129686D01*
X90449852Y-107028229D01*
X90420522Y-106992491D01*
X90336857Y-106835966D01*
X90285337Y-106666127D01*
X90267941Y-106489500D01*
X90285337Y-106312873D01*
X90336857Y-106143034D01*
X90420522Y-105986509D01*
X90462055Y-105935901D01*
X90533114Y-105849314D01*
X90634571Y-105766052D01*
X90670309Y-105736722D01*
X90826834Y-105653057D01*
X90996673Y-105601537D01*
X91062858Y-105595018D01*
X91129040Y-105588500D01*
X91217560Y-105588500D01*
X91283743Y-105595019D01*
X91283743Y-105595019D01*
G37*
G36*
X93823743Y-105595019D02*
G01*
X93889927Y-105601537D01*
X94059766Y-105653057D01*
X94216291Y-105736722D01*
X94252029Y-105766052D01*
X94353486Y-105849314D01*
X94424545Y-105935901D01*
X94466078Y-105986509D01*
X94549743Y-106143034D01*
X94601263Y-106312873D01*
X94618659Y-106489500D01*
X94601263Y-106666127D01*
X94549743Y-106835966D01*
X94466078Y-106992491D01*
X94436748Y-107028229D01*
X94353486Y-107129686D01*
X94252029Y-107212948D01*
X94216291Y-107242278D01*
X94059766Y-107325943D01*
X93889927Y-107377463D01*
X93823743Y-107383981D01*
X93757560Y-107390500D01*
X93669040Y-107390500D01*
X93602857Y-107383981D01*
X93536673Y-107377463D01*
X93366834Y-107325943D01*
X93210309Y-107242278D01*
X93174571Y-107212948D01*
X93073114Y-107129686D01*
X92989852Y-107028229D01*
X92960522Y-106992491D01*
X92876857Y-106835966D01*
X92825337Y-106666127D01*
X92807941Y-106489500D01*
X92825337Y-106312873D01*
X92876857Y-106143034D01*
X92960522Y-105986509D01*
X93002055Y-105935901D01*
X93073114Y-105849314D01*
X93174571Y-105766052D01*
X93210309Y-105736722D01*
X93366834Y-105653057D01*
X93536673Y-105601537D01*
X93602858Y-105595018D01*
X93669040Y-105588500D01*
X93757560Y-105588500D01*
X93823743Y-105595019D01*
X93823743Y-105595019D01*
G37*
G36*
X98903743Y-105595019D02*
G01*
X98969927Y-105601537D01*
X99139766Y-105653057D01*
X99296291Y-105736722D01*
X99332029Y-105766052D01*
X99433486Y-105849314D01*
X99504545Y-105935901D01*
X99546078Y-105986509D01*
X99629743Y-106143034D01*
X99681263Y-106312873D01*
X99698659Y-106489500D01*
X99681263Y-106666127D01*
X99629743Y-106835966D01*
X99546078Y-106992491D01*
X99516748Y-107028229D01*
X99433486Y-107129686D01*
X99332029Y-107212948D01*
X99296291Y-107242278D01*
X99139766Y-107325943D01*
X98969927Y-107377463D01*
X98903743Y-107383981D01*
X98837560Y-107390500D01*
X98749040Y-107390500D01*
X98682857Y-107383981D01*
X98616673Y-107377463D01*
X98446834Y-107325943D01*
X98290309Y-107242278D01*
X98254571Y-107212948D01*
X98153114Y-107129686D01*
X98069852Y-107028229D01*
X98040522Y-106992491D01*
X97956857Y-106835966D01*
X97905337Y-106666127D01*
X97887941Y-106489500D01*
X97905337Y-106312873D01*
X97956857Y-106143034D01*
X98040522Y-105986509D01*
X98082055Y-105935901D01*
X98153114Y-105849314D01*
X98254571Y-105766052D01*
X98290309Y-105736722D01*
X98446834Y-105653057D01*
X98616673Y-105601537D01*
X98682858Y-105595018D01*
X98749040Y-105588500D01*
X98837560Y-105588500D01*
X98903743Y-105595019D01*
X98903743Y-105595019D01*
G37*
G36*
X101443743Y-105595019D02*
G01*
X101509927Y-105601537D01*
X101679766Y-105653057D01*
X101836291Y-105736722D01*
X101872029Y-105766052D01*
X101973486Y-105849314D01*
X102044545Y-105935901D01*
X102086078Y-105986509D01*
X102169743Y-106143034D01*
X102221263Y-106312873D01*
X102238659Y-106489500D01*
X102221263Y-106666127D01*
X102169743Y-106835966D01*
X102086078Y-106992491D01*
X102056748Y-107028229D01*
X101973486Y-107129686D01*
X101872029Y-107212948D01*
X101836291Y-107242278D01*
X101679766Y-107325943D01*
X101509927Y-107377463D01*
X101443743Y-107383981D01*
X101377560Y-107390500D01*
X101289040Y-107390500D01*
X101222857Y-107383981D01*
X101156673Y-107377463D01*
X100986834Y-107325943D01*
X100830309Y-107242278D01*
X100794571Y-107212948D01*
X100693114Y-107129686D01*
X100609852Y-107028229D01*
X100580522Y-106992491D01*
X100496857Y-106835966D01*
X100445337Y-106666127D01*
X100427941Y-106489500D01*
X100445337Y-106312873D01*
X100496857Y-106143034D01*
X100580522Y-105986509D01*
X100622055Y-105935901D01*
X100693114Y-105849314D01*
X100794571Y-105766052D01*
X100830309Y-105736722D01*
X100986834Y-105653057D01*
X101156673Y-105601537D01*
X101222858Y-105595018D01*
X101289040Y-105588500D01*
X101377560Y-105588500D01*
X101443743Y-105595019D01*
X101443743Y-105595019D01*
G37*
G36*
X111510442Y-98505518D02*
G01*
X111576627Y-98512037D01*
X111746466Y-98563557D01*
X111902991Y-98647222D01*
X111938729Y-98676552D01*
X112040186Y-98759814D01*
X112123448Y-98861271D01*
X112152778Y-98897009D01*
X112236443Y-99053534D01*
X112287963Y-99223373D01*
X112305359Y-99400000D01*
X112287963Y-99576627D01*
X112236443Y-99746466D01*
X112152778Y-99902991D01*
X112123448Y-99938729D01*
X112040186Y-100040186D01*
X111938729Y-100123448D01*
X111902991Y-100152778D01*
X111746466Y-100236443D01*
X111576627Y-100287963D01*
X111510442Y-100294482D01*
X111444260Y-100301000D01*
X111355740Y-100301000D01*
X111289558Y-100294482D01*
X111223373Y-100287963D01*
X111053534Y-100236443D01*
X110897009Y-100152778D01*
X110861271Y-100123448D01*
X110759814Y-100040186D01*
X110676552Y-99938729D01*
X110647222Y-99902991D01*
X110563557Y-99746466D01*
X110512037Y-99576627D01*
X110494641Y-99400000D01*
X110512037Y-99223373D01*
X110563557Y-99053534D01*
X110647222Y-98897009D01*
X110676552Y-98861271D01*
X110759814Y-98759814D01*
X110861271Y-98676552D01*
X110897009Y-98647222D01*
X111053534Y-98563557D01*
X111223373Y-98512037D01*
X111289557Y-98505519D01*
X111355740Y-98499000D01*
X111444260Y-98499000D01*
X111510442Y-98505518D01*
X111510442Y-98505518D01*
G37*
G36*
X114050442Y-98505518D02*
G01*
X114116627Y-98512037D01*
X114286466Y-98563557D01*
X114442991Y-98647222D01*
X114478729Y-98676552D01*
X114580186Y-98759814D01*
X114663448Y-98861271D01*
X114692778Y-98897009D01*
X114776443Y-99053534D01*
X114827963Y-99223373D01*
X114845359Y-99400000D01*
X114827963Y-99576627D01*
X114776443Y-99746466D01*
X114692778Y-99902991D01*
X114663448Y-99938729D01*
X114580186Y-100040186D01*
X114478729Y-100123448D01*
X114442991Y-100152778D01*
X114286466Y-100236443D01*
X114116627Y-100287963D01*
X114050442Y-100294482D01*
X113984260Y-100301000D01*
X113895740Y-100301000D01*
X113829558Y-100294482D01*
X113763373Y-100287963D01*
X113593534Y-100236443D01*
X113437009Y-100152778D01*
X113401271Y-100123448D01*
X113299814Y-100040186D01*
X113216552Y-99938729D01*
X113187222Y-99902991D01*
X113103557Y-99746466D01*
X113052037Y-99576627D01*
X113034641Y-99400000D01*
X113052037Y-99223373D01*
X113103557Y-99053534D01*
X113187222Y-98897009D01*
X113216552Y-98861271D01*
X113299814Y-98759814D01*
X113401271Y-98676552D01*
X113437009Y-98647222D01*
X113593534Y-98563557D01*
X113763373Y-98512037D01*
X113829557Y-98505519D01*
X113895740Y-98499000D01*
X113984260Y-98499000D01*
X114050442Y-98505518D01*
X114050442Y-98505518D01*
G37*
G36*
X37051142Y-98176642D02*
G01*
X37199101Y-98237929D01*
X37332255Y-98326899D01*
X37445501Y-98440145D01*
X37534471Y-98573299D01*
X37595758Y-98721258D01*
X37627000Y-98878325D01*
X37627000Y-99038475D01*
X37595758Y-99195542D01*
X37534471Y-99343501D01*
X37445501Y-99476655D01*
X37332255Y-99589901D01*
X37199101Y-99678871D01*
X37051142Y-99740158D01*
X36894075Y-99771400D01*
X36733925Y-99771400D01*
X36576858Y-99740158D01*
X36428899Y-99678871D01*
X36295745Y-99589901D01*
X36182499Y-99476655D01*
X36093529Y-99343501D01*
X36032242Y-99195542D01*
X36001000Y-99038475D01*
X36001000Y-98878325D01*
X36032242Y-98721258D01*
X36093529Y-98573299D01*
X36182499Y-98440145D01*
X36295745Y-98326899D01*
X36428899Y-98237929D01*
X36576858Y-98176642D01*
X36733925Y-98145400D01*
X36894075Y-98145400D01*
X37051142Y-98176642D01*
X37051142Y-98176642D01*
G37*
G36*
X62027000Y-99771400D02*
G01*
X60401000Y-99771400D01*
X60401000Y-98145400D01*
X62027000Y-98145400D01*
X62027000Y-99771400D01*
X62027000Y-99771400D01*
G37*
G36*
X61451142Y-96176642D02*
G01*
X61599101Y-96237929D01*
X61732255Y-96326899D01*
X61845501Y-96440145D01*
X61934471Y-96573299D01*
X61995758Y-96721258D01*
X62027000Y-96878325D01*
X62027000Y-97038475D01*
X61995758Y-97195542D01*
X61934471Y-97343501D01*
X61845501Y-97476655D01*
X61732255Y-97589901D01*
X61599101Y-97678871D01*
X61451142Y-97740158D01*
X61294075Y-97771400D01*
X61133925Y-97771400D01*
X60976858Y-97740158D01*
X60828899Y-97678871D01*
X60695745Y-97589901D01*
X60582499Y-97476655D01*
X60493529Y-97343501D01*
X60432242Y-97195542D01*
X60401000Y-97038475D01*
X60401000Y-96878325D01*
X60432242Y-96721258D01*
X60493529Y-96573299D01*
X60582499Y-96440145D01*
X60695745Y-96326899D01*
X60828899Y-96237929D01*
X60976858Y-96176642D01*
X61133925Y-96145400D01*
X61294075Y-96145400D01*
X61451142Y-96176642D01*
X61451142Y-96176642D01*
G37*
G36*
X37051142Y-96176642D02*
G01*
X37199101Y-96237929D01*
X37332255Y-96326899D01*
X37445501Y-96440145D01*
X37534471Y-96573299D01*
X37595758Y-96721258D01*
X37627000Y-96878325D01*
X37627000Y-97038475D01*
X37595758Y-97195542D01*
X37534471Y-97343501D01*
X37445501Y-97476655D01*
X37332255Y-97589901D01*
X37199101Y-97678871D01*
X37051142Y-97740158D01*
X36894075Y-97771400D01*
X36733925Y-97771400D01*
X36576858Y-97740158D01*
X36428899Y-97678871D01*
X36295745Y-97589901D01*
X36182499Y-97476655D01*
X36093529Y-97343501D01*
X36032242Y-97195542D01*
X36001000Y-97038475D01*
X36001000Y-96878325D01*
X36032242Y-96721258D01*
X36093529Y-96573299D01*
X36182499Y-96440145D01*
X36295745Y-96326899D01*
X36428899Y-96237929D01*
X36576858Y-96176642D01*
X36733925Y-96145400D01*
X36894075Y-96145400D01*
X37051142Y-96176642D01*
X37051142Y-96176642D01*
G37*
G36*
X114050443Y-95965519D02*
G01*
X114116627Y-95972037D01*
X114286466Y-96023557D01*
X114442991Y-96107222D01*
X114478729Y-96136552D01*
X114580186Y-96219814D01*
X114663448Y-96321271D01*
X114692778Y-96357009D01*
X114776443Y-96513534D01*
X114827963Y-96683373D01*
X114845359Y-96860000D01*
X114827963Y-97036627D01*
X114776443Y-97206466D01*
X114692778Y-97362991D01*
X114663448Y-97398729D01*
X114580186Y-97500186D01*
X114478729Y-97583448D01*
X114442991Y-97612778D01*
X114286466Y-97696443D01*
X114116627Y-97747963D01*
X114050443Y-97754481D01*
X113984260Y-97761000D01*
X113895740Y-97761000D01*
X113829557Y-97754481D01*
X113763373Y-97747963D01*
X113593534Y-97696443D01*
X113437009Y-97612778D01*
X113401271Y-97583448D01*
X113299814Y-97500186D01*
X113216552Y-97398729D01*
X113187222Y-97362991D01*
X113103557Y-97206466D01*
X113052037Y-97036627D01*
X113034641Y-96860000D01*
X113052037Y-96683373D01*
X113103557Y-96513534D01*
X113187222Y-96357009D01*
X113216552Y-96321271D01*
X113299814Y-96219814D01*
X113401271Y-96136552D01*
X113437009Y-96107222D01*
X113593534Y-96023557D01*
X113763373Y-95972037D01*
X113829557Y-95965519D01*
X113895740Y-95959000D01*
X113984260Y-95959000D01*
X114050443Y-95965519D01*
X114050443Y-95965519D01*
G37*
G36*
X111510443Y-95965519D02*
G01*
X111576627Y-95972037D01*
X111746466Y-96023557D01*
X111902991Y-96107222D01*
X111938729Y-96136552D01*
X112040186Y-96219814D01*
X112123448Y-96321271D01*
X112152778Y-96357009D01*
X112236443Y-96513534D01*
X112287963Y-96683373D01*
X112305359Y-96860000D01*
X112287963Y-97036627D01*
X112236443Y-97206466D01*
X112152778Y-97362991D01*
X112123448Y-97398729D01*
X112040186Y-97500186D01*
X111938729Y-97583448D01*
X111902991Y-97612778D01*
X111746466Y-97696443D01*
X111576627Y-97747963D01*
X111510443Y-97754481D01*
X111444260Y-97761000D01*
X111355740Y-97761000D01*
X111289557Y-97754481D01*
X111223373Y-97747963D01*
X111053534Y-97696443D01*
X110897009Y-97612778D01*
X110861271Y-97583448D01*
X110759814Y-97500186D01*
X110676552Y-97398729D01*
X110647222Y-97362991D01*
X110563557Y-97206466D01*
X110512037Y-97036627D01*
X110494641Y-96860000D01*
X110512037Y-96683373D01*
X110563557Y-96513534D01*
X110647222Y-96357009D01*
X110676552Y-96321271D01*
X110759814Y-96219814D01*
X110861271Y-96136552D01*
X110897009Y-96107222D01*
X111053534Y-96023557D01*
X111223373Y-95972037D01*
X111289557Y-95965519D01*
X111355740Y-95959000D01*
X111444260Y-95959000D01*
X111510443Y-95965519D01*
X111510443Y-95965519D01*
G37*
G36*
X61451142Y-94176642D02*
G01*
X61599101Y-94237929D01*
X61732255Y-94326899D01*
X61845501Y-94440145D01*
X61934471Y-94573299D01*
X61995758Y-94721258D01*
X62027000Y-94878325D01*
X62027000Y-95038475D01*
X61995758Y-95195542D01*
X61934471Y-95343501D01*
X61845501Y-95476655D01*
X61732255Y-95589901D01*
X61599101Y-95678871D01*
X61451142Y-95740158D01*
X61294075Y-95771400D01*
X61133925Y-95771400D01*
X60976858Y-95740158D01*
X60828899Y-95678871D01*
X60695745Y-95589901D01*
X60582499Y-95476655D01*
X60493529Y-95343501D01*
X60432242Y-95195542D01*
X60401000Y-95038475D01*
X60401000Y-94878325D01*
X60432242Y-94721258D01*
X60493529Y-94573299D01*
X60582499Y-94440145D01*
X60695745Y-94326899D01*
X60828899Y-94237929D01*
X60976858Y-94176642D01*
X61133925Y-94145400D01*
X61294075Y-94145400D01*
X61451142Y-94176642D01*
X61451142Y-94176642D01*
G37*
G36*
X37051142Y-94176642D02*
G01*
X37199101Y-94237929D01*
X37332255Y-94326899D01*
X37445501Y-94440145D01*
X37534471Y-94573299D01*
X37595758Y-94721258D01*
X37627000Y-94878325D01*
X37627000Y-95038475D01*
X37595758Y-95195542D01*
X37534471Y-95343501D01*
X37445501Y-95476655D01*
X37332255Y-95589901D01*
X37199101Y-95678871D01*
X37051142Y-95740158D01*
X36894075Y-95771400D01*
X36733925Y-95771400D01*
X36576858Y-95740158D01*
X36428899Y-95678871D01*
X36295745Y-95589901D01*
X36182499Y-95476655D01*
X36093529Y-95343501D01*
X36032242Y-95195542D01*
X36001000Y-95038475D01*
X36001000Y-94878325D01*
X36032242Y-94721258D01*
X36093529Y-94573299D01*
X36182499Y-94440145D01*
X36295745Y-94326899D01*
X36428899Y-94237929D01*
X36576858Y-94176642D01*
X36733925Y-94145400D01*
X36894075Y-94145400D01*
X37051142Y-94176642D01*
X37051142Y-94176642D01*
G37*
G36*
X111510442Y-93425518D02*
G01*
X111576627Y-93432037D01*
X111746466Y-93483557D01*
X111902991Y-93567222D01*
X111930623Y-93589899D01*
X112040186Y-93679814D01*
X112123448Y-93781271D01*
X112152778Y-93817009D01*
X112236443Y-93973534D01*
X112287963Y-94143373D01*
X112305359Y-94320000D01*
X112287963Y-94496627D01*
X112236443Y-94666466D01*
X112152778Y-94822991D01*
X112123448Y-94858729D01*
X112040186Y-94960186D01*
X111944790Y-95038474D01*
X111902991Y-95072778D01*
X111746466Y-95156443D01*
X111576627Y-95207963D01*
X111510443Y-95214481D01*
X111444260Y-95221000D01*
X111355740Y-95221000D01*
X111289557Y-95214481D01*
X111223373Y-95207963D01*
X111053534Y-95156443D01*
X110897009Y-95072778D01*
X110855210Y-95038474D01*
X110759814Y-94960186D01*
X110676552Y-94858729D01*
X110647222Y-94822991D01*
X110563557Y-94666466D01*
X110512037Y-94496627D01*
X110494641Y-94320000D01*
X110512037Y-94143373D01*
X110563557Y-93973534D01*
X110647222Y-93817009D01*
X110676552Y-93781271D01*
X110759814Y-93679814D01*
X110869377Y-93589899D01*
X110897009Y-93567222D01*
X111053534Y-93483557D01*
X111223373Y-93432037D01*
X111289558Y-93425518D01*
X111355740Y-93419000D01*
X111444260Y-93419000D01*
X111510442Y-93425518D01*
X111510442Y-93425518D01*
G37*
G36*
X114050442Y-93425518D02*
G01*
X114116627Y-93432037D01*
X114286466Y-93483557D01*
X114442991Y-93567222D01*
X114470623Y-93589899D01*
X114580186Y-93679814D01*
X114663448Y-93781271D01*
X114692778Y-93817009D01*
X114776443Y-93973534D01*
X114827963Y-94143373D01*
X114845359Y-94320000D01*
X114827963Y-94496627D01*
X114776443Y-94666466D01*
X114692778Y-94822991D01*
X114663448Y-94858729D01*
X114580186Y-94960186D01*
X114484790Y-95038474D01*
X114442991Y-95072778D01*
X114286466Y-95156443D01*
X114116627Y-95207963D01*
X114050443Y-95214481D01*
X113984260Y-95221000D01*
X113895740Y-95221000D01*
X113829557Y-95214481D01*
X113763373Y-95207963D01*
X113593534Y-95156443D01*
X113437009Y-95072778D01*
X113395210Y-95038474D01*
X113299814Y-94960186D01*
X113216552Y-94858729D01*
X113187222Y-94822991D01*
X113103557Y-94666466D01*
X113052037Y-94496627D01*
X113034641Y-94320000D01*
X113052037Y-94143373D01*
X113103557Y-93973534D01*
X113187222Y-93817009D01*
X113216552Y-93781271D01*
X113299814Y-93679814D01*
X113409377Y-93589899D01*
X113437009Y-93567222D01*
X113593534Y-93483557D01*
X113763373Y-93432037D01*
X113829558Y-93425518D01*
X113895740Y-93419000D01*
X113984260Y-93419000D01*
X114050442Y-93425518D01*
X114050442Y-93425518D01*
G37*
G36*
X37051142Y-92176642D02*
G01*
X37199101Y-92237929D01*
X37332255Y-92326899D01*
X37445501Y-92440145D01*
X37534471Y-92573299D01*
X37595758Y-92721258D01*
X37627000Y-92878325D01*
X37627000Y-93038475D01*
X37595758Y-93195542D01*
X37534471Y-93343501D01*
X37445501Y-93476655D01*
X37332255Y-93589901D01*
X37199101Y-93678871D01*
X37051142Y-93740158D01*
X36894075Y-93771400D01*
X36733925Y-93771400D01*
X36576858Y-93740158D01*
X36428899Y-93678871D01*
X36295745Y-93589901D01*
X36182499Y-93476655D01*
X36093529Y-93343501D01*
X36032242Y-93195542D01*
X36001000Y-93038475D01*
X36001000Y-92878325D01*
X36032242Y-92721258D01*
X36093529Y-92573299D01*
X36182499Y-92440145D01*
X36295745Y-92326899D01*
X36428899Y-92237929D01*
X36576858Y-92176642D01*
X36733925Y-92145400D01*
X36894075Y-92145400D01*
X37051142Y-92176642D01*
X37051142Y-92176642D01*
G37*
G36*
X61451142Y-92176642D02*
G01*
X61599101Y-92237929D01*
X61732255Y-92326899D01*
X61845501Y-92440145D01*
X61934471Y-92573299D01*
X61995758Y-92721258D01*
X62027000Y-92878325D01*
X62027000Y-93038475D01*
X61995758Y-93195542D01*
X61934471Y-93343501D01*
X61845501Y-93476655D01*
X61732255Y-93589901D01*
X61599101Y-93678871D01*
X61451142Y-93740158D01*
X61294075Y-93771400D01*
X61133925Y-93771400D01*
X60976858Y-93740158D01*
X60828899Y-93678871D01*
X60695745Y-93589901D01*
X60582499Y-93476655D01*
X60493529Y-93343501D01*
X60432242Y-93195542D01*
X60401000Y-93038475D01*
X60401000Y-92878325D01*
X60432242Y-92721258D01*
X60493529Y-92573299D01*
X60582499Y-92440145D01*
X60695745Y-92326899D01*
X60828899Y-92237929D01*
X60976858Y-92176642D01*
X61133925Y-92145400D01*
X61294075Y-92145400D01*
X61451142Y-92176642D01*
X61451142Y-92176642D01*
G37*
G36*
X111510443Y-90885519D02*
G01*
X111576627Y-90892037D01*
X111746466Y-90943557D01*
X111902991Y-91027222D01*
X111938729Y-91056552D01*
X112040186Y-91139814D01*
X112123448Y-91241271D01*
X112152778Y-91277009D01*
X112236443Y-91433534D01*
X112287963Y-91603373D01*
X112305359Y-91780000D01*
X112287963Y-91956627D01*
X112236443Y-92126466D01*
X112236442Y-92126468D01*
X112209623Y-92176642D01*
X112152778Y-92282991D01*
X112123448Y-92318729D01*
X112040186Y-92420186D01*
X111938729Y-92503448D01*
X111902991Y-92532778D01*
X111746466Y-92616443D01*
X111576627Y-92667963D01*
X111510442Y-92674482D01*
X111444260Y-92681000D01*
X111355740Y-92681000D01*
X111289558Y-92674482D01*
X111223373Y-92667963D01*
X111053534Y-92616443D01*
X110897009Y-92532778D01*
X110861271Y-92503448D01*
X110759814Y-92420186D01*
X110676552Y-92318729D01*
X110647222Y-92282991D01*
X110590377Y-92176642D01*
X110563558Y-92126468D01*
X110563557Y-92126466D01*
X110512037Y-91956627D01*
X110494641Y-91780000D01*
X110512037Y-91603373D01*
X110563557Y-91433534D01*
X110647222Y-91277009D01*
X110676552Y-91241271D01*
X110759814Y-91139814D01*
X110861271Y-91056552D01*
X110897009Y-91027222D01*
X111053534Y-90943557D01*
X111223373Y-90892037D01*
X111289557Y-90885519D01*
X111355740Y-90879000D01*
X111444260Y-90879000D01*
X111510443Y-90885519D01*
X111510443Y-90885519D01*
G37*
G36*
X114050443Y-90885519D02*
G01*
X114116627Y-90892037D01*
X114286466Y-90943557D01*
X114442991Y-91027222D01*
X114478729Y-91056552D01*
X114580186Y-91139814D01*
X114663448Y-91241271D01*
X114692778Y-91277009D01*
X114776443Y-91433534D01*
X114827963Y-91603373D01*
X114845359Y-91780000D01*
X114827963Y-91956627D01*
X114776443Y-92126466D01*
X114776442Y-92126468D01*
X114749623Y-92176642D01*
X114692778Y-92282991D01*
X114663448Y-92318729D01*
X114580186Y-92420186D01*
X114478729Y-92503448D01*
X114442991Y-92532778D01*
X114286466Y-92616443D01*
X114116627Y-92667963D01*
X114050442Y-92674482D01*
X113984260Y-92681000D01*
X113895740Y-92681000D01*
X113829558Y-92674482D01*
X113763373Y-92667963D01*
X113593534Y-92616443D01*
X113437009Y-92532778D01*
X113401271Y-92503448D01*
X113299814Y-92420186D01*
X113216552Y-92318729D01*
X113187222Y-92282991D01*
X113130377Y-92176642D01*
X113103558Y-92126468D01*
X113103557Y-92126466D01*
X113052037Y-91956627D01*
X113034641Y-91780000D01*
X113052037Y-91603373D01*
X113103557Y-91433534D01*
X113187222Y-91277009D01*
X113216552Y-91241271D01*
X113299814Y-91139814D01*
X113401271Y-91056552D01*
X113437009Y-91027222D01*
X113593534Y-90943557D01*
X113763373Y-90892037D01*
X113829557Y-90885519D01*
X113895740Y-90879000D01*
X113984260Y-90879000D01*
X114050443Y-90885519D01*
X114050443Y-90885519D01*
G37*
G36*
X37051142Y-90176642D02*
G01*
X37199101Y-90237929D01*
X37332255Y-90326899D01*
X37445501Y-90440145D01*
X37534471Y-90573299D01*
X37595758Y-90721258D01*
X37627000Y-90878325D01*
X37627000Y-91038475D01*
X37595758Y-91195542D01*
X37534471Y-91343501D01*
X37445501Y-91476655D01*
X37332255Y-91589901D01*
X37199101Y-91678871D01*
X37051142Y-91740158D01*
X36894075Y-91771400D01*
X36733925Y-91771400D01*
X36576858Y-91740158D01*
X36428899Y-91678871D01*
X36295745Y-91589901D01*
X36182499Y-91476655D01*
X36093529Y-91343501D01*
X36032242Y-91195542D01*
X36001000Y-91038475D01*
X36001000Y-90878325D01*
X36032242Y-90721258D01*
X36093529Y-90573299D01*
X36182499Y-90440145D01*
X36295745Y-90326899D01*
X36428899Y-90237929D01*
X36576858Y-90176642D01*
X36733925Y-90145400D01*
X36894075Y-90145400D01*
X37051142Y-90176642D01*
X37051142Y-90176642D01*
G37*
G36*
X61451142Y-90176642D02*
G01*
X61599101Y-90237929D01*
X61732255Y-90326899D01*
X61845501Y-90440145D01*
X61934471Y-90573299D01*
X61995758Y-90721258D01*
X62027000Y-90878325D01*
X62027000Y-91038475D01*
X61995758Y-91195542D01*
X61934471Y-91343501D01*
X61845501Y-91476655D01*
X61732255Y-91589901D01*
X61599101Y-91678871D01*
X61451142Y-91740158D01*
X61294075Y-91771400D01*
X61133925Y-91771400D01*
X60976858Y-91740158D01*
X60828899Y-91678871D01*
X60695745Y-91589901D01*
X60582499Y-91476655D01*
X60493529Y-91343501D01*
X60432242Y-91195542D01*
X60401000Y-91038475D01*
X60401000Y-90878325D01*
X60432242Y-90721258D01*
X60493529Y-90573299D01*
X60582499Y-90440145D01*
X60695745Y-90326899D01*
X60828899Y-90237929D01*
X60976858Y-90176642D01*
X61133925Y-90145400D01*
X61294075Y-90145400D01*
X61451142Y-90176642D01*
X61451142Y-90176642D01*
G37*
G36*
X114050443Y-88345519D02*
G01*
X114116627Y-88352037D01*
X114286466Y-88403557D01*
X114442991Y-88487222D01*
X114478729Y-88516552D01*
X114580186Y-88599814D01*
X114663448Y-88701271D01*
X114692778Y-88737009D01*
X114776443Y-88893534D01*
X114827963Y-89063373D01*
X114845359Y-89240000D01*
X114827963Y-89416627D01*
X114776443Y-89586466D01*
X114692778Y-89742991D01*
X114669463Y-89771400D01*
X114580186Y-89880186D01*
X114478729Y-89963448D01*
X114442991Y-89992778D01*
X114286466Y-90076443D01*
X114116627Y-90127963D01*
X114050442Y-90134482D01*
X113984260Y-90141000D01*
X113895740Y-90141000D01*
X113829558Y-90134482D01*
X113763373Y-90127963D01*
X113593534Y-90076443D01*
X113437009Y-89992778D01*
X113401271Y-89963448D01*
X113299814Y-89880186D01*
X113210537Y-89771400D01*
X113187222Y-89742991D01*
X113103557Y-89586466D01*
X113052037Y-89416627D01*
X113034641Y-89240000D01*
X113052037Y-89063373D01*
X113103557Y-88893534D01*
X113187222Y-88737009D01*
X113216552Y-88701271D01*
X113299814Y-88599814D01*
X113401271Y-88516552D01*
X113437009Y-88487222D01*
X113593534Y-88403557D01*
X113763373Y-88352037D01*
X113829557Y-88345519D01*
X113895740Y-88339000D01*
X113984260Y-88339000D01*
X114050443Y-88345519D01*
X114050443Y-88345519D01*
G37*
G36*
X111510443Y-88345519D02*
G01*
X111576627Y-88352037D01*
X111746466Y-88403557D01*
X111902991Y-88487222D01*
X111938729Y-88516552D01*
X112040186Y-88599814D01*
X112123448Y-88701271D01*
X112152778Y-88737009D01*
X112236443Y-88893534D01*
X112287963Y-89063373D01*
X112305359Y-89240000D01*
X112287963Y-89416627D01*
X112236443Y-89586466D01*
X112152778Y-89742991D01*
X112129463Y-89771400D01*
X112040186Y-89880186D01*
X111938729Y-89963448D01*
X111902991Y-89992778D01*
X111746466Y-90076443D01*
X111576627Y-90127963D01*
X111510442Y-90134482D01*
X111444260Y-90141000D01*
X111355740Y-90141000D01*
X111289558Y-90134482D01*
X111223373Y-90127963D01*
X111053534Y-90076443D01*
X110897009Y-89992778D01*
X110861271Y-89963448D01*
X110759814Y-89880186D01*
X110670537Y-89771400D01*
X110647222Y-89742991D01*
X110563557Y-89586466D01*
X110512037Y-89416627D01*
X110494641Y-89240000D01*
X110512037Y-89063373D01*
X110563557Y-88893534D01*
X110647222Y-88737009D01*
X110676552Y-88701271D01*
X110759814Y-88599814D01*
X110861271Y-88516552D01*
X110897009Y-88487222D01*
X111053534Y-88403557D01*
X111223373Y-88352037D01*
X111289557Y-88345519D01*
X111355740Y-88339000D01*
X111444260Y-88339000D01*
X111510443Y-88345519D01*
X111510443Y-88345519D01*
G37*
G36*
X37051142Y-88176642D02*
G01*
X37199101Y-88237929D01*
X37332255Y-88326899D01*
X37445501Y-88440145D01*
X37534471Y-88573299D01*
X37595758Y-88721258D01*
X37627000Y-88878325D01*
X37627000Y-89038475D01*
X37595758Y-89195542D01*
X37534471Y-89343501D01*
X37445501Y-89476655D01*
X37332255Y-89589901D01*
X37199101Y-89678871D01*
X37051142Y-89740158D01*
X36894075Y-89771400D01*
X36733925Y-89771400D01*
X36576858Y-89740158D01*
X36428899Y-89678871D01*
X36295745Y-89589901D01*
X36182499Y-89476655D01*
X36093529Y-89343501D01*
X36032242Y-89195542D01*
X36001000Y-89038475D01*
X36001000Y-88878325D01*
X36032242Y-88721258D01*
X36093529Y-88573299D01*
X36182499Y-88440145D01*
X36295745Y-88326899D01*
X36428899Y-88237929D01*
X36576858Y-88176642D01*
X36733925Y-88145400D01*
X36894075Y-88145400D01*
X37051142Y-88176642D01*
X37051142Y-88176642D01*
G37*
G36*
X61451142Y-88176642D02*
G01*
X61599101Y-88237929D01*
X61732255Y-88326899D01*
X61845501Y-88440145D01*
X61934471Y-88573299D01*
X61995758Y-88721258D01*
X62027000Y-88878325D01*
X62027000Y-89038475D01*
X61995758Y-89195542D01*
X61934471Y-89343501D01*
X61845501Y-89476655D01*
X61732255Y-89589901D01*
X61599101Y-89678871D01*
X61451142Y-89740158D01*
X61294075Y-89771400D01*
X61133925Y-89771400D01*
X60976858Y-89740158D01*
X60828899Y-89678871D01*
X60695745Y-89589901D01*
X60582499Y-89476655D01*
X60493529Y-89343501D01*
X60432242Y-89195542D01*
X60401000Y-89038475D01*
X60401000Y-88878325D01*
X60432242Y-88721258D01*
X60493529Y-88573299D01*
X60582499Y-88440145D01*
X60695745Y-88326899D01*
X60828899Y-88237929D01*
X60976858Y-88176642D01*
X61133925Y-88145400D01*
X61294075Y-88145400D01*
X61451142Y-88176642D01*
X61451142Y-88176642D01*
G37*
G36*
X61451142Y-86176642D02*
G01*
X61599101Y-86237929D01*
X61732255Y-86326899D01*
X61845501Y-86440145D01*
X61934471Y-86573299D01*
X61995758Y-86721258D01*
X62027000Y-86878325D01*
X62027000Y-87038475D01*
X61995758Y-87195542D01*
X61934471Y-87343501D01*
X61845501Y-87476655D01*
X61732255Y-87589901D01*
X61599101Y-87678871D01*
X61451142Y-87740158D01*
X61294075Y-87771400D01*
X61133925Y-87771400D01*
X60976858Y-87740158D01*
X60828899Y-87678871D01*
X60695745Y-87589901D01*
X60582499Y-87476655D01*
X60493529Y-87343501D01*
X60432242Y-87195542D01*
X60401000Y-87038475D01*
X60401000Y-86878325D01*
X60432242Y-86721258D01*
X60493529Y-86573299D01*
X60582499Y-86440145D01*
X60695745Y-86326899D01*
X60828899Y-86237929D01*
X60976858Y-86176642D01*
X61133925Y-86145400D01*
X61294075Y-86145400D01*
X61451142Y-86176642D01*
X61451142Y-86176642D01*
G37*
G36*
X37051142Y-86176642D02*
G01*
X37199101Y-86237929D01*
X37332255Y-86326899D01*
X37445501Y-86440145D01*
X37534471Y-86573299D01*
X37595758Y-86721258D01*
X37627000Y-86878325D01*
X37627000Y-87038475D01*
X37595758Y-87195542D01*
X37534471Y-87343501D01*
X37445501Y-87476655D01*
X37332255Y-87589901D01*
X37199101Y-87678871D01*
X37051142Y-87740158D01*
X36894075Y-87771400D01*
X36733925Y-87771400D01*
X36576858Y-87740158D01*
X36428899Y-87678871D01*
X36295745Y-87589901D01*
X36182499Y-87476655D01*
X36093529Y-87343501D01*
X36032242Y-87195542D01*
X36001000Y-87038475D01*
X36001000Y-86878325D01*
X36032242Y-86721258D01*
X36093529Y-86573299D01*
X36182499Y-86440145D01*
X36295745Y-86326899D01*
X36428899Y-86237929D01*
X36576858Y-86176642D01*
X36733925Y-86145400D01*
X36894075Y-86145400D01*
X37051142Y-86176642D01*
X37051142Y-86176642D01*
G37*
G36*
X114050442Y-85805518D02*
G01*
X114116627Y-85812037D01*
X114286466Y-85863557D01*
X114442991Y-85947222D01*
X114478729Y-85976552D01*
X114580186Y-86059814D01*
X114663448Y-86161271D01*
X114692778Y-86197009D01*
X114776443Y-86353534D01*
X114827963Y-86523373D01*
X114845359Y-86700000D01*
X114827963Y-86876627D01*
X114776443Y-87046466D01*
X114692778Y-87202991D01*
X114663448Y-87238729D01*
X114580186Y-87340186D01*
X114478729Y-87423448D01*
X114442991Y-87452778D01*
X114286466Y-87536443D01*
X114116627Y-87587963D01*
X114050442Y-87594482D01*
X113984260Y-87601000D01*
X113895740Y-87601000D01*
X113829558Y-87594482D01*
X113763373Y-87587963D01*
X113593534Y-87536443D01*
X113437009Y-87452778D01*
X113401271Y-87423448D01*
X113299814Y-87340186D01*
X113216552Y-87238729D01*
X113187222Y-87202991D01*
X113103557Y-87046466D01*
X113052037Y-86876627D01*
X113034641Y-86700000D01*
X113052037Y-86523373D01*
X113103557Y-86353534D01*
X113187222Y-86197009D01*
X113216552Y-86161271D01*
X113299814Y-86059814D01*
X113401271Y-85976552D01*
X113437009Y-85947222D01*
X113593534Y-85863557D01*
X113763373Y-85812037D01*
X113829558Y-85805518D01*
X113895740Y-85799000D01*
X113984260Y-85799000D01*
X114050442Y-85805518D01*
X114050442Y-85805518D01*
G37*
G36*
X111510442Y-85805518D02*
G01*
X111576627Y-85812037D01*
X111746466Y-85863557D01*
X111902991Y-85947222D01*
X111938729Y-85976552D01*
X112040186Y-86059814D01*
X112123448Y-86161271D01*
X112152778Y-86197009D01*
X112236443Y-86353534D01*
X112287963Y-86523373D01*
X112305359Y-86700000D01*
X112287963Y-86876627D01*
X112236443Y-87046466D01*
X112152778Y-87202991D01*
X112123448Y-87238729D01*
X112040186Y-87340186D01*
X111938729Y-87423448D01*
X111902991Y-87452778D01*
X111746466Y-87536443D01*
X111576627Y-87587963D01*
X111510442Y-87594482D01*
X111444260Y-87601000D01*
X111355740Y-87601000D01*
X111289558Y-87594482D01*
X111223373Y-87587963D01*
X111053534Y-87536443D01*
X110897009Y-87452778D01*
X110861271Y-87423448D01*
X110759814Y-87340186D01*
X110676552Y-87238729D01*
X110647222Y-87202991D01*
X110563557Y-87046466D01*
X110512037Y-86876627D01*
X110494641Y-86700000D01*
X110512037Y-86523373D01*
X110563557Y-86353534D01*
X110647222Y-86197009D01*
X110676552Y-86161271D01*
X110759814Y-86059814D01*
X110861271Y-85976552D01*
X110897009Y-85947222D01*
X111053534Y-85863557D01*
X111223373Y-85812037D01*
X111289558Y-85805518D01*
X111355740Y-85799000D01*
X111444260Y-85799000D01*
X111510442Y-85805518D01*
X111510442Y-85805518D01*
G37*
G36*
X61451142Y-84176642D02*
G01*
X61599101Y-84237929D01*
X61732255Y-84326899D01*
X61845501Y-84440145D01*
X61934471Y-84573299D01*
X61995758Y-84721258D01*
X62027000Y-84878325D01*
X62027000Y-85038475D01*
X61995758Y-85195542D01*
X61934471Y-85343501D01*
X61845501Y-85476655D01*
X61732255Y-85589901D01*
X61599101Y-85678871D01*
X61451142Y-85740158D01*
X61294075Y-85771400D01*
X61133925Y-85771400D01*
X60976858Y-85740158D01*
X60828899Y-85678871D01*
X60695745Y-85589901D01*
X60582499Y-85476655D01*
X60493529Y-85343501D01*
X60432242Y-85195542D01*
X60401000Y-85038475D01*
X60401000Y-84878325D01*
X60432242Y-84721258D01*
X60493529Y-84573299D01*
X60582499Y-84440145D01*
X60695745Y-84326899D01*
X60828899Y-84237929D01*
X60976858Y-84176642D01*
X61133925Y-84145400D01*
X61294075Y-84145400D01*
X61451142Y-84176642D01*
X61451142Y-84176642D01*
G37*
G36*
X37051142Y-84176642D02*
G01*
X37199101Y-84237929D01*
X37332255Y-84326899D01*
X37445501Y-84440145D01*
X37534471Y-84573299D01*
X37595758Y-84721258D01*
X37627000Y-84878325D01*
X37627000Y-85038475D01*
X37595758Y-85195542D01*
X37534471Y-85343501D01*
X37445501Y-85476655D01*
X37332255Y-85589901D01*
X37199101Y-85678871D01*
X37051142Y-85740158D01*
X36894075Y-85771400D01*
X36733925Y-85771400D01*
X36576858Y-85740158D01*
X36428899Y-85678871D01*
X36295745Y-85589901D01*
X36182499Y-85476655D01*
X36093529Y-85343501D01*
X36032242Y-85195542D01*
X36001000Y-85038475D01*
X36001000Y-84878325D01*
X36032242Y-84721258D01*
X36093529Y-84573299D01*
X36182499Y-84440145D01*
X36295745Y-84326899D01*
X36428899Y-84237929D01*
X36576858Y-84176642D01*
X36733925Y-84145400D01*
X36894075Y-84145400D01*
X37051142Y-84176642D01*
X37051142Y-84176642D01*
G37*
G36*
X111510442Y-83265518D02*
G01*
X111576627Y-83272037D01*
X111746466Y-83323557D01*
X111746468Y-83323558D01*
X111783778Y-83343501D01*
X111902991Y-83407222D01*
X111938729Y-83436552D01*
X112040186Y-83519814D01*
X112123448Y-83621271D01*
X112152778Y-83657009D01*
X112236443Y-83813534D01*
X112287963Y-83983373D01*
X112305359Y-84160000D01*
X112287963Y-84336627D01*
X112236443Y-84506466D01*
X112152778Y-84662991D01*
X112123448Y-84698729D01*
X112040186Y-84800186D01*
X111944972Y-84878325D01*
X111902991Y-84912778D01*
X111746466Y-84996443D01*
X111576627Y-85047963D01*
X111510443Y-85054481D01*
X111444260Y-85061000D01*
X111355740Y-85061000D01*
X111289557Y-85054481D01*
X111223373Y-85047963D01*
X111053534Y-84996443D01*
X110897009Y-84912778D01*
X110855028Y-84878325D01*
X110759814Y-84800186D01*
X110676552Y-84698729D01*
X110647222Y-84662991D01*
X110563557Y-84506466D01*
X110512037Y-84336627D01*
X110494641Y-84160000D01*
X110512037Y-83983373D01*
X110563557Y-83813534D01*
X110647222Y-83657009D01*
X110676552Y-83621271D01*
X110759814Y-83519814D01*
X110861271Y-83436552D01*
X110897009Y-83407222D01*
X111016222Y-83343501D01*
X111053532Y-83323558D01*
X111053534Y-83323557D01*
X111223373Y-83272037D01*
X111289558Y-83265518D01*
X111355740Y-83259000D01*
X111444260Y-83259000D01*
X111510442Y-83265518D01*
X111510442Y-83265518D01*
G37*
G36*
X114050442Y-83265518D02*
G01*
X114116627Y-83272037D01*
X114286466Y-83323557D01*
X114286468Y-83323558D01*
X114323778Y-83343501D01*
X114442991Y-83407222D01*
X114478729Y-83436552D01*
X114580186Y-83519814D01*
X114663448Y-83621271D01*
X114692778Y-83657009D01*
X114776443Y-83813534D01*
X114827963Y-83983373D01*
X114845359Y-84160000D01*
X114827963Y-84336627D01*
X114776443Y-84506466D01*
X114692778Y-84662991D01*
X114663448Y-84698729D01*
X114580186Y-84800186D01*
X114484972Y-84878325D01*
X114442991Y-84912778D01*
X114286466Y-84996443D01*
X114116627Y-85047963D01*
X114050443Y-85054481D01*
X113984260Y-85061000D01*
X113895740Y-85061000D01*
X113829557Y-85054481D01*
X113763373Y-85047963D01*
X113593534Y-84996443D01*
X113437009Y-84912778D01*
X113395028Y-84878325D01*
X113299814Y-84800186D01*
X113216552Y-84698729D01*
X113187222Y-84662991D01*
X113103557Y-84506466D01*
X113052037Y-84336627D01*
X113034641Y-84160000D01*
X113052037Y-83983373D01*
X113103557Y-83813534D01*
X113187222Y-83657009D01*
X113216552Y-83621271D01*
X113299814Y-83519814D01*
X113401271Y-83436552D01*
X113437009Y-83407222D01*
X113556222Y-83343501D01*
X113593532Y-83323558D01*
X113593534Y-83323557D01*
X113763373Y-83272037D01*
X113829558Y-83265518D01*
X113895740Y-83259000D01*
X113984260Y-83259000D01*
X114050442Y-83265518D01*
X114050442Y-83265518D01*
G37*
G36*
X61451142Y-82176642D02*
G01*
X61599101Y-82237929D01*
X61732255Y-82326899D01*
X61845501Y-82440145D01*
X61934471Y-82573299D01*
X61995758Y-82721258D01*
X62027000Y-82878325D01*
X62027000Y-83038475D01*
X61995758Y-83195542D01*
X61934471Y-83343501D01*
X61845501Y-83476655D01*
X61732255Y-83589901D01*
X61599101Y-83678871D01*
X61451142Y-83740158D01*
X61294075Y-83771400D01*
X61133925Y-83771400D01*
X60976858Y-83740158D01*
X60828899Y-83678871D01*
X60695745Y-83589901D01*
X60582499Y-83476655D01*
X60493529Y-83343501D01*
X60432242Y-83195542D01*
X60401000Y-83038475D01*
X60401000Y-82878325D01*
X60432242Y-82721258D01*
X60493529Y-82573299D01*
X60582499Y-82440145D01*
X60695745Y-82326899D01*
X60828899Y-82237929D01*
X60976858Y-82176642D01*
X61133925Y-82145400D01*
X61294075Y-82145400D01*
X61451142Y-82176642D01*
X61451142Y-82176642D01*
G37*
G36*
X37051142Y-82176642D02*
G01*
X37199101Y-82237929D01*
X37332255Y-82326899D01*
X37445501Y-82440145D01*
X37534471Y-82573299D01*
X37595758Y-82721258D01*
X37627000Y-82878325D01*
X37627000Y-83038475D01*
X37595758Y-83195542D01*
X37534471Y-83343501D01*
X37445501Y-83476655D01*
X37332255Y-83589901D01*
X37199101Y-83678871D01*
X37051142Y-83740158D01*
X36894075Y-83771400D01*
X36733925Y-83771400D01*
X36576858Y-83740158D01*
X36428899Y-83678871D01*
X36295745Y-83589901D01*
X36182499Y-83476655D01*
X36093529Y-83343501D01*
X36032242Y-83195542D01*
X36001000Y-83038475D01*
X36001000Y-82878325D01*
X36032242Y-82721258D01*
X36093529Y-82573299D01*
X36182499Y-82440145D01*
X36295745Y-82326899D01*
X36428899Y-82237929D01*
X36576858Y-82176642D01*
X36733925Y-82145400D01*
X36894075Y-82145400D01*
X37051142Y-82176642D01*
X37051142Y-82176642D01*
G37*
G36*
X111510443Y-80725519D02*
G01*
X111576627Y-80732037D01*
X111746466Y-80783557D01*
X111902991Y-80867222D01*
X111916521Y-80878326D01*
X112040186Y-80979814D01*
X112123448Y-81081271D01*
X112152778Y-81117009D01*
X112236443Y-81273534D01*
X112287963Y-81443373D01*
X112305359Y-81620000D01*
X112287963Y-81796627D01*
X112236443Y-81966466D01*
X112152778Y-82122991D01*
X112134387Y-82145400D01*
X112040186Y-82260186D01*
X111958892Y-82326901D01*
X111902991Y-82372778D01*
X111746466Y-82456443D01*
X111576627Y-82507963D01*
X111510442Y-82514482D01*
X111444260Y-82521000D01*
X111355740Y-82521000D01*
X111289558Y-82514482D01*
X111223373Y-82507963D01*
X111053534Y-82456443D01*
X110897009Y-82372778D01*
X110841108Y-82326901D01*
X110759814Y-82260186D01*
X110665613Y-82145400D01*
X110647222Y-82122991D01*
X110563557Y-81966466D01*
X110512037Y-81796627D01*
X110494641Y-81620000D01*
X110512037Y-81443373D01*
X110563557Y-81273534D01*
X110647222Y-81117009D01*
X110676552Y-81081271D01*
X110759814Y-80979814D01*
X110883479Y-80878326D01*
X110897009Y-80867222D01*
X111053534Y-80783557D01*
X111223373Y-80732037D01*
X111289557Y-80725519D01*
X111355740Y-80719000D01*
X111444260Y-80719000D01*
X111510443Y-80725519D01*
X111510443Y-80725519D01*
G37*
G36*
X114050443Y-80725519D02*
G01*
X114116627Y-80732037D01*
X114286466Y-80783557D01*
X114442991Y-80867222D01*
X114456521Y-80878326D01*
X114580186Y-80979814D01*
X114663448Y-81081271D01*
X114692778Y-81117009D01*
X114776443Y-81273534D01*
X114827963Y-81443373D01*
X114845359Y-81620000D01*
X114827963Y-81796627D01*
X114776443Y-81966466D01*
X114692778Y-82122991D01*
X114674387Y-82145400D01*
X114580186Y-82260186D01*
X114498892Y-82326901D01*
X114442991Y-82372778D01*
X114286466Y-82456443D01*
X114116627Y-82507963D01*
X114050442Y-82514482D01*
X113984260Y-82521000D01*
X113895740Y-82521000D01*
X113829558Y-82514482D01*
X113763373Y-82507963D01*
X113593534Y-82456443D01*
X113437009Y-82372778D01*
X113381108Y-82326901D01*
X113299814Y-82260186D01*
X113205613Y-82145400D01*
X113187222Y-82122991D01*
X113103557Y-81966466D01*
X113052037Y-81796627D01*
X113034641Y-81620000D01*
X113052037Y-81443373D01*
X113103557Y-81273534D01*
X113187222Y-81117009D01*
X113216552Y-81081271D01*
X113299814Y-80979814D01*
X113423479Y-80878326D01*
X113437009Y-80867222D01*
X113593534Y-80783557D01*
X113763373Y-80732037D01*
X113829557Y-80725519D01*
X113895740Y-80719000D01*
X113984260Y-80719000D01*
X114050443Y-80725519D01*
X114050443Y-80725519D01*
G37*
G36*
X61451142Y-80176642D02*
G01*
X61599101Y-80237929D01*
X61732255Y-80326899D01*
X61845501Y-80440145D01*
X61934471Y-80573299D01*
X61995758Y-80721258D01*
X62027000Y-80878325D01*
X62027000Y-81038475D01*
X61995758Y-81195542D01*
X61934471Y-81343501D01*
X61845501Y-81476655D01*
X61732255Y-81589901D01*
X61599101Y-81678871D01*
X61451142Y-81740158D01*
X61294075Y-81771400D01*
X61133925Y-81771400D01*
X60976858Y-81740158D01*
X60828899Y-81678871D01*
X60695745Y-81589901D01*
X60582499Y-81476655D01*
X60493529Y-81343501D01*
X60432242Y-81195542D01*
X60401000Y-81038475D01*
X60401000Y-80878325D01*
X60432242Y-80721258D01*
X60493529Y-80573299D01*
X60582499Y-80440145D01*
X60695745Y-80326899D01*
X60828899Y-80237929D01*
X60976858Y-80176642D01*
X61133925Y-80145400D01*
X61294075Y-80145400D01*
X61451142Y-80176642D01*
X61451142Y-80176642D01*
G37*
G36*
X37051142Y-80176642D02*
G01*
X37199101Y-80237929D01*
X37332255Y-80326899D01*
X37445501Y-80440145D01*
X37534471Y-80573299D01*
X37595758Y-80721258D01*
X37627000Y-80878325D01*
X37627000Y-81038475D01*
X37595758Y-81195542D01*
X37534471Y-81343501D01*
X37445501Y-81476655D01*
X37332255Y-81589901D01*
X37199101Y-81678871D01*
X37051142Y-81740158D01*
X36894075Y-81771400D01*
X36733925Y-81771400D01*
X36576858Y-81740158D01*
X36428899Y-81678871D01*
X36295745Y-81589901D01*
X36182499Y-81476655D01*
X36093529Y-81343501D01*
X36032242Y-81195542D01*
X36001000Y-81038475D01*
X36001000Y-80878325D01*
X36032242Y-80721258D01*
X36093529Y-80573299D01*
X36182499Y-80440145D01*
X36295745Y-80326899D01*
X36428899Y-80237929D01*
X36576858Y-80176642D01*
X36733925Y-80145400D01*
X36894075Y-80145400D01*
X37051142Y-80176642D01*
X37051142Y-80176642D01*
G37*
G36*
X114050442Y-78185518D02*
G01*
X114116627Y-78192037D01*
X114286466Y-78243557D01*
X114442991Y-78327222D01*
X114478729Y-78356552D01*
X114580186Y-78439814D01*
X114663448Y-78541271D01*
X114692778Y-78577009D01*
X114776443Y-78733534D01*
X114827963Y-78903373D01*
X114845359Y-79080000D01*
X114827963Y-79256627D01*
X114776443Y-79426466D01*
X114692778Y-79582991D01*
X114687107Y-79589901D01*
X114580186Y-79720186D01*
X114478729Y-79803448D01*
X114442991Y-79832778D01*
X114286466Y-79916443D01*
X114116627Y-79967963D01*
X114050443Y-79974481D01*
X113984260Y-79981000D01*
X113895740Y-79981000D01*
X113829557Y-79974481D01*
X113763373Y-79967963D01*
X113593534Y-79916443D01*
X113437009Y-79832778D01*
X113401271Y-79803448D01*
X113299814Y-79720186D01*
X113192893Y-79589901D01*
X113187222Y-79582991D01*
X113103557Y-79426466D01*
X113052037Y-79256627D01*
X113034641Y-79080000D01*
X113052037Y-78903373D01*
X113103557Y-78733534D01*
X113187222Y-78577009D01*
X113216552Y-78541271D01*
X113299814Y-78439814D01*
X113401271Y-78356552D01*
X113437009Y-78327222D01*
X113593534Y-78243557D01*
X113763373Y-78192037D01*
X113829558Y-78185518D01*
X113895740Y-78179000D01*
X113984260Y-78179000D01*
X114050442Y-78185518D01*
X114050442Y-78185518D01*
G37*
G36*
X111510442Y-78185518D02*
G01*
X111576627Y-78192037D01*
X111746466Y-78243557D01*
X111902991Y-78327222D01*
X111938729Y-78356552D01*
X112040186Y-78439814D01*
X112123448Y-78541271D01*
X112152778Y-78577009D01*
X112236443Y-78733534D01*
X112287963Y-78903373D01*
X112305359Y-79080000D01*
X112287963Y-79256627D01*
X112236443Y-79426466D01*
X112152778Y-79582991D01*
X112147107Y-79589901D01*
X112040186Y-79720186D01*
X111938729Y-79803448D01*
X111902991Y-79832778D01*
X111746466Y-79916443D01*
X111576627Y-79967963D01*
X111510443Y-79974481D01*
X111444260Y-79981000D01*
X111355740Y-79981000D01*
X111289557Y-79974481D01*
X111223373Y-79967963D01*
X111053534Y-79916443D01*
X110897009Y-79832778D01*
X110861271Y-79803448D01*
X110759814Y-79720186D01*
X110652893Y-79589901D01*
X110647222Y-79582991D01*
X110563557Y-79426466D01*
X110512037Y-79256627D01*
X110494641Y-79080000D01*
X110512037Y-78903373D01*
X110563557Y-78733534D01*
X110647222Y-78577009D01*
X110676552Y-78541271D01*
X110759814Y-78439814D01*
X110861271Y-78356552D01*
X110897009Y-78327222D01*
X111053534Y-78243557D01*
X111223373Y-78192037D01*
X111289558Y-78185518D01*
X111355740Y-78179000D01*
X111444260Y-78179000D01*
X111510442Y-78185518D01*
X111510442Y-78185518D01*
G37*
G36*
X61451142Y-78176642D02*
G01*
X61599101Y-78237929D01*
X61732255Y-78326899D01*
X61845501Y-78440145D01*
X61934471Y-78573299D01*
X61995758Y-78721258D01*
X62027000Y-78878325D01*
X62027000Y-79038475D01*
X61995758Y-79195542D01*
X61934471Y-79343501D01*
X61845501Y-79476655D01*
X61732255Y-79589901D01*
X61599101Y-79678871D01*
X61451142Y-79740158D01*
X61294075Y-79771400D01*
X61133925Y-79771400D01*
X60976858Y-79740158D01*
X60828899Y-79678871D01*
X60695745Y-79589901D01*
X60582499Y-79476655D01*
X60493529Y-79343501D01*
X60432242Y-79195542D01*
X60401000Y-79038475D01*
X60401000Y-78878325D01*
X60432242Y-78721258D01*
X60493529Y-78573299D01*
X60582499Y-78440145D01*
X60695745Y-78326899D01*
X60828899Y-78237929D01*
X60976858Y-78176642D01*
X61133925Y-78145400D01*
X61294075Y-78145400D01*
X61451142Y-78176642D01*
X61451142Y-78176642D01*
G37*
G36*
X37051142Y-78176642D02*
G01*
X37199101Y-78237929D01*
X37332255Y-78326899D01*
X37445501Y-78440145D01*
X37534471Y-78573299D01*
X37595758Y-78721258D01*
X37627000Y-78878325D01*
X37627000Y-79038475D01*
X37595758Y-79195542D01*
X37534471Y-79343501D01*
X37445501Y-79476655D01*
X37332255Y-79589901D01*
X37199101Y-79678871D01*
X37051142Y-79740158D01*
X36894075Y-79771400D01*
X36733925Y-79771400D01*
X36576858Y-79740158D01*
X36428899Y-79678871D01*
X36295745Y-79589901D01*
X36182499Y-79476655D01*
X36093529Y-79343501D01*
X36032242Y-79195542D01*
X36001000Y-79038475D01*
X36001000Y-78878325D01*
X36032242Y-78721258D01*
X36093529Y-78573299D01*
X36182499Y-78440145D01*
X36295745Y-78326899D01*
X36428899Y-78237929D01*
X36576858Y-78176642D01*
X36733925Y-78145400D01*
X36894075Y-78145400D01*
X37051142Y-78176642D01*
X37051142Y-78176642D01*
G37*
G36*
X61451142Y-76176642D02*
G01*
X61599101Y-76237929D01*
X61732255Y-76326899D01*
X61845501Y-76440145D01*
X61934471Y-76573299D01*
X61995758Y-76721258D01*
X62027000Y-76878325D01*
X62027000Y-77038475D01*
X61995758Y-77195542D01*
X61934471Y-77343501D01*
X61845501Y-77476655D01*
X61732255Y-77589901D01*
X61599101Y-77678871D01*
X61451142Y-77740158D01*
X61294075Y-77771400D01*
X61133925Y-77771400D01*
X60976858Y-77740158D01*
X60828899Y-77678871D01*
X60695745Y-77589901D01*
X60582499Y-77476655D01*
X60493529Y-77343501D01*
X60432242Y-77195542D01*
X60401000Y-77038475D01*
X60401000Y-76878325D01*
X60432242Y-76721258D01*
X60493529Y-76573299D01*
X60582499Y-76440145D01*
X60695745Y-76326899D01*
X60828899Y-76237929D01*
X60976858Y-76176642D01*
X61133925Y-76145400D01*
X61294075Y-76145400D01*
X61451142Y-76176642D01*
X61451142Y-76176642D01*
G37*
G36*
X37051142Y-76176642D02*
G01*
X37199101Y-76237929D01*
X37332255Y-76326899D01*
X37445501Y-76440145D01*
X37534471Y-76573299D01*
X37595758Y-76721258D01*
X37627000Y-76878325D01*
X37627000Y-77038475D01*
X37595758Y-77195542D01*
X37534471Y-77343501D01*
X37445501Y-77476655D01*
X37332255Y-77589901D01*
X37199101Y-77678871D01*
X37051142Y-77740158D01*
X36894075Y-77771400D01*
X36733925Y-77771400D01*
X36576858Y-77740158D01*
X36428899Y-77678871D01*
X36295745Y-77589901D01*
X36182499Y-77476655D01*
X36093529Y-77343501D01*
X36032242Y-77195542D01*
X36001000Y-77038475D01*
X36001000Y-76878325D01*
X36032242Y-76721258D01*
X36093529Y-76573299D01*
X36182499Y-76440145D01*
X36295745Y-76326899D01*
X36428899Y-76237929D01*
X36576858Y-76176642D01*
X36733925Y-76145400D01*
X36894075Y-76145400D01*
X37051142Y-76176642D01*
X37051142Y-76176642D01*
G37*
G36*
X111510442Y-75645518D02*
G01*
X111576627Y-75652037D01*
X111746466Y-75703557D01*
X111902991Y-75787222D01*
X111938729Y-75816552D01*
X112040186Y-75899814D01*
X112123448Y-76001271D01*
X112152778Y-76037009D01*
X112236443Y-76193534D01*
X112287963Y-76363373D01*
X112305359Y-76540000D01*
X112287963Y-76716627D01*
X112236443Y-76886466D01*
X112152778Y-77042991D01*
X112123448Y-77078729D01*
X112040186Y-77180186D01*
X111938729Y-77263448D01*
X111902991Y-77292778D01*
X111746466Y-77376443D01*
X111576627Y-77427963D01*
X111510442Y-77434482D01*
X111444260Y-77441000D01*
X111355740Y-77441000D01*
X111289558Y-77434482D01*
X111223373Y-77427963D01*
X111053534Y-77376443D01*
X110897009Y-77292778D01*
X110861271Y-77263448D01*
X110759814Y-77180186D01*
X110676552Y-77078729D01*
X110647222Y-77042991D01*
X110563557Y-76886466D01*
X110512037Y-76716627D01*
X110494641Y-76540000D01*
X110512037Y-76363373D01*
X110563557Y-76193534D01*
X110647222Y-76037009D01*
X110676552Y-76001271D01*
X110759814Y-75899814D01*
X110861271Y-75816552D01*
X110897009Y-75787222D01*
X111053534Y-75703557D01*
X111223373Y-75652037D01*
X111289558Y-75645518D01*
X111355740Y-75639000D01*
X111444260Y-75639000D01*
X111510442Y-75645518D01*
X111510442Y-75645518D01*
G37*
G36*
X114050442Y-75645518D02*
G01*
X114116627Y-75652037D01*
X114286466Y-75703557D01*
X114442991Y-75787222D01*
X114478729Y-75816552D01*
X114580186Y-75899814D01*
X114663448Y-76001271D01*
X114692778Y-76037009D01*
X114776443Y-76193534D01*
X114827963Y-76363373D01*
X114845359Y-76540000D01*
X114827963Y-76716627D01*
X114776443Y-76886466D01*
X114692778Y-77042991D01*
X114663448Y-77078729D01*
X114580186Y-77180186D01*
X114478729Y-77263448D01*
X114442991Y-77292778D01*
X114286466Y-77376443D01*
X114116627Y-77427963D01*
X114050442Y-77434482D01*
X113984260Y-77441000D01*
X113895740Y-77441000D01*
X113829558Y-77434482D01*
X113763373Y-77427963D01*
X113593534Y-77376443D01*
X113437009Y-77292778D01*
X113401271Y-77263448D01*
X113299814Y-77180186D01*
X113216552Y-77078729D01*
X113187222Y-77042991D01*
X113103557Y-76886466D01*
X113052037Y-76716627D01*
X113034641Y-76540000D01*
X113052037Y-76363373D01*
X113103557Y-76193534D01*
X113187222Y-76037009D01*
X113216552Y-76001271D01*
X113299814Y-75899814D01*
X113401271Y-75816552D01*
X113437009Y-75787222D01*
X113593534Y-75703557D01*
X113763373Y-75652037D01*
X113829558Y-75645518D01*
X113895740Y-75639000D01*
X113984260Y-75639000D01*
X114050442Y-75645518D01*
X114050442Y-75645518D01*
G37*
G36*
X37051142Y-74176642D02*
G01*
X37199101Y-74237929D01*
X37332255Y-74326899D01*
X37445501Y-74440145D01*
X37534471Y-74573299D01*
X37595758Y-74721258D01*
X37627000Y-74878325D01*
X37627000Y-75038475D01*
X37595758Y-75195542D01*
X37534471Y-75343501D01*
X37445501Y-75476655D01*
X37332255Y-75589901D01*
X37199101Y-75678871D01*
X37051142Y-75740158D01*
X36894075Y-75771400D01*
X36733925Y-75771400D01*
X36576858Y-75740158D01*
X36428899Y-75678871D01*
X36295745Y-75589901D01*
X36182499Y-75476655D01*
X36093529Y-75343501D01*
X36032242Y-75195542D01*
X36001000Y-75038475D01*
X36001000Y-74878325D01*
X36032242Y-74721258D01*
X36093529Y-74573299D01*
X36182499Y-74440145D01*
X36295745Y-74326899D01*
X36428899Y-74237929D01*
X36576858Y-74176642D01*
X36733925Y-74145400D01*
X36894075Y-74145400D01*
X37051142Y-74176642D01*
X37051142Y-74176642D01*
G37*
G36*
X61451142Y-74176642D02*
G01*
X61599101Y-74237929D01*
X61732255Y-74326899D01*
X61845501Y-74440145D01*
X61934471Y-74573299D01*
X61995758Y-74721258D01*
X62027000Y-74878325D01*
X62027000Y-75038475D01*
X61995758Y-75195542D01*
X61934471Y-75343501D01*
X61845501Y-75476655D01*
X61732255Y-75589901D01*
X61599101Y-75678871D01*
X61451142Y-75740158D01*
X61294075Y-75771400D01*
X61133925Y-75771400D01*
X60976858Y-75740158D01*
X60828899Y-75678871D01*
X60695745Y-75589901D01*
X60582499Y-75476655D01*
X60493529Y-75343501D01*
X60432242Y-75195542D01*
X60401000Y-75038475D01*
X60401000Y-74878325D01*
X60432242Y-74721258D01*
X60493529Y-74573299D01*
X60582499Y-74440145D01*
X60695745Y-74326899D01*
X60828899Y-74237929D01*
X60976858Y-74176642D01*
X61133925Y-74145400D01*
X61294075Y-74145400D01*
X61451142Y-74176642D01*
X61451142Y-74176642D01*
G37*
G36*
X114050442Y-73105518D02*
G01*
X114116627Y-73112037D01*
X114286466Y-73163557D01*
X114442991Y-73247222D01*
X114478729Y-73276552D01*
X114580186Y-73359814D01*
X114663448Y-73461271D01*
X114692778Y-73497009D01*
X114776443Y-73653534D01*
X114827963Y-73823373D01*
X114845359Y-74000000D01*
X114827963Y-74176627D01*
X114776443Y-74346466D01*
X114692778Y-74502991D01*
X114663448Y-74538729D01*
X114580186Y-74640186D01*
X114481399Y-74721257D01*
X114442991Y-74752778D01*
X114286466Y-74836443D01*
X114116627Y-74887963D01*
X114050443Y-74894481D01*
X113984260Y-74901000D01*
X113895740Y-74901000D01*
X113829557Y-74894481D01*
X113763373Y-74887963D01*
X113593534Y-74836443D01*
X113437009Y-74752778D01*
X113398601Y-74721257D01*
X113299814Y-74640186D01*
X113216552Y-74538729D01*
X113187222Y-74502991D01*
X113103557Y-74346466D01*
X113052037Y-74176627D01*
X113034641Y-74000000D01*
X113052037Y-73823373D01*
X113103557Y-73653534D01*
X113187222Y-73497009D01*
X113216552Y-73461271D01*
X113299814Y-73359814D01*
X113401271Y-73276552D01*
X113437009Y-73247222D01*
X113593534Y-73163557D01*
X113763373Y-73112037D01*
X113829558Y-73105518D01*
X113895740Y-73099000D01*
X113984260Y-73099000D01*
X114050442Y-73105518D01*
X114050442Y-73105518D01*
G37*
G36*
X112301000Y-74901000D02*
G01*
X110499000Y-74901000D01*
X110499000Y-73099000D01*
X112301000Y-73099000D01*
X112301000Y-74901000D01*
X112301000Y-74901000D01*
G37*
G36*
X37051142Y-72176642D02*
G01*
X37199101Y-72237929D01*
X37332255Y-72326899D01*
X37445501Y-72440145D01*
X37534471Y-72573299D01*
X37595758Y-72721258D01*
X37627000Y-72878325D01*
X37627000Y-73038475D01*
X37595758Y-73195542D01*
X37534471Y-73343501D01*
X37445501Y-73476655D01*
X37332255Y-73589901D01*
X37199101Y-73678871D01*
X37051142Y-73740158D01*
X36894075Y-73771400D01*
X36733925Y-73771400D01*
X36576858Y-73740158D01*
X36428899Y-73678871D01*
X36295745Y-73589901D01*
X36182499Y-73476655D01*
X36093529Y-73343501D01*
X36032242Y-73195542D01*
X36001000Y-73038475D01*
X36001000Y-72878325D01*
X36032242Y-72721258D01*
X36093529Y-72573299D01*
X36182499Y-72440145D01*
X36295745Y-72326899D01*
X36428899Y-72237929D01*
X36576858Y-72176642D01*
X36733925Y-72145400D01*
X36894075Y-72145400D01*
X37051142Y-72176642D01*
X37051142Y-72176642D01*
G37*
G36*
X61451142Y-72176642D02*
G01*
X61599101Y-72237929D01*
X61732255Y-72326899D01*
X61845501Y-72440145D01*
X61934471Y-72573299D01*
X61995758Y-72721258D01*
X62027000Y-72878325D01*
X62027000Y-73038475D01*
X61995758Y-73195542D01*
X61934471Y-73343501D01*
X61845501Y-73476655D01*
X61732255Y-73589901D01*
X61599101Y-73678871D01*
X61451142Y-73740158D01*
X61294075Y-73771400D01*
X61133925Y-73771400D01*
X60976858Y-73740158D01*
X60828899Y-73678871D01*
X60695745Y-73589901D01*
X60582499Y-73476655D01*
X60493529Y-73343501D01*
X60432242Y-73195542D01*
X60401000Y-73038475D01*
X60401000Y-72878325D01*
X60432242Y-72721258D01*
X60493529Y-72573299D01*
X60582499Y-72440145D01*
X60695745Y-72326899D01*
X60828899Y-72237929D01*
X60976858Y-72176642D01*
X61133925Y-72145400D01*
X61294075Y-72145400D01*
X61451142Y-72176642D01*
X61451142Y-72176642D01*
G37*
G36*
X37051142Y-70176642D02*
G01*
X37199101Y-70237929D01*
X37332255Y-70326899D01*
X37445501Y-70440145D01*
X37534471Y-70573299D01*
X37595758Y-70721258D01*
X37627000Y-70878325D01*
X37627000Y-71038475D01*
X37595758Y-71195542D01*
X37534471Y-71343501D01*
X37445501Y-71476655D01*
X37332255Y-71589901D01*
X37199101Y-71678871D01*
X37051142Y-71740158D01*
X36894075Y-71771400D01*
X36733925Y-71771400D01*
X36576858Y-71740158D01*
X36428899Y-71678871D01*
X36295745Y-71589901D01*
X36182499Y-71476655D01*
X36093529Y-71343501D01*
X36032242Y-71195542D01*
X36001000Y-71038475D01*
X36001000Y-70878325D01*
X36032242Y-70721258D01*
X36093529Y-70573299D01*
X36182499Y-70440145D01*
X36295745Y-70326899D01*
X36428899Y-70237929D01*
X36576858Y-70176642D01*
X36733925Y-70145400D01*
X36894075Y-70145400D01*
X37051142Y-70176642D01*
X37051142Y-70176642D01*
G37*
G36*
X61451142Y-70176642D02*
G01*
X61599101Y-70237929D01*
X61732255Y-70326899D01*
X61845501Y-70440145D01*
X61934471Y-70573299D01*
X61995758Y-70721258D01*
X62027000Y-70878325D01*
X62027000Y-71038475D01*
X61995758Y-71195542D01*
X61934471Y-71343501D01*
X61845501Y-71476655D01*
X61732255Y-71589901D01*
X61599101Y-71678871D01*
X61451142Y-71740158D01*
X61294075Y-71771400D01*
X61133925Y-71771400D01*
X60976858Y-71740158D01*
X60828899Y-71678871D01*
X60695745Y-71589901D01*
X60582499Y-71476655D01*
X60493529Y-71343501D01*
X60432242Y-71195542D01*
X60401000Y-71038475D01*
X60401000Y-70878325D01*
X60432242Y-70721258D01*
X60493529Y-70573299D01*
X60582499Y-70440145D01*
X60695745Y-70326899D01*
X60828899Y-70237929D01*
X60976858Y-70176642D01*
X61133925Y-70145400D01*
X61294075Y-70145400D01*
X61451142Y-70176642D01*
X61451142Y-70176642D01*
G37*
G36*
X61451142Y-68176642D02*
G01*
X61599101Y-68237929D01*
X61732255Y-68326899D01*
X61845501Y-68440145D01*
X61934471Y-68573299D01*
X61995758Y-68721258D01*
X62027000Y-68878325D01*
X62027000Y-69038475D01*
X61995758Y-69195542D01*
X61934471Y-69343501D01*
X61845501Y-69476655D01*
X61732255Y-69589901D01*
X61599101Y-69678871D01*
X61451142Y-69740158D01*
X61294075Y-69771400D01*
X61133925Y-69771400D01*
X60976858Y-69740158D01*
X60828899Y-69678871D01*
X60695745Y-69589901D01*
X60582499Y-69476655D01*
X60493529Y-69343501D01*
X60432242Y-69195542D01*
X60401000Y-69038475D01*
X60401000Y-68878325D01*
X60432242Y-68721258D01*
X60493529Y-68573299D01*
X60582499Y-68440145D01*
X60695745Y-68326899D01*
X60828899Y-68237929D01*
X60976858Y-68176642D01*
X61133925Y-68145400D01*
X61294075Y-68145400D01*
X61451142Y-68176642D01*
X61451142Y-68176642D01*
G37*
G36*
X37051142Y-68176642D02*
G01*
X37199101Y-68237929D01*
X37332255Y-68326899D01*
X37445501Y-68440145D01*
X37534471Y-68573299D01*
X37595758Y-68721258D01*
X37627000Y-68878325D01*
X37627000Y-69038475D01*
X37595758Y-69195542D01*
X37534471Y-69343501D01*
X37445501Y-69476655D01*
X37332255Y-69589901D01*
X37199101Y-69678871D01*
X37051142Y-69740158D01*
X36894075Y-69771400D01*
X36733925Y-69771400D01*
X36576858Y-69740158D01*
X36428899Y-69678871D01*
X36295745Y-69589901D01*
X36182499Y-69476655D01*
X36093529Y-69343501D01*
X36032242Y-69195542D01*
X36001000Y-69038475D01*
X36001000Y-68878325D01*
X36032242Y-68721258D01*
X36093529Y-68573299D01*
X36182499Y-68440145D01*
X36295745Y-68326899D01*
X36428899Y-68237929D01*
X36576858Y-68176642D01*
X36733925Y-68145400D01*
X36894075Y-68145400D01*
X37051142Y-68176642D01*
X37051142Y-68176642D01*
G37*
G36*
X37397642Y-60573518D02*
G01*
X37463827Y-60580037D01*
X37633666Y-60631557D01*
X37790191Y-60715222D01*
X37825929Y-60744552D01*
X37927386Y-60827814D01*
X38010648Y-60929271D01*
X38039978Y-60965009D01*
X38123643Y-61121534D01*
X38175163Y-61291373D01*
X38192559Y-61468000D01*
X38175163Y-61644627D01*
X38123643Y-61814466D01*
X38039978Y-61970991D01*
X38010648Y-62006729D01*
X37927386Y-62108186D01*
X37825929Y-62191448D01*
X37790191Y-62220778D01*
X37633666Y-62304443D01*
X37463827Y-62355963D01*
X37397642Y-62362482D01*
X37331460Y-62369000D01*
X37242940Y-62369000D01*
X37176758Y-62362482D01*
X37110573Y-62355963D01*
X36940734Y-62304443D01*
X36784209Y-62220778D01*
X36748471Y-62191448D01*
X36647014Y-62108186D01*
X36563752Y-62006729D01*
X36534422Y-61970991D01*
X36450757Y-61814466D01*
X36399237Y-61644627D01*
X36381841Y-61468000D01*
X36399237Y-61291373D01*
X36450757Y-61121534D01*
X36534422Y-60965009D01*
X36563752Y-60929271D01*
X36647014Y-60827814D01*
X36748471Y-60744552D01*
X36784209Y-60715222D01*
X36940734Y-60631557D01*
X37110573Y-60580037D01*
X37176758Y-60573518D01*
X37242940Y-60567000D01*
X37331460Y-60567000D01*
X37397642Y-60573518D01*
X37397642Y-60573518D01*
G37*
G36*
X39937642Y-60573518D02*
G01*
X40003827Y-60580037D01*
X40173666Y-60631557D01*
X40330191Y-60715222D01*
X40365929Y-60744552D01*
X40467386Y-60827814D01*
X40550648Y-60929271D01*
X40579978Y-60965009D01*
X40663643Y-61121534D01*
X40715163Y-61291373D01*
X40732559Y-61468000D01*
X40715163Y-61644627D01*
X40663643Y-61814466D01*
X40579978Y-61970991D01*
X40550648Y-62006729D01*
X40467386Y-62108186D01*
X40365929Y-62191448D01*
X40330191Y-62220778D01*
X40173666Y-62304443D01*
X40003827Y-62355963D01*
X39937642Y-62362482D01*
X39871460Y-62369000D01*
X39782940Y-62369000D01*
X39716758Y-62362482D01*
X39650573Y-62355963D01*
X39480734Y-62304443D01*
X39324209Y-62220778D01*
X39288471Y-62191448D01*
X39187014Y-62108186D01*
X39103752Y-62006729D01*
X39074422Y-61970991D01*
X38990757Y-61814466D01*
X38939237Y-61644627D01*
X38921841Y-61468000D01*
X38939237Y-61291373D01*
X38990757Y-61121534D01*
X39074422Y-60965009D01*
X39103752Y-60929271D01*
X39187014Y-60827814D01*
X39288471Y-60744552D01*
X39324209Y-60715222D01*
X39480734Y-60631557D01*
X39650573Y-60580037D01*
X39716758Y-60573518D01*
X39782940Y-60567000D01*
X39871460Y-60567000D01*
X39937642Y-60573518D01*
X39937642Y-60573518D01*
G37*
G36*
X43268200Y-62369000D02*
G01*
X41466200Y-62369000D01*
X41466200Y-60567000D01*
X43268200Y-60567000D01*
X43268200Y-62369000D01*
X43268200Y-62369000D01*
G37*
G36*
X55186680Y-55237480D02*
G01*
X53484680Y-55237480D01*
X53484680Y-53535480D01*
X55186680Y-53535480D01*
X55186680Y-55237480D01*
X55186680Y-55237480D01*
G37*
G36*
X52083908Y-53568183D02*
G01*
X52238780Y-53632333D01*
X52378161Y-53725465D01*
X52496695Y-53843999D01*
X52589827Y-53983380D01*
X52653977Y-54138252D01*
X52686680Y-54302664D01*
X52686680Y-54470296D01*
X52653977Y-54634708D01*
X52589827Y-54789580D01*
X52496695Y-54928961D01*
X52378161Y-55047495D01*
X52238780Y-55140627D01*
X52083908Y-55204777D01*
X51919496Y-55237480D01*
X51751864Y-55237480D01*
X51587452Y-55204777D01*
X51432580Y-55140627D01*
X51293199Y-55047495D01*
X51174665Y-54928961D01*
X51081533Y-54789580D01*
X51017383Y-54634708D01*
X50984680Y-54470296D01*
X50984680Y-54302664D01*
X51017383Y-54138252D01*
X51081533Y-53983380D01*
X51174665Y-53843999D01*
X51293199Y-53725465D01*
X51432580Y-53632333D01*
X51587452Y-53568183D01*
X51751864Y-53535480D01*
X51919496Y-53535480D01*
X52083908Y-53568183D01*
X52083908Y-53568183D01*
G37*
G36*
X50083908Y-53568183D02*
G01*
X50238780Y-53632333D01*
X50378161Y-53725465D01*
X50496695Y-53843999D01*
X50589827Y-53983380D01*
X50653977Y-54138252D01*
X50686680Y-54302664D01*
X50686680Y-54470296D01*
X50653977Y-54634708D01*
X50589827Y-54789580D01*
X50496695Y-54928961D01*
X50378161Y-55047495D01*
X50238780Y-55140627D01*
X50083908Y-55204777D01*
X49919496Y-55237480D01*
X49751864Y-55237480D01*
X49587452Y-55204777D01*
X49432580Y-55140627D01*
X49293199Y-55047495D01*
X49174665Y-54928961D01*
X49081533Y-54789580D01*
X49017383Y-54634708D01*
X48984680Y-54470296D01*
X48984680Y-54302664D01*
X49017383Y-54138252D01*
X49081533Y-53983380D01*
X49174665Y-53843999D01*
X49293199Y-53725465D01*
X49432580Y-53632333D01*
X49587452Y-53568183D01*
X49751864Y-53535480D01*
X49919496Y-53535480D01*
X50083908Y-53568183D01*
X50083908Y-53568183D01*
G37*
G36*
X47583908Y-53568183D02*
G01*
X47738780Y-53632333D01*
X47878161Y-53725465D01*
X47996695Y-53843999D01*
X48089827Y-53983380D01*
X48153977Y-54138252D01*
X48186680Y-54302664D01*
X48186680Y-54470296D01*
X48153977Y-54634708D01*
X48089827Y-54789580D01*
X47996695Y-54928961D01*
X47878161Y-55047495D01*
X47738780Y-55140627D01*
X47583908Y-55204777D01*
X47419496Y-55237480D01*
X47251864Y-55237480D01*
X47087452Y-55204777D01*
X46932580Y-55140627D01*
X46793199Y-55047495D01*
X46674665Y-54928961D01*
X46581533Y-54789580D01*
X46517383Y-54634708D01*
X46484680Y-54470296D01*
X46484680Y-54302664D01*
X46517383Y-54138252D01*
X46581533Y-53983380D01*
X46674665Y-53843999D01*
X46793199Y-53725465D01*
X46932580Y-53632333D01*
X47087452Y-53568183D01*
X47251864Y-53535480D01*
X47419496Y-53535480D01*
X47583908Y-53568183D01*
X47583908Y-53568183D01*
G37*
G36*
X57708265Y-50155282D02*
G01*
X57858090Y-50185084D01*
X58140354Y-50302001D01*
X58394385Y-50471739D01*
X58610421Y-50687775D01*
X58780159Y-50941806D01*
X58897076Y-51224070D01*
X58956680Y-51523720D01*
X58956680Y-51829240D01*
X58897076Y-52128890D01*
X58780159Y-52411154D01*
X58610421Y-52665185D01*
X58394385Y-52881221D01*
X58140354Y-53050959D01*
X57858090Y-53167876D01*
X57708265Y-53197678D01*
X57558441Y-53227480D01*
X57252919Y-53227480D01*
X57103095Y-53197678D01*
X56953270Y-53167876D01*
X56671006Y-53050959D01*
X56416975Y-52881221D01*
X56200939Y-52665185D01*
X56031201Y-52411154D01*
X55914284Y-52128890D01*
X55854680Y-51829240D01*
X55854680Y-51523720D01*
X55914284Y-51224070D01*
X56031201Y-50941806D01*
X56200939Y-50687775D01*
X56416975Y-50471739D01*
X56671006Y-50302001D01*
X56953270Y-50185084D01*
X57103095Y-50155282D01*
X57252919Y-50125480D01*
X57558441Y-50125480D01*
X57708265Y-50155282D01*
X57708265Y-50155282D01*
G37*
G36*
X44568265Y-50155282D02*
G01*
X44718090Y-50185084D01*
X45000354Y-50302001D01*
X45254385Y-50471739D01*
X45470421Y-50687775D01*
X45640159Y-50941806D01*
X45757076Y-51224070D01*
X45816680Y-51523720D01*
X45816680Y-51829240D01*
X45757076Y-52128890D01*
X45640159Y-52411154D01*
X45470421Y-52665185D01*
X45254385Y-52881221D01*
X45000354Y-53050959D01*
X44718090Y-53167876D01*
X44568265Y-53197678D01*
X44418441Y-53227480D01*
X44112919Y-53227480D01*
X43963095Y-53197678D01*
X43813270Y-53167876D01*
X43531006Y-53050959D01*
X43276975Y-52881221D01*
X43060939Y-52665185D01*
X42891201Y-52411154D01*
X42774284Y-52128890D01*
X42714680Y-51829240D01*
X42714680Y-51523720D01*
X42774284Y-51224070D01*
X42891201Y-50941806D01*
X43060939Y-50687775D01*
X43276975Y-50471739D01*
X43531006Y-50302001D01*
X43813270Y-50185084D01*
X43963095Y-50155282D01*
X44112919Y-50125480D01*
X44418441Y-50125480D01*
X44568265Y-50155282D01*
X44568265Y-50155282D01*
G37*
G36*
X99950410Y-46075525D02*
G01*
X100035426Y-46101314D01*
X100113775Y-46143193D01*
X100182449Y-46199551D01*
X100238807Y-46268225D01*
X100280686Y-46346574D01*
X100306475Y-46431590D01*
X100315182Y-46520000D01*
X100306475Y-46608410D01*
X100280686Y-46693426D01*
X100238807Y-46771775D01*
X100182449Y-46840449D01*
X100113775Y-46896807D01*
X100035426Y-46938686D01*
X99950410Y-46964475D01*
X99884158Y-46971000D01*
X99839842Y-46971000D01*
X99773590Y-46964475D01*
X99688574Y-46938686D01*
X99610225Y-46896807D01*
X99550572Y-46847851D01*
X99530198Y-46834238D01*
X99507559Y-46824860D01*
X99483526Y-46820080D01*
X99459022Y-46820080D01*
X99434988Y-46824861D01*
X99412350Y-46834238D01*
X99391975Y-46847852D01*
X99374648Y-46865179D01*
X99361035Y-46885553D01*
X99351657Y-46908192D01*
X99346877Y-46932225D01*
X99346877Y-46956729D01*
X99351658Y-46980763D01*
X99355159Y-46989216D01*
X99401772Y-47142879D01*
X99413000Y-47256882D01*
X99413000Y-47883118D01*
X99401772Y-47997121D01*
X99357398Y-48143402D01*
X99285345Y-48278204D01*
X99188367Y-48396372D01*
X99070206Y-48493343D01*
X98935401Y-48565398D01*
X98789120Y-48609772D01*
X98637000Y-48624754D01*
X98484879Y-48609772D01*
X98338598Y-48565398D01*
X98203796Y-48493345D01*
X98085628Y-48396367D01*
X97988657Y-48278206D01*
X97916602Y-48143401D01*
X97872228Y-47997120D01*
X97861000Y-47883117D01*
X97861000Y-47256882D01*
X97872228Y-47142879D01*
X97916601Y-46996600D01*
X97988657Y-46861794D01*
X98085632Y-46743631D01*
X98122883Y-46713060D01*
X98203793Y-46646658D01*
X98203794Y-46646657D01*
X98203797Y-46646655D01*
X98338599Y-46574602D01*
X98484880Y-46530228D01*
X98637000Y-46515246D01*
X98789121Y-46530228D01*
X98935402Y-46574602D01*
X99070204Y-46646655D01*
X99070207Y-46646657D01*
X99070208Y-46646658D01*
X99127195Y-46693426D01*
X99188371Y-46743633D01*
X99218303Y-46780105D01*
X99235630Y-46797432D01*
X99256004Y-46811046D01*
X99278643Y-46820423D01*
X99302676Y-46825204D01*
X99327180Y-46825204D01*
X99351213Y-46820424D01*
X99373852Y-46811047D01*
X99394227Y-46797433D01*
X99411554Y-46780106D01*
X99425168Y-46759732D01*
X99434545Y-46737093D01*
X99439326Y-46713060D01*
X99439326Y-46688556D01*
X99434546Y-46664523D01*
X99417525Y-46608412D01*
X99408818Y-46520000D01*
X99417525Y-46431590D01*
X99443314Y-46346574D01*
X99485193Y-46268225D01*
X99541551Y-46199551D01*
X99610225Y-46143193D01*
X99688574Y-46101314D01*
X99773590Y-46075525D01*
X99839842Y-46069000D01*
X99884158Y-46069000D01*
X99950410Y-46075525D01*
X99950410Y-46075525D01*
G37*
G36*
X104950410Y-46075525D02*
G01*
X105035426Y-46101314D01*
X105113775Y-46143193D01*
X105182449Y-46199551D01*
X105238807Y-46268225D01*
X105280686Y-46346574D01*
X105306475Y-46431590D01*
X105315182Y-46520000D01*
X105306475Y-46608413D01*
X105289454Y-46664522D01*
X105284673Y-46688556D01*
X105284673Y-46713060D01*
X105289453Y-46737093D01*
X105298831Y-46759732D01*
X105312444Y-46780106D01*
X105329771Y-46797433D01*
X105350146Y-46811047D01*
X105372784Y-46820424D01*
X105396818Y-46825205D01*
X105421322Y-46825205D01*
X105445355Y-46820425D01*
X105467994Y-46811047D01*
X105488368Y-46797434D01*
X105505695Y-46780107D01*
X105535628Y-46743634D01*
X105653797Y-46646655D01*
X105788599Y-46574602D01*
X105934880Y-46530228D01*
X106087000Y-46515246D01*
X106239121Y-46530228D01*
X106385402Y-46574602D01*
X106520204Y-46646655D01*
X106520207Y-46646657D01*
X106520208Y-46646658D01*
X106638369Y-46743631D01*
X106723902Y-46847852D01*
X106735345Y-46861796D01*
X106807398Y-46996598D01*
X106851772Y-47142879D01*
X106863000Y-47256882D01*
X106863000Y-47883118D01*
X106851772Y-47997121D01*
X106807398Y-48143402D01*
X106735345Y-48278204D01*
X106638367Y-48396372D01*
X106520206Y-48493343D01*
X106385401Y-48565398D01*
X106239120Y-48609772D01*
X106087000Y-48624754D01*
X105934879Y-48609772D01*
X105788598Y-48565398D01*
X105653796Y-48493345D01*
X105535628Y-48396367D01*
X105438657Y-48278206D01*
X105366602Y-48143401D01*
X105322228Y-47997120D01*
X105311000Y-47883117D01*
X105311000Y-47256882D01*
X105322228Y-47142879D01*
X105368843Y-46989210D01*
X105372346Y-46980751D01*
X105377124Y-46956717D01*
X105377122Y-46932213D01*
X105372339Y-46908180D01*
X105362959Y-46885542D01*
X105349344Y-46865169D01*
X105332015Y-46847844D01*
X105311639Y-46834232D01*
X105289000Y-46824857D01*
X105264966Y-46820079D01*
X105240462Y-46820081D01*
X105216429Y-46824864D01*
X105193791Y-46834244D01*
X105173428Y-46847851D01*
X105113775Y-46896807D01*
X105035426Y-46938686D01*
X104950410Y-46964475D01*
X104884158Y-46971000D01*
X104839842Y-46971000D01*
X104773590Y-46964475D01*
X104688574Y-46938686D01*
X104610225Y-46896807D01*
X104541551Y-46840449D01*
X104485193Y-46771775D01*
X104443314Y-46693426D01*
X104417525Y-46608410D01*
X104408818Y-46520000D01*
X104417525Y-46431590D01*
X104443314Y-46346574D01*
X104485193Y-46268225D01*
X104541551Y-46199551D01*
X104610225Y-46143193D01*
X104688574Y-46101314D01*
X104773590Y-46075525D01*
X104839842Y-46069000D01*
X104884158Y-46069000D01*
X104950410Y-46075525D01*
X104950410Y-46075525D01*
G37*
G36*
X37574098Y-43267033D02*
G01*
X38038350Y-43459332D01*
X38038352Y-43459333D01*
X38456168Y-43738509D01*
X38811491Y-44093832D01*
X39045779Y-44444469D01*
X39090668Y-44511650D01*
X39282967Y-44975902D01*
X39381000Y-45468747D01*
X39381000Y-45971253D01*
X39282967Y-46464098D01*
X39099018Y-46908192D01*
X39090667Y-46928352D01*
X38811491Y-47346168D01*
X38456168Y-47701491D01*
X38038352Y-47980667D01*
X38038351Y-47980668D01*
X38038350Y-47980668D01*
X37574098Y-48172967D01*
X37081253Y-48271000D01*
X36578747Y-48271000D01*
X36085902Y-48172967D01*
X35621650Y-47980668D01*
X35621649Y-47980668D01*
X35621648Y-47980667D01*
X35203832Y-47701491D01*
X34848509Y-47346168D01*
X34569333Y-46928352D01*
X34560982Y-46908192D01*
X34377033Y-46464098D01*
X34279000Y-45971253D01*
X34279000Y-45468747D01*
X34377033Y-44975902D01*
X34569332Y-44511650D01*
X34614221Y-44444469D01*
X34848509Y-44093832D01*
X35203832Y-43738509D01*
X35621648Y-43459333D01*
X35621650Y-43459332D01*
X36085902Y-43267033D01*
X36578747Y-43169000D01*
X37081253Y-43169000D01*
X37574098Y-43267033D01*
X37574098Y-43267033D01*
G37*
G36*
X113774098Y-43267033D02*
G01*
X114238350Y-43459332D01*
X114238352Y-43459333D01*
X114656168Y-43738509D01*
X115011491Y-44093832D01*
X115245779Y-44444469D01*
X115290668Y-44511650D01*
X115482967Y-44975902D01*
X115581000Y-45468747D01*
X115581000Y-45971253D01*
X115482967Y-46464098D01*
X115299018Y-46908192D01*
X115290667Y-46928352D01*
X115011491Y-47346168D01*
X114656168Y-47701491D01*
X114238352Y-47980667D01*
X114238351Y-47980668D01*
X114238350Y-47980668D01*
X113774098Y-48172967D01*
X113281253Y-48271000D01*
X112778747Y-48271000D01*
X112285902Y-48172967D01*
X111821650Y-47980668D01*
X111821649Y-47980668D01*
X111821648Y-47980667D01*
X111403832Y-47701491D01*
X111048509Y-47346168D01*
X110769333Y-46928352D01*
X110760982Y-46908192D01*
X110577033Y-46464098D01*
X110479000Y-45971253D01*
X110479000Y-45468747D01*
X110577033Y-44975902D01*
X110769332Y-44511650D01*
X110814221Y-44444469D01*
X111048509Y-44093832D01*
X111403832Y-43738509D01*
X111821648Y-43459333D01*
X111821650Y-43459332D01*
X112285902Y-43267033D01*
X112778747Y-43169000D01*
X113281253Y-43169000D01*
X113774098Y-43267033D01*
X113774098Y-43267033D01*
G37*
G36*
X106359715Y-42828058D02*
G01*
X106477722Y-42863855D01*
X106586468Y-42921981D01*
X106681790Y-43000210D01*
X106760019Y-43095532D01*
X106818145Y-43204278D01*
X106853942Y-43322285D01*
X106863000Y-43414254D01*
X106863000Y-44125746D01*
X106853942Y-44217715D01*
X106818145Y-44335722D01*
X106760019Y-44444468D01*
X106681790Y-44539790D01*
X106586468Y-44618019D01*
X106477721Y-44676145D01*
X106359714Y-44711942D01*
X106237000Y-44724028D01*
X106114285Y-44711942D01*
X105996278Y-44676145D01*
X105887532Y-44618019D01*
X105792210Y-44539790D01*
X105713981Y-44444468D01*
X105655855Y-44335721D01*
X105620058Y-44217714D01*
X105611000Y-44125745D01*
X105611000Y-43414254D01*
X105620058Y-43322285D01*
X105655855Y-43204279D01*
X105713982Y-43095532D01*
X105792211Y-43000210D01*
X105887533Y-42921981D01*
X105996279Y-42863855D01*
X106114286Y-42828058D01*
X106237000Y-42815972D01*
X106359715Y-42828058D01*
X106359715Y-42828058D01*
G37*
G36*
X98609715Y-42828058D02*
G01*
X98727722Y-42863855D01*
X98836468Y-42921981D01*
X98931790Y-43000210D01*
X99010019Y-43095532D01*
X99068145Y-43204278D01*
X99103942Y-43322285D01*
X99113000Y-43414254D01*
X99113000Y-44125746D01*
X99103942Y-44217715D01*
X99068145Y-44335722D01*
X99010019Y-44444468D01*
X98931790Y-44539790D01*
X98836468Y-44618019D01*
X98727721Y-44676145D01*
X98609714Y-44711942D01*
X98487000Y-44724028D01*
X98364285Y-44711942D01*
X98246278Y-44676145D01*
X98137532Y-44618019D01*
X98042210Y-44539790D01*
X97963981Y-44444468D01*
X97905855Y-44335721D01*
X97870058Y-44217714D01*
X97861000Y-44125745D01*
X97861000Y-43414254D01*
X97870058Y-43322285D01*
X97905855Y-43204279D01*
X97963982Y-43095532D01*
X98042211Y-43000210D01*
X98137533Y-42921981D01*
X98246279Y-42863855D01*
X98364286Y-42828058D01*
X98487000Y-42815972D01*
X98609715Y-42828058D01*
X98609715Y-42828058D01*
G37*
M02*
