G04 #@! TF.GenerationSoftware,KiCad,Pcbnew,5.1.4+dfsg1-1*
G04 #@! TF.CreationDate,2020-05-25T12:06:47-05:00*
G04 #@! TF.ProjectId,try1,74727931-2e6b-4696-9361-645f70636258,rev?*
G04 #@! TF.SameCoordinates,Original*
G04 #@! TF.FileFunction,Other,User*
%FSLAX46Y46*%
G04 Gerber Fmt 4.6, Leading zero omitted, Abs format (unit mm)*
G04 Created by KiCad (PCBNEW 5.1.4+dfsg1-1) date 2020-05-25 12:06:47*
%MOMM*%
%LPD*%
G04 APERTURE LIST*
%ADD10C,0.050000*%
%ADD11C,0.152400*%
%ADD12C,0.100000*%
G04 APERTURE END LIST*
D10*
X41650000Y-52730000D02*
X38350000Y-52730000D01*
X41650000Y-51270000D02*
X41650000Y-52730000D01*
X38350000Y-51270000D02*
X41650000Y-51270000D01*
X38350000Y-52730000D02*
X38350000Y-51270000D01*
X111675000Y-54330000D02*
X108375000Y-54330000D01*
X111675000Y-52870000D02*
X111675000Y-54330000D01*
X108375000Y-52870000D02*
X111675000Y-52870000D01*
X108375000Y-54330000D02*
X108375000Y-52870000D01*
D11*
X92976700Y-95490100D02*
X91668600Y-95490100D01*
X92976700Y-95745300D02*
X92976700Y-95490100D01*
X97980500Y-95745300D02*
X92976700Y-95745300D01*
X97980500Y-95490100D02*
X97980500Y-95745300D01*
X99288600Y-95490100D02*
X97980500Y-95490100D01*
X99288600Y-88888500D02*
X99288600Y-95490100D01*
X97980500Y-88888500D02*
X99288600Y-88888500D01*
X97980500Y-88633300D02*
X97980500Y-88888500D01*
X92976700Y-88633300D02*
X97980500Y-88633300D01*
X92976700Y-88888500D02*
X92976700Y-88633300D01*
X91668600Y-88888500D02*
X92976700Y-88888500D01*
X91668600Y-95490100D02*
X91668600Y-88888500D01*
D10*
X81466320Y-71610000D02*
X90786320Y-71610000D01*
X81466320Y-77490000D02*
X90786320Y-77490000D01*
X81466320Y-71610000D02*
X81466320Y-77490000D01*
X90786320Y-71610000D02*
X90786320Y-77490000D01*
X68230000Y-104925000D02*
X68230000Y-108225000D01*
X66770000Y-104925000D02*
X68230000Y-104925000D01*
X66770000Y-108225000D02*
X66770000Y-104925000D01*
X68230000Y-108225000D02*
X66770000Y-108225000D01*
X105673300Y-108289500D02*
X105673300Y-104689500D01*
X84323300Y-108289500D02*
X105673300Y-108289500D01*
X84323300Y-104689500D02*
X84323300Y-108289500D01*
X105673300Y-104689500D02*
X84323300Y-104689500D01*
X102444300Y-87440500D02*
X102444300Y-90740500D01*
X100984300Y-87440500D02*
X102444300Y-87440500D01*
X100984300Y-90740500D02*
X100984300Y-87440500D01*
X102444300Y-90740500D02*
X100984300Y-90740500D01*
X81343800Y-73170800D02*
X78043800Y-73170800D01*
X81343800Y-71710800D02*
X81343800Y-73170800D01*
X78043800Y-71710800D02*
X81343800Y-71710800D01*
X78043800Y-73170800D02*
X78043800Y-71710800D01*
X100920300Y-87426500D02*
X100920300Y-90726500D01*
X99460300Y-87426500D02*
X100920300Y-87426500D01*
X99460300Y-90726500D02*
X99460300Y-87426500D01*
X100920300Y-90726500D02*
X99460300Y-90726500D01*
X64522800Y-64737700D02*
X71722800Y-64737700D01*
X71722800Y-64737700D02*
X71722800Y-55937700D01*
X71722800Y-55937700D02*
X64522800Y-55937700D01*
X64522800Y-55937700D02*
X64522800Y-64737700D01*
X42314000Y-106808400D02*
X35564000Y-100058400D01*
X40014000Y-63408400D02*
X35564000Y-67858400D01*
X62464000Y-66358400D02*
X59514000Y-63408400D01*
X62464000Y-106808400D02*
X42314000Y-106808400D01*
X35564000Y-100058400D02*
X35564000Y-67858400D01*
X62464000Y-106808400D02*
X62464000Y-66358400D01*
X59514000Y-63408400D02*
X40014000Y-63408400D01*
X73044300Y-104113500D02*
X73044300Y-100813500D01*
X74504300Y-104113500D02*
X73044300Y-104113500D01*
X74504300Y-100813500D02*
X74504300Y-104113500D01*
X73044300Y-100813500D02*
X74504300Y-100813500D01*
X62724280Y-56401080D02*
X62724280Y-53101080D01*
X64184280Y-56401080D02*
X62724280Y-56401080D01*
X64184280Y-53101080D02*
X64184280Y-56401080D01*
X62724280Y-53101080D02*
X64184280Y-53101080D01*
X53930800Y-63109000D02*
X53930800Y-59809000D01*
X55390800Y-63109000D02*
X53930800Y-63109000D01*
X55390800Y-59809000D02*
X55390800Y-63109000D01*
X53930800Y-59809000D02*
X55390800Y-59809000D01*
X112527240Y-70178680D02*
X109227240Y-70178680D01*
X112527240Y-68718680D02*
X112527240Y-70178680D01*
X109227240Y-68718680D02*
X112527240Y-68718680D01*
X109227240Y-70178680D02*
X109227240Y-68718680D01*
X104121200Y-52512200D02*
X104121200Y-49212200D01*
X105581200Y-52512200D02*
X104121200Y-52512200D01*
X105581200Y-49212200D02*
X105581200Y-52512200D01*
X104121200Y-49212200D02*
X105581200Y-49212200D01*
D12*
X72512000Y-43907440D02*
X72512000Y-50511440D01*
X60828000Y-43907440D02*
X72512000Y-43907440D01*
X60828000Y-50511440D02*
X60828000Y-43907440D01*
X72512000Y-50511440D02*
X60828000Y-50511440D01*
X109143800Y-55112920D02*
X115747800Y-55112920D01*
X109143800Y-66796920D02*
X109143800Y-55112920D01*
X115747800Y-66796920D02*
X109143800Y-66796920D01*
X115747800Y-55112920D02*
X115747800Y-66796920D01*
D10*
X96132900Y-68020200D02*
X96132900Y-64720200D01*
X97592900Y-68020200D02*
X96132900Y-68020200D01*
X97592900Y-64720200D02*
X97592900Y-68020200D01*
X96132900Y-64720200D02*
X97592900Y-64720200D01*
X103675300Y-82453600D02*
X103675300Y-74213600D01*
X95435300Y-82453600D02*
X103675300Y-82453600D01*
X95435300Y-74213600D02*
X95435300Y-82453600D01*
X103675300Y-74213600D02*
X95435300Y-74213600D01*
X115750000Y-72200000D02*
X109600000Y-72200000D01*
X115750000Y-101200000D02*
X115750000Y-72200000D01*
X109600000Y-101200000D02*
X115750000Y-101200000D01*
X109600000Y-72200000D02*
X109600000Y-101200000D01*
D12*
X93924000Y-79338800D02*
X93924000Y-84338800D01*
X93924000Y-79338800D02*
X86924000Y-79338800D01*
X93924000Y-84338800D02*
X86924000Y-84338800D01*
X86924000Y-79338800D02*
X86924000Y-84338800D01*
D10*
X74179880Y-52050000D02*
X81379880Y-52050000D01*
X81379880Y-52050000D02*
X81379880Y-43250000D01*
X81379880Y-43250000D02*
X74179880Y-43250000D01*
X74179880Y-43250000D02*
X74179880Y-52050000D01*
X86176300Y-65093300D02*
X93376300Y-65093300D01*
X93376300Y-65093300D02*
X93376300Y-56293300D01*
X93376300Y-56293300D02*
X86176300Y-56293300D01*
X86176300Y-56293300D02*
X86176300Y-65093300D01*
X75767380Y-56651440D02*
X75767380Y-65451440D01*
X82967380Y-56651440D02*
X75767380Y-56651440D01*
X82967380Y-65451440D02*
X82967380Y-56651440D01*
X75767380Y-65451440D02*
X82967380Y-65451440D01*
X85960400Y-51986900D02*
X93160400Y-51986900D01*
X93160400Y-51986900D02*
X93160400Y-43186900D01*
X93160400Y-43186900D02*
X85960400Y-43186900D01*
X85960400Y-43186900D02*
X85960400Y-51986900D01*
X76091800Y-100813500D02*
X76091800Y-104113500D01*
X74631800Y-100813500D02*
X76091800Y-100813500D01*
X74631800Y-104113500D02*
X74631800Y-100813500D01*
X76091800Y-104113500D02*
X74631800Y-104113500D01*
D12*
X46262600Y-63230000D02*
X49262600Y-63230000D01*
X49262600Y-61230000D02*
X49262600Y-63230000D01*
X46262600Y-61230000D02*
X49262600Y-61230000D01*
X46262600Y-63230000D02*
X46262600Y-61230000D01*
D10*
X46229120Y-56019760D02*
X46229120Y-59519760D01*
X46229120Y-59519760D02*
X43779120Y-59519760D01*
X43779120Y-59519760D02*
X43779120Y-56019760D01*
X43779120Y-56019760D02*
X46229120Y-56019760D01*
X106935000Y-106270000D02*
X110235000Y-106270000D01*
X106935000Y-107730000D02*
X106935000Y-106270000D01*
X110235000Y-107730000D02*
X106935000Y-107730000D01*
X110235000Y-106270000D02*
X110235000Y-107730000D01*
X107937000Y-47784000D02*
X111237000Y-47784000D01*
X107937000Y-49244000D02*
X107937000Y-47784000D01*
X111237000Y-49244000D02*
X107937000Y-49244000D01*
X111237000Y-47784000D02*
X111237000Y-49244000D01*
X43751800Y-108730000D02*
X40451800Y-108730000D01*
X43751800Y-107270000D02*
X43751800Y-108730000D01*
X40451800Y-107270000D02*
X43751800Y-107270000D01*
X40451800Y-108730000D02*
X40451800Y-107270000D01*
X34677600Y-51891200D02*
X34677600Y-48591200D01*
X36137600Y-51891200D02*
X34677600Y-51891200D01*
X36137600Y-48591200D02*
X36137600Y-51891200D01*
X34677600Y-48591200D02*
X36137600Y-48591200D01*
X102444800Y-52512200D02*
X102444800Y-49212200D01*
X103904800Y-52512200D02*
X102444800Y-52512200D01*
X103904800Y-49212200D02*
X103904800Y-52512200D01*
X102444800Y-49212200D02*
X103904800Y-49212200D01*
X57283600Y-63309800D02*
X57283600Y-60009800D01*
X58743600Y-63309800D02*
X57283600Y-63309800D01*
X58743600Y-60009800D02*
X58743600Y-63309800D01*
X57283600Y-60009800D02*
X58743600Y-60009800D01*
X115780000Y-106680000D02*
G75*
G03X115780000Y-106680000I-2750000J0D01*
G01*
X115780000Y-45720000D02*
G75*
G03X115780000Y-45720000I-2750000J0D01*
G01*
X39580000Y-106680000D02*
G75*
G03X39580000Y-106680000I-2750000J0D01*
G01*
X39580000Y-45720000D02*
G75*
G03X39580000Y-45720000I-2750000J0D01*
G01*
X102825800Y-61823900D02*
X102825800Y-58523900D01*
X104285800Y-61823900D02*
X102825800Y-61823900D01*
X104285800Y-58523900D02*
X104285800Y-61823900D01*
X102825800Y-58523900D02*
X104285800Y-58523900D01*
X101301800Y-61823900D02*
X101301800Y-58523900D01*
X102761800Y-61823900D02*
X101301800Y-61823900D01*
X102761800Y-58523900D02*
X102761800Y-61823900D01*
X101301800Y-58523900D02*
X102761800Y-58523900D01*
X99777800Y-61823900D02*
X99777800Y-58523900D01*
X101237800Y-61823900D02*
X99777800Y-61823900D01*
X101237800Y-58523900D02*
X101237800Y-61823900D01*
X99777800Y-58523900D02*
X101237800Y-58523900D01*
X83800700Y-83641900D02*
X83800700Y-86941900D01*
X82340700Y-83641900D02*
X83800700Y-83641900D01*
X82340700Y-86941900D02*
X82340700Y-83641900D01*
X83800700Y-86941900D02*
X82340700Y-86941900D01*
X82264000Y-83654600D02*
X82264000Y-86954600D01*
X80804000Y-83654600D02*
X82264000Y-83654600D01*
X80804000Y-86954600D02*
X80804000Y-83654600D01*
X82264000Y-86954600D02*
X80804000Y-86954600D01*
X80698144Y-80236801D02*
X77398144Y-80236801D01*
X80698144Y-78776801D02*
X80698144Y-80236801D01*
X77398144Y-78776801D02*
X80698144Y-78776801D01*
X77398144Y-80236801D02*
X77398144Y-78776801D01*
X80696100Y-81778300D02*
X77396100Y-81778300D01*
X80696100Y-80318300D02*
X80696100Y-81778300D01*
X77396100Y-80318300D02*
X80696100Y-80318300D01*
X77396100Y-81778300D02*
X77396100Y-80318300D01*
X80696100Y-83302300D02*
X77396100Y-83302300D01*
X80696100Y-81842300D02*
X80696100Y-83302300D01*
X77396100Y-81842300D02*
X80696100Y-81842300D01*
X77396100Y-83302300D02*
X77396100Y-81842300D01*
X84664300Y-99999500D02*
X84664300Y-103299500D01*
X83204300Y-99999500D02*
X84664300Y-99999500D01*
X83204300Y-103299500D02*
X83204300Y-99999500D01*
X84664300Y-103299500D02*
X83204300Y-103299500D01*
X87839300Y-99999500D02*
X87839300Y-103299500D01*
X86379300Y-99999500D02*
X87839300Y-99999500D01*
X86379300Y-103299500D02*
X86379300Y-99999500D01*
X87839300Y-103299500D02*
X86379300Y-103299500D01*
X91014300Y-99999500D02*
X91014300Y-103299500D01*
X89554300Y-99999500D02*
X91014300Y-99999500D01*
X89554300Y-103299500D02*
X89554300Y-99999500D01*
X91014300Y-103299500D02*
X89554300Y-103299500D01*
X94189300Y-99999500D02*
X94189300Y-103299500D01*
X92729300Y-99999500D02*
X94189300Y-99999500D01*
X92729300Y-103299500D02*
X92729300Y-99999500D01*
X94189300Y-103299500D02*
X92729300Y-103299500D01*
X97364300Y-99999500D02*
X97364300Y-103299500D01*
X95904300Y-99999500D02*
X97364300Y-99999500D01*
X95904300Y-103299500D02*
X95904300Y-99999500D01*
X97364300Y-103299500D02*
X95904300Y-103299500D01*
X100539300Y-99999500D02*
X100539300Y-103299500D01*
X99079300Y-99999500D02*
X100539300Y-99999500D01*
X99079300Y-103299500D02*
X99079300Y-99999500D01*
X100539300Y-103299500D02*
X99079300Y-103299500D01*
X103714300Y-99999500D02*
X103714300Y-103299500D01*
X102254300Y-99999500D02*
X103714300Y-99999500D01*
X102254300Y-103299500D02*
X102254300Y-99999500D01*
X103714300Y-103299500D02*
X102254300Y-103299500D01*
X106889300Y-99999500D02*
X106889300Y-103299500D01*
X105429300Y-99999500D02*
X106889300Y-99999500D01*
X105429300Y-103299500D02*
X105429300Y-99999500D01*
X106889300Y-103299500D02*
X105429300Y-103299500D01*
X91404680Y-94293440D02*
X88104680Y-94293440D01*
X91404680Y-92833440D02*
X91404680Y-94293440D01*
X88104680Y-92833440D02*
X91404680Y-92833440D01*
X88104680Y-94293440D02*
X88104680Y-92833440D01*
X91667440Y-90849200D02*
X88367440Y-90849200D01*
X91667440Y-89389200D02*
X91667440Y-90849200D01*
X88367440Y-89389200D02*
X91667440Y-89389200D01*
X88367440Y-90849200D02*
X88367440Y-89389200D01*
X91648360Y-92530000D02*
X88348360Y-92530000D01*
X91648360Y-91070000D02*
X91648360Y-92530000D01*
X88348360Y-91070000D02*
X91648360Y-91070000D01*
X88348360Y-92530000D02*
X88348360Y-91070000D01*
X93676720Y-74744880D02*
X93676720Y-71444880D01*
X95136720Y-74744880D02*
X93676720Y-74744880D01*
X95136720Y-71444880D02*
X95136720Y-74744880D01*
X93676720Y-71444880D02*
X95136720Y-71444880D01*
X71456800Y-104127500D02*
X71456800Y-100827500D01*
X72916800Y-104127500D02*
X71456800Y-104127500D01*
X72916800Y-100827500D02*
X72916800Y-104127500D01*
X71456800Y-100827500D02*
X72916800Y-100827500D01*
X69869300Y-104127500D02*
X69869300Y-100827500D01*
X71329300Y-104127500D02*
X69869300Y-104127500D01*
X71329300Y-100827500D02*
X71329300Y-104127500D01*
X69869300Y-100827500D02*
X71329300Y-100827500D01*
X68281800Y-104127500D02*
X68281800Y-100827500D01*
X69741800Y-104127500D02*
X68281800Y-104127500D01*
X69741800Y-100827500D02*
X69741800Y-104127500D01*
X68281800Y-100827500D02*
X69741800Y-100827500D01*
X77806800Y-104099500D02*
X77806800Y-100799500D01*
X79266800Y-104099500D02*
X77806800Y-104099500D01*
X79266800Y-100799500D02*
X79266800Y-104099500D01*
X77806800Y-100799500D02*
X79266800Y-100799500D01*
X76219300Y-104099500D02*
X76219300Y-100799500D01*
X77679300Y-104099500D02*
X76219300Y-104099500D01*
X77679300Y-100799500D02*
X77679300Y-104099500D01*
X76219300Y-100799500D02*
X77679300Y-100799500D01*
X65630000Y-103841800D02*
X65630000Y-107141800D01*
X64170000Y-103841800D02*
X65630000Y-103841800D01*
X64170000Y-107141800D02*
X64170000Y-103841800D01*
X65630000Y-107141800D02*
X64170000Y-107141800D01*
X64080000Y-103841800D02*
X64080000Y-107141800D01*
X62620000Y-103841800D02*
X64080000Y-103841800D01*
X62620000Y-107141800D02*
X62620000Y-103841800D01*
X64080000Y-107141800D02*
X62620000Y-107141800D01*
X55708800Y-63309800D02*
X55708800Y-60009800D01*
X57168800Y-63309800D02*
X55708800Y-63309800D01*
X57168800Y-60009800D02*
X57168800Y-63309800D01*
X55708800Y-60009800D02*
X57168800Y-60009800D01*
X92420400Y-55786900D02*
X92420400Y-52086900D01*
X94320400Y-55786900D02*
X92420400Y-55786900D01*
X94320400Y-52086900D02*
X94320400Y-55786900D01*
X92420400Y-52086900D02*
X94320400Y-52086900D01*
X82227380Y-65551440D02*
X84127380Y-65551440D01*
X84127380Y-65551440D02*
X84127380Y-69251440D01*
X84127380Y-69251440D02*
X82227380Y-69251440D01*
X82227380Y-69251440D02*
X82227380Y-65551440D01*
X92636300Y-68893300D02*
X92636300Y-65193300D01*
X94536300Y-68893300D02*
X92636300Y-68893300D01*
X94536300Y-65193300D02*
X94536300Y-68893300D01*
X92636300Y-65193300D02*
X94536300Y-65193300D01*
X85645240Y-55947580D02*
X85645240Y-52647580D01*
X87105240Y-55947580D02*
X85645240Y-55947580D01*
X87105240Y-52647580D02*
X87105240Y-55947580D01*
X85645240Y-52647580D02*
X87105240Y-52647580D01*
X75462380Y-65751440D02*
X76922380Y-65751440D01*
X76922380Y-65751440D02*
X76922380Y-69051440D01*
X76922380Y-69051440D02*
X75462380Y-69051440D01*
X75462380Y-69051440D02*
X75462380Y-65751440D01*
X85871300Y-68693300D02*
X85871300Y-65393300D01*
X87331300Y-68693300D02*
X85871300Y-68693300D01*
X87331300Y-65393300D02*
X87331300Y-68693300D01*
X85871300Y-65393300D02*
X87331300Y-65393300D01*
X88600240Y-56147580D02*
X88600240Y-52447580D01*
X90500240Y-56147580D02*
X88600240Y-56147580D01*
X90500240Y-52447580D02*
X90500240Y-56147580D01*
X88600240Y-52447580D02*
X90500240Y-52447580D01*
X78417380Y-65551440D02*
X80317380Y-65551440D01*
X80317380Y-65551440D02*
X80317380Y-69251440D01*
X80317380Y-69251440D02*
X78417380Y-69251440D01*
X78417380Y-69251440D02*
X78417380Y-65551440D01*
X88826300Y-68893300D02*
X88826300Y-65193300D01*
X90726300Y-68893300D02*
X88826300Y-68893300D01*
X90726300Y-65193300D02*
X90726300Y-68893300D01*
X88826300Y-65193300D02*
X90726300Y-65193300D01*
X99113200Y-49227900D02*
X99113200Y-54127900D01*
X96873200Y-49227900D02*
X99113200Y-49227900D01*
X96873200Y-54127900D02*
X96873200Y-49227900D01*
X99113200Y-54127900D02*
X96873200Y-54127900D01*
X100717100Y-49251600D02*
X100717100Y-52551600D01*
X99257100Y-49251600D02*
X100717100Y-49251600D01*
X99257100Y-52551600D02*
X99257100Y-49251600D01*
X100717100Y-52551600D02*
X99257100Y-52551600D01*
X102241100Y-49251600D02*
X102241100Y-52551600D01*
X100781100Y-49251600D02*
X102241100Y-49251600D01*
X100781100Y-52551600D02*
X100781100Y-49251600D01*
X102241100Y-52551600D02*
X100781100Y-52551600D01*
X80639880Y-55925000D02*
X80639880Y-52225000D01*
X82539880Y-55925000D02*
X80639880Y-55925000D01*
X82539880Y-52225000D02*
X82539880Y-55925000D01*
X80639880Y-52225000D02*
X82539880Y-52225000D01*
X70982800Y-68537700D02*
X70982800Y-64837700D01*
X72882800Y-68537700D02*
X70982800Y-68537700D01*
X72882800Y-64837700D02*
X72882800Y-68537700D01*
X70982800Y-64837700D02*
X72882800Y-64837700D01*
X74073000Y-56279080D02*
X74073000Y-52979080D01*
X75533000Y-56279080D02*
X74073000Y-56279080D01*
X75533000Y-52979080D02*
X75533000Y-56279080D01*
X74073000Y-52979080D02*
X75533000Y-52979080D01*
X64217800Y-68337700D02*
X64217800Y-65037700D01*
X65677800Y-68337700D02*
X64217800Y-68337700D01*
X65677800Y-65037700D02*
X65677800Y-68337700D01*
X64217800Y-65037700D02*
X65677800Y-65037700D01*
X76956880Y-56202080D02*
X76956880Y-52502080D01*
X78856880Y-56202080D02*
X76956880Y-56202080D01*
X78856880Y-52502080D02*
X78856880Y-56202080D01*
X76956880Y-52502080D02*
X78856880Y-52502080D01*
X67172800Y-68537700D02*
X67172800Y-64837700D01*
X69072800Y-68537700D02*
X67172800Y-68537700D01*
X69072800Y-64837700D02*
X69072800Y-68537700D01*
X67172800Y-64837700D02*
X69072800Y-64837700D01*
X86785200Y-79313800D02*
X86785200Y-82613800D01*
X85325200Y-79313800D02*
X86785200Y-79313800D01*
X85325200Y-82613800D02*
X85325200Y-79313800D01*
X86785200Y-82613800D02*
X85325200Y-82613800D01*
X50201600Y-63304400D02*
X50201600Y-59804400D01*
X53601600Y-63304400D02*
X50201600Y-63304400D01*
X53601600Y-59804400D02*
X53601600Y-63304400D01*
X50201600Y-59804400D02*
X53601600Y-59804400D01*
X44167200Y-63268000D02*
X44167200Y-59668000D01*
X35517200Y-63268000D02*
X44167200Y-63268000D01*
X35517200Y-59668000D02*
X35517200Y-63268000D01*
X44167200Y-59668000D02*
X35517200Y-59668000D01*
X59485680Y-52396480D02*
X58585680Y-53696480D01*
X59485680Y-50946480D02*
X59485680Y-52396480D01*
X57585680Y-49646480D02*
X58585680Y-49646480D01*
X59485680Y-50946480D02*
X58585680Y-49646480D01*
X57585680Y-53696480D02*
X58585680Y-53696480D01*
X42185680Y-50946480D02*
X43085680Y-49646480D01*
X57585680Y-53696480D02*
X57585680Y-55896480D01*
X44085680Y-55896480D02*
X57585680Y-55896480D01*
X44085680Y-53696480D02*
X44085680Y-55896480D01*
X42185680Y-52396480D02*
X42185680Y-50946480D01*
X44085680Y-53696480D02*
X43085680Y-53696480D01*
X42185680Y-52396480D02*
X43085680Y-53696480D01*
X57585680Y-49646480D02*
X57585680Y-42396480D01*
X57585680Y-42396480D02*
X58585680Y-42396480D01*
X58585680Y-42396480D02*
X58585680Y-40896480D01*
X58585680Y-40896480D02*
X43085680Y-40896480D01*
X43085680Y-40896480D02*
X43085680Y-42396480D01*
X43085680Y-42396480D02*
X44085680Y-42396480D01*
X44085680Y-42396480D02*
X44085680Y-49646480D01*
X44085680Y-49646480D02*
X43085680Y-49646480D01*
X97412000Y-49060000D02*
X107302000Y-49060000D01*
X97412000Y-40870000D02*
X97412000Y-49060000D01*
X107302000Y-40870000D02*
X97412000Y-40870000D01*
X107302000Y-49060000D02*
X107302000Y-40870000D01*
X83902800Y-86954600D02*
X83902800Y-83654600D01*
X85362800Y-86954600D02*
X83902800Y-86954600D01*
X85362800Y-83654600D02*
X85362800Y-86954600D01*
X83902800Y-83654600D02*
X85362800Y-83654600D01*
X97720400Y-68034200D02*
X97720400Y-64734200D01*
X99180400Y-68034200D02*
X97720400Y-68034200D01*
X99180400Y-64734200D02*
X99180400Y-68034200D01*
X97720400Y-64734200D02*
X99180400Y-64734200D01*
X106953300Y-103299500D02*
X106953300Y-99999500D01*
X108413300Y-103299500D02*
X106953300Y-103299500D01*
X108413300Y-99999500D02*
X108413300Y-103299500D01*
X106953300Y-99999500D02*
X108413300Y-99999500D01*
X103778300Y-103299500D02*
X103778300Y-99999500D01*
X105238300Y-103299500D02*
X103778300Y-103299500D01*
X105238300Y-99999500D02*
X105238300Y-103299500D01*
X103778300Y-99999500D02*
X105238300Y-99999500D01*
X100603300Y-103299500D02*
X100603300Y-99999500D01*
X102063300Y-103299500D02*
X100603300Y-103299500D01*
X102063300Y-99999500D02*
X102063300Y-103299500D01*
X100603300Y-99999500D02*
X102063300Y-99999500D01*
X97428300Y-103299500D02*
X97428300Y-99999500D01*
X98888300Y-103299500D02*
X97428300Y-103299500D01*
X98888300Y-99999500D02*
X98888300Y-103299500D01*
X97428300Y-99999500D02*
X98888300Y-99999500D01*
X94253300Y-103299500D02*
X94253300Y-99999500D01*
X95713300Y-103299500D02*
X94253300Y-103299500D01*
X95713300Y-99999500D02*
X95713300Y-103299500D01*
X94253300Y-99999500D02*
X95713300Y-99999500D01*
X91078300Y-103299500D02*
X91078300Y-99999500D01*
X92538300Y-103299500D02*
X91078300Y-103299500D01*
X92538300Y-99999500D02*
X92538300Y-103299500D01*
X91078300Y-99999500D02*
X92538300Y-99999500D01*
X87903300Y-103299500D02*
X87903300Y-99999500D01*
X89363300Y-103299500D02*
X87903300Y-103299500D01*
X89363300Y-99999500D02*
X89363300Y-103299500D01*
X87903300Y-99999500D02*
X89363300Y-99999500D01*
X84728300Y-103299500D02*
X84728300Y-99999500D01*
X86188300Y-103299500D02*
X84728300Y-103299500D01*
X86188300Y-99999500D02*
X86188300Y-103299500D01*
X84728300Y-99999500D02*
X86188300Y-99999500D01*
X109104160Y-66894960D02*
X112404160Y-66894960D01*
X109104160Y-68354960D02*
X109104160Y-66894960D01*
X112404160Y-68354960D02*
X109104160Y-68354960D01*
X112404160Y-66894960D02*
X112404160Y-68354960D01*
X92444320Y-71764920D02*
X92444320Y-75064920D01*
X90984320Y-71764920D02*
X92444320Y-71764920D01*
X90984320Y-75064920D02*
X90984320Y-71764920D01*
X92444320Y-75064920D02*
X90984320Y-75064920D01*
X78025000Y-73270000D02*
X81325000Y-73270000D01*
X78025000Y-74730000D02*
X78025000Y-73270000D01*
X81325000Y-74730000D02*
X78025000Y-74730000D01*
X81325000Y-73270000D02*
X81325000Y-74730000D01*
X82441800Y-100813500D02*
X82441800Y-104113500D01*
X80981800Y-100813500D02*
X82441800Y-100813500D01*
X80981800Y-104113500D02*
X80981800Y-100813500D01*
X82441800Y-104113500D02*
X80981800Y-104113500D01*
X66732400Y-97193400D02*
X66732400Y-93893400D01*
X68192400Y-97193400D02*
X66732400Y-97193400D01*
X68192400Y-93893400D02*
X68192400Y-97193400D01*
X66732400Y-93893400D02*
X68192400Y-93893400D01*
X80854300Y-100799500D02*
X80854300Y-104099500D01*
X79394300Y-100799500D02*
X80854300Y-100799500D01*
X79394300Y-104099500D02*
X79394300Y-100799500D01*
X80854300Y-104099500D02*
X79394300Y-104099500D01*
X65872600Y-77692000D02*
X62572600Y-77692000D01*
X65872600Y-76232000D02*
X65872600Y-77692000D01*
X62572600Y-76232000D02*
X65872600Y-76232000D01*
X62572600Y-77692000D02*
X62572600Y-76232000D01*
X65872600Y-75660000D02*
X62572600Y-75660000D01*
X65872600Y-74200000D02*
X65872600Y-75660000D01*
X62572600Y-74200000D02*
X65872600Y-74200000D01*
X62572600Y-75660000D02*
X62572600Y-74200000D01*
X65872600Y-73729600D02*
X62572600Y-73729600D01*
X65872600Y-72269600D02*
X65872600Y-73729600D01*
X62572600Y-72269600D02*
X65872600Y-72269600D01*
X62572600Y-73729600D02*
X62572600Y-72269600D01*
X60473840Y-56243520D02*
X60473840Y-52943520D01*
X61933840Y-56243520D02*
X60473840Y-56243520D01*
X61933840Y-52943520D02*
X61933840Y-56243520D01*
X60473840Y-52943520D02*
X61933840Y-52943520D01*
X105848400Y-52450000D02*
X105848400Y-49150000D01*
X107308400Y-52450000D02*
X105848400Y-52450000D01*
X107308400Y-49150000D02*
X107308400Y-52450000D01*
X105848400Y-49150000D02*
X107308400Y-49150000D01*
X87199200Y-84715600D02*
X90499200Y-84715600D01*
X87199200Y-86175600D02*
X87199200Y-84715600D01*
X90499200Y-86175600D02*
X87199200Y-86175600D01*
X90499200Y-84715600D02*
X90499200Y-86175600D01*
X80096000Y-86060800D02*
X75946000Y-86060800D01*
X80096000Y-87510800D02*
X80096000Y-86060800D01*
X81196000Y-87510800D02*
X80096000Y-87510800D01*
X81196000Y-88610800D02*
X81196000Y-87510800D01*
X82646000Y-88610800D02*
X81196000Y-88610800D01*
X82646000Y-92760800D02*
X82646000Y-88610800D01*
X80096000Y-99460800D02*
X75946000Y-99460800D01*
X80096000Y-98010800D02*
X80096000Y-99460800D01*
X81196000Y-98010800D02*
X80096000Y-98010800D01*
X81196000Y-96910800D02*
X81196000Y-98010800D01*
X82646000Y-96910800D02*
X81196000Y-96910800D01*
X82646000Y-92760800D02*
X82646000Y-96910800D01*
X71796000Y-86060800D02*
X75946000Y-86060800D01*
X71796000Y-87510800D02*
X71796000Y-86060800D01*
X70696000Y-87510800D02*
X71796000Y-87510800D01*
X70696000Y-88610800D02*
X70696000Y-87510800D01*
X69246000Y-88610800D02*
X70696000Y-88610800D01*
X69246000Y-92760800D02*
X69246000Y-88610800D01*
X71796000Y-99460800D02*
X75946000Y-99460800D01*
X71796000Y-98010800D02*
X71796000Y-99460800D01*
X70696000Y-98010800D02*
X71796000Y-98010800D01*
X70696000Y-96910800D02*
X70696000Y-98010800D01*
X69246000Y-96910800D02*
X70696000Y-96910800D01*
X69246000Y-92760800D02*
X69246000Y-96910800D01*
X80682100Y-84826300D02*
X77382100Y-84826300D01*
X80682100Y-83366300D02*
X80682100Y-84826300D01*
X77382100Y-83366300D02*
X80682100Y-83366300D01*
X77382100Y-84826300D02*
X77382100Y-83366300D01*
X65872600Y-81603600D02*
X62572600Y-81603600D01*
X65872600Y-80143600D02*
X65872600Y-81603600D01*
X62572600Y-80143600D02*
X65872600Y-80143600D01*
X62572600Y-81603600D02*
X62572600Y-80143600D01*
X65849800Y-79724000D02*
X62549800Y-79724000D01*
X65849800Y-78264000D02*
X65849800Y-79724000D01*
X62549800Y-78264000D02*
X65849800Y-78264000D01*
X62549800Y-79724000D02*
X62549800Y-78264000D01*
M02*
